<svg xmlns="http://www.w3.org/2000/svg" xmlns:xlink="http://www.w3.org/1999/xlink" width="320" zoomAndPan="magnify" viewBox="0 0 240 37.5" height="50" preserveAspectRatio="xMidYMid meet" version="1.0"><defs><g/><clipPath id="3068c74264"><path d="M 139 4 L 163 4 L 163 34 L 139 34 Z M 139 4 " clip-rule="nonzero"/></clipPath><clipPath id="d99d79c7e8"><path d="M 151.523438 0 L 169.042969 11.074219 L 153.222656 36.097656 L 135.707031 25.027344 Z M 151.523438 0 " clip-rule="nonzero"/></clipPath><clipPath id="9813ee39e3"><path d="M 151.523438 0 L 169.042969 11.074219 L 153.222656 36.097656 L 135.707031 25.027344 Z M 151.523438 0 " clip-rule="nonzero"/></clipPath></defs><g fill="#000000" fill-opacity="1"><g transform="translate(1.208904, 26.122085)"><g><path d="M 15.40625 -14.4375 C 15.40625 -15.175781 15.242188 -15.8125 14.921875 -16.34375 C 14.597656 -16.875 14.140625 -17.316406 13.546875 -17.671875 C 12.960938 -18.023438 12.265625 -18.28125 11.453125 -18.4375 C 10.640625 -18.59375 9.734375 -18.671875 8.734375 -18.671875 L 0.890625 -18.671875 L 0.890625 -18.21875 L 2.375 -18.21875 L 2.375 -0.4375 L 0.890625 -0.4375 L 0.890625 0 L 9.515625 0 C 10.347656 0 11.132812 -0.0820312 11.875 -0.25 C 12.625 -0.414062 13.28125 -0.695312 13.84375 -1.09375 C 14.40625 -1.488281 14.851562 -2.019531 15.1875 -2.6875 C 15.53125 -3.363281 15.703125 -4.203125 15.703125 -5.203125 C 15.703125 -6.085938 15.519531 -6.832031 15.15625 -7.4375 C 14.789062 -8.050781 14.320312 -8.550781 13.75 -8.9375 C 13.175781 -9.320312 12.554688 -9.613281 11.890625 -9.8125 C 11.222656 -10.019531 10.609375 -10.148438 10.046875 -10.203125 C 10.609375 -10.253906 11.207031 -10.335938 11.84375 -10.453125 C 12.488281 -10.566406 13.070312 -10.773438 13.59375 -11.078125 C 14.113281 -11.378906 14.546875 -11.789062 14.890625 -12.3125 C 15.234375 -12.84375 15.40625 -13.550781 15.40625 -14.4375 Z M 6.828125 -10.375 L 6.828125 -18.21875 L 8.234375 -18.21875 C 9.179688 -18.21875 9.84375 -17.972656 10.21875 -17.484375 C 10.59375 -17.003906 10.78125 -16.179688 10.78125 -15.015625 L 10.78125 -13.859375 C 10.78125 -12.734375 10.597656 -11.867188 10.234375 -11.265625 C 9.878906 -10.671875 9.289062 -10.375 8.46875 -10.375 Z M 6.828125 -0.4375 L 6.828125 -9.921875 L 8.765625 -9.921875 C 9.285156 -9.921875 9.695312 -9.828125 10 -9.640625 C 10.300781 -9.460938 10.535156 -9.191406 10.703125 -8.828125 C 10.867188 -8.472656 10.972656 -8.035156 11.015625 -7.515625 C 11.066406 -7.003906 11.09375 -6.425781 11.09375 -5.78125 L 11.09375 -4.625 C 11.09375 -4.03125 11.082031 -3.472656 11.0625 -2.953125 C 11.039062 -2.441406 10.957031 -2 10.8125 -1.625 C 10.664062 -1.257812 10.4375 -0.96875 10.125 -0.75 C 9.8125 -0.539062 9.359375 -0.4375 8.765625 -0.4375 Z M 6.828125 -0.4375 "/></g></g></g><g fill="#000000" fill-opacity="1"><g transform="translate(17.827147, 26.122085)"><g><path d="M 12.96875 -6.828125 C 12.894531 -7.328125 12.742188 -7.878906 12.515625 -8.484375 C 12.285156 -9.097656 11.9375 -9.671875 11.46875 -10.203125 C 11 -10.734375 10.375 -11.179688 9.59375 -11.546875 C 8.820312 -11.921875 7.847656 -12.109375 6.671875 -12.109375 C 5.617188 -12.109375 4.695312 -11.925781 3.90625 -11.5625 C 3.125 -11.207031 2.46875 -10.738281 1.9375 -10.15625 C 1.414062 -9.582031 1.023438 -8.921875 0.765625 -8.171875 C 0.515625 -7.421875 0.390625 -6.660156 0.390625 -5.890625 C 0.390625 -5.117188 0.515625 -4.359375 0.765625 -3.609375 C 1.023438 -2.859375 1.414062 -2.191406 1.9375 -1.609375 C 2.46875 -1.035156 3.125 -0.566406 3.90625 -0.203125 C 4.695312 0.148438 5.617188 0.328125 6.671875 0.328125 C 7.398438 0.328125 8.070312 0.226562 8.6875 0.03125 C 9.3125 -0.15625 9.867188 -0.414062 10.359375 -0.75 C 10.847656 -1.082031 11.257812 -1.460938 11.59375 -1.890625 C 11.9375 -2.328125 12.203125 -2.785156 12.390625 -3.265625 C 12.441406 -3.390625 12.46875 -3.507812 12.46875 -3.625 C 12.46875 -3.8125 12.40625 -3.90625 12.28125 -3.90625 C 12.164062 -3.90625 12.082031 -3.863281 12.03125 -3.78125 C 11.976562 -3.707031 11.90625 -3.585938 11.8125 -3.421875 C 11.601562 -3.023438 11.347656 -2.632812 11.046875 -2.25 C 10.742188 -1.875 10.378906 -1.535156 9.953125 -1.234375 C 9.523438 -0.941406 9.039062 -0.707031 8.5 -0.53125 C 7.957031 -0.363281 7.347656 -0.28125 6.671875 -0.28125 C 6.390625 -0.28125 6.140625 -0.316406 5.921875 -0.390625 C 5.703125 -0.460938 5.507812 -0.597656 5.34375 -0.796875 C 5.1875 -1.003906 5.066406 -1.285156 4.984375 -1.640625 C 4.910156 -2.003906 4.875 -2.460938 4.875 -3.015625 L 4.875 -6.828125 Z M 4.875 -9.40625 C 4.875 -10.875 5.460938 -11.609375 6.640625 -11.609375 C 7.785156 -11.609375 8.359375 -10.875 8.359375 -9.40625 L 8.359375 -7.359375 L 4.875 -7.359375 Z M 4.875 -9.40625 "/></g></g></g><g fill="#000000" fill-opacity="1"><g transform="translate(31.376142, 26.122085)"><g><path d="M 6.21875 -16.53125 L 5.828125 -16.53125 C 5.722656 -15.832031 5.535156 -15.21875 5.265625 -14.6875 C 5.003906 -14.164062 4.703125 -13.722656 4.359375 -13.359375 C 4.015625 -12.992188 3.644531 -12.6875 3.25 -12.4375 C 2.851562 -12.195312 2.460938 -12.015625 2.078125 -11.890625 L 0.578125 -11.890625 L 0.578125 -11.453125 L 2.078125 -11.453125 L 2.078125 -4.875 C 2.078125 -3.851562 2.203125 -3.007812 2.453125 -2.34375 C 2.703125 -1.6875 3.039062 -1.160156 3.46875 -0.765625 C 3.90625 -0.367188 4.410156 -0.0859375 4.984375 0.078125 C 5.566406 0.242188 6.179688 0.328125 6.828125 0.328125 C 7.953125 0.328125 8.769531 0.0976562 9.28125 -0.359375 C 9.800781 -0.816406 10.132812 -1.441406 10.28125 -2.234375 L 10.28125 -2.328125 C 10.28125 -2.523438 10.203125 -2.625 10.046875 -2.625 C 9.984375 -2.625 9.925781 -2.597656 9.875 -2.546875 C 9.820312 -2.492188 9.785156 -2.410156 9.765625 -2.296875 C 9.671875 -1.742188 9.460938 -1.3125 9.140625 -1 C 8.816406 -0.6875 8.441406 -0.53125 8.015625 -0.53125 C 7.316406 -0.53125 6.84375 -0.832031 6.59375 -1.4375 C 6.34375 -2.039062 6.21875 -3.035156 6.21875 -4.421875 L 6.21875 -11.453125 L 8.296875 -11.453125 L 8.296875 -11.890625 L 6.21875 -11.890625 Z M 6.21875 -16.53125 "/></g></g></g><g fill="#000000" fill-opacity="1"><g transform="translate(42.215338, 26.122085)"><g><path d="M 6.21875 -16.53125 L 5.828125 -16.53125 C 5.722656 -15.832031 5.535156 -15.21875 5.265625 -14.6875 C 5.003906 -14.164062 4.703125 -13.722656 4.359375 -13.359375 C 4.015625 -12.992188 3.644531 -12.6875 3.25 -12.4375 C 2.851562 -12.195312 2.460938 -12.015625 2.078125 -11.890625 L 0.578125 -11.890625 L 0.578125 -11.453125 L 2.078125 -11.453125 L 2.078125 -4.875 C 2.078125 -3.851562 2.203125 -3.007812 2.453125 -2.34375 C 2.703125 -1.6875 3.039062 -1.160156 3.46875 -0.765625 C 3.90625 -0.367188 4.410156 -0.0859375 4.984375 0.078125 C 5.566406 0.242188 6.179688 0.328125 6.828125 0.328125 C 7.953125 0.328125 8.769531 0.0976562 9.28125 -0.359375 C 9.800781 -0.816406 10.132812 -1.441406 10.28125 -2.234375 L 10.28125 -2.328125 C 10.28125 -2.523438 10.203125 -2.625 10.046875 -2.625 C 9.984375 -2.625 9.925781 -2.597656 9.875 -2.546875 C 9.820312 -2.492188 9.785156 -2.410156 9.765625 -2.296875 C 9.671875 -1.742188 9.460938 -1.3125 9.140625 -1 C 8.816406 -0.6875 8.441406 -0.53125 8.015625 -0.53125 C 7.316406 -0.53125 6.84375 -0.832031 6.59375 -1.4375 C 6.34375 -2.039062 6.21875 -3.035156 6.21875 -4.421875 L 6.21875 -11.453125 L 8.296875 -11.453125 L 8.296875 -11.890625 L 6.21875 -11.890625 Z M 6.21875 -16.53125 "/></g></g></g><g fill="#000000" fill-opacity="1"><g transform="translate(53.054534, 26.122085)"><g><path d="M 12.96875 -6.828125 C 12.894531 -7.328125 12.742188 -7.878906 12.515625 -8.484375 C 12.285156 -9.097656 11.9375 -9.671875 11.46875 -10.203125 C 11 -10.734375 10.375 -11.179688 9.59375 -11.546875 C 8.820312 -11.921875 7.847656 -12.109375 6.671875 -12.109375 C 5.617188 -12.109375 4.695312 -11.925781 3.90625 -11.5625 C 3.125 -11.207031 2.46875 -10.738281 1.9375 -10.15625 C 1.414062 -9.582031 1.023438 -8.921875 0.765625 -8.171875 C 0.515625 -7.421875 0.390625 -6.660156 0.390625 -5.890625 C 0.390625 -5.117188 0.515625 -4.359375 0.765625 -3.609375 C 1.023438 -2.859375 1.414062 -2.191406 1.9375 -1.609375 C 2.46875 -1.035156 3.125 -0.566406 3.90625 -0.203125 C 4.695312 0.148438 5.617188 0.328125 6.671875 0.328125 C 7.398438 0.328125 8.070312 0.226562 8.6875 0.03125 C 9.3125 -0.15625 9.867188 -0.414062 10.359375 -0.75 C 10.847656 -1.082031 11.257812 -1.460938 11.59375 -1.890625 C 11.9375 -2.328125 12.203125 -2.785156 12.390625 -3.265625 C 12.441406 -3.390625 12.46875 -3.507812 12.46875 -3.625 C 12.46875 -3.8125 12.40625 -3.90625 12.28125 -3.90625 C 12.164062 -3.90625 12.082031 -3.863281 12.03125 -3.78125 C 11.976562 -3.707031 11.90625 -3.585938 11.8125 -3.421875 C 11.601562 -3.023438 11.347656 -2.632812 11.046875 -2.25 C 10.742188 -1.875 10.378906 -1.535156 9.953125 -1.234375 C 9.523438 -0.941406 9.039062 -0.707031 8.5 -0.53125 C 7.957031 -0.363281 7.347656 -0.28125 6.671875 -0.28125 C 6.390625 -0.28125 6.140625 -0.316406 5.921875 -0.390625 C 5.703125 -0.460938 5.507812 -0.597656 5.34375 -0.796875 C 5.1875 -1.003906 5.066406 -1.285156 4.984375 -1.640625 C 4.910156 -2.003906 4.875 -2.460938 4.875 -3.015625 L 4.875 -6.828125 Z M 4.875 -9.40625 C 4.875 -10.875 5.460938 -11.609375 6.640625 -11.609375 C 7.785156 -11.609375 8.359375 -10.875 8.359375 -9.40625 L 8.359375 -7.359375 L 4.875 -7.359375 Z M 4.875 -9.40625 "/></g></g></g><g fill="#000000" fill-opacity="1"><g transform="translate(66.603528, 26.122085)"><g><path d="M 6.3125 -10.15625 L 6.3125 -12.53125 L 0.65625 -11.59375 L 0.65625 -11.125 L 2.15625 -11.359375 L 2.15625 -0.4375 L 0.65625 -0.4375 L 0.65625 0 L 7.796875 0 L 7.796875 -0.4375 L 6.3125 -0.4375 L 6.3125 -8.4375 C 6.3125 -8.707031 6.375 -9.019531 6.5 -9.375 C 6.625 -9.726562 6.8125 -10.066406 7.0625 -10.390625 C 7.3125 -10.710938 7.601562 -10.984375 7.9375 -11.203125 C 8.269531 -11.421875 8.648438 -11.53125 9.078125 -11.53125 C 8.867188 -11.40625 8.65625 -11.210938 8.4375 -10.953125 C 8.21875 -10.691406 8.109375 -10.34375 8.109375 -9.90625 C 8.109375 -9.363281 8.28125 -8.925781 8.625 -8.59375 C 8.976562 -8.269531 9.457031 -8.109375 10.0625 -8.109375 C 10.539062 -8.109375 10.984375 -8.257812 11.390625 -8.5625 C 11.796875 -8.863281 12 -9.328125 12 -9.953125 C 12 -10.671875 11.769531 -11.207031 11.3125 -11.5625 C 10.851562 -11.925781 10.226562 -12.109375 9.4375 -12.109375 C 8.695312 -12.109375 8.054688 -11.921875 7.515625 -11.546875 C 6.984375 -11.179688 6.582031 -10.71875 6.3125 -10.15625 Z M 6.3125 -10.15625 "/></g></g></g><g fill="#000000" fill-opacity="1"><g transform="translate(79.378297, 26.122085)"><g/></g></g><g fill="#000000" fill-opacity="1"><g transform="translate(87.397096, 26.122085)"><g><path d="M 8.625 -18.828125 L 3.046875 -1.875 C 2.910156 -1.488281 2.671875 -1.148438 2.328125 -0.859375 C 1.992188 -0.578125 1.53125 -0.4375 0.9375 -0.4375 L 0.9375 0 L 5.109375 0 L 5.109375 -0.4375 C 4.785156 -0.4375 4.519531 -0.46875 4.3125 -0.53125 C 4.113281 -0.601562 3.957031 -0.6875 3.84375 -0.78125 C 3.726562 -0.882812 3.648438 -0.992188 3.609375 -1.109375 C 3.578125 -1.234375 3.5625 -1.34375 3.5625 -1.4375 C 3.5625 -1.550781 3.566406 -1.648438 3.578125 -1.734375 C 3.585938 -1.816406 3.617188 -1.929688 3.671875 -2.078125 L 4.84375 -5.78125 L 10.40625 -5.78125 L 12.171875 -0.4375 L 10.671875 -0.4375 L 10.671875 0 L 18.109375 0 L 18.109375 -0.4375 L 16.625 -0.4375 L 10.53125 -18.828125 Z M 7.609375 -14.21875 L 10.234375 -6.21875 L 5 -6.21875 Z M 7.609375 -14.21875 "/></g></g></g><g fill="#000000" fill-opacity="1"><g transform="translate(106.393312, 26.122085)"><g><path d="M 6.390625 -0.4375 L 6.390625 -12.78125 L 0.75 -11.890625 L 0.75 -11.421875 L 2.234375 -11.671875 L 2.234375 -0.4375 L 0.75 -0.4375 L 0.75 0 L 7.875 0 L 7.875 -0.4375 Z M 6.4375 -16.015625 C 6.4375 -16.617188 6.222656 -17.132812 5.796875 -17.5625 C 5.378906 -17.988281 4.867188 -18.203125 4.265625 -18.203125 C 3.648438 -18.203125 3.128906 -17.988281 2.703125 -17.5625 C 2.285156 -17.132812 2.078125 -16.617188 2.078125 -16.015625 C 2.078125 -15.398438 2.285156 -14.878906 2.703125 -14.453125 C 3.128906 -14.035156 3.648438 -13.828125 4.265625 -13.828125 C 4.867188 -13.828125 5.378906 -14.035156 5.796875 -14.453125 C 6.222656 -14.878906 6.4375 -15.398438 6.4375 -16.015625 Z M 6.4375 -16.015625 "/></g></g></g><g fill="#000000" fill-opacity="1"><g transform="translate(115.131046, 26.122085)"><g><path d="M 5.53125 -7.296875 C 5.53125 -8.109375 5.550781 -8.78125 5.59375 -9.3125 C 5.644531 -9.851562 5.722656 -10.28125 5.828125 -10.59375 C 5.941406 -10.90625 6.085938 -11.125 6.265625 -11.25 C 6.441406 -11.382812 6.664062 -11.453125 6.9375 -11.453125 C 7.457031 -11.453125 7.90625 -11.265625 8.28125 -10.890625 C 8.65625 -10.523438 8.972656 -10.113281 9.234375 -9.65625 L 9.234375 -2.515625 C 9.128906 -2.316406 8.992188 -2.097656 8.828125 -1.859375 C 8.660156 -1.628906 8.472656 -1.410156 8.265625 -1.203125 C 8.066406 -1.003906 7.851562 -0.84375 7.625 -0.71875 C 7.40625 -0.59375 7.175781 -0.53125 6.9375 -0.53125 C 6.664062 -0.53125 6.4375 -0.570312 6.25 -0.65625 C 6.0625 -0.75 5.914062 -0.929688 5.8125 -1.203125 C 5.71875 -1.484375 5.644531 -1.882812 5.59375 -2.40625 C 5.550781 -2.9375 5.53125 -3.644531 5.53125 -4.53125 Z M 7.765625 -17.84375 L 9.234375 -18.109375 L 9.234375 -10.625 C 9.015625 -11.039062 8.664062 -11.382812 8.1875 -11.65625 C 7.707031 -11.9375 7.082031 -12.078125 6.3125 -12.078125 C 5.382812 -12.078125 4.570312 -11.898438 3.875 -11.546875 C 3.1875 -11.203125 2.613281 -10.738281 2.15625 -10.15625 C 1.695312 -9.582031 1.351562 -8.925781 1.125 -8.1875 C 0.894531 -7.445312 0.78125 -6.691406 0.78125 -5.921875 C 0.78125 -5.140625 0.894531 -4.375 1.125 -3.625 C 1.351562 -2.882812 1.695312 -2.222656 2.15625 -1.640625 C 2.613281 -1.066406 3.1875 -0.601562 3.875 -0.25 C 4.570312 0.101562 5.382812 0.28125 6.3125 0.28125 C 7.007812 0.28125 7.601562 0.0820312 8.09375 -0.3125 C 8.582031 -0.707031 8.960938 -1.101562 9.234375 -1.5 L 9.234375 0 L 14.875 0 L 14.875 -0.4375 L 13.390625 -0.4375 L 13.390625 -19.328125 L 7.765625 -18.28125 Z M 7.765625 -17.84375 "/></g></g></g><g clip-path="url(#3068c74264)"><g clip-path="url(#d99d79c7e8)"><g clip-path="url(#9813ee39e3)"><path fill="#ffffff" d="M 156.625 25.097656 C 156.707031 24.15625 156.78125 23.261719 156.820312 22.753906 C 157.964844 22.585938 159.152344 21.707031 160.195312 20.109375 C 161.035156 18.824219 161.492188 17.53125 161.492188 17.53125 C 161.492188 17.53125 161.414062 17.445312 161.304688 17.359375 C 161.414062 17 161.542969 16.492188 161.695312 15.851562 C 161.742188 15.859375 161.769531 15.871094 161.769531 15.871094 L 162.097656 14.433594 C 162.097656 14.433594 162.074219 14.382812 162.027344 14.320312 C 162.878906 9.949219 162.203125 7.902344 162.109375 7.304688 C 162.011719 6.671875 161.65625 6.507812 161.285156 6.214844 C 161.011719 6 160.070312 5.632812 159.589844 5.457031 C 159.546875 5.351562 159.492188 5.292969 159.492188 5.292969 C 159.492188 5.292969 158.792969 5.007812 158.007812 5.007812 C 157.570312 5.007812 157.332031 5.675781 157.316406 5.882812 C 157.300781 6.09375 157.316406 6.359375 157.652344 6.472656 C 157.988281 6.585938 159.0625 6.578125 159.292969 6.484375 C 159.402344 6.371094 159.476562 6.257812 159.53125 6.15625 C 160.09375 6.363281 161.277344 6.816406 161.4375 7.050781 C 161.609375 7.3125 162.394531 9.226562 161.324219 14.304688 C 161.265625 14.363281 161.203125 14.433594 161.136719 14.527344 L 161.101562 14.519531 C 161.101562 14.519531 161.050781 14.792969 160.921875 15.191406 C 160.3125 17.042969 159.015625 18.585938 156.773438 18.050781 C 154.796875 17.578125 153.503906 15.457031 152.824219 13.679688 C 152.667969 13.261719 152.589844 12.988281 152.589844 12.988281 L 152.5625 12.996094 L 152.550781 12.929688 C 152.550781 12.929688 152.515625 12.796875 152.425781 12.699219 C 151.890625 8.402344 152.222656 6.082031 153.015625 5.601562 C 153.882812 5.074219 154.765625 5.34375 154.917969 5.382812 C 154.910156 5.585938 154.9375 5.792969 155.0625 5.847656 C 155.914062 6.230469 156.582031 6.265625 156.582031 6.265625 C 156.582031 6.265625 156.699219 6.355469 156.996094 5.699219 C 157.292969 5.046875 156.875 4.742188 156.875 4.742188 C 156.292969 4.570312 155.65625 4.539062 155.375 4.539062 C 155.203125 4.539062 155.109375 4.644531 155.050781 4.773438 C 155.035156 4.761719 155.027344 4.753906 155.027344 4.753906 C 155.117188 4.8125 153.644531 4.425781 152.523438 5.289062 C 151.621094 5.988281 151.101562 9.855469 152.257812 16.277344 C 152.140625 16.351562 152.058594 16.421875 152.058594 16.421875 C 152.195312 17.445312 152.480469 18.496094 152.84375 19.453125 C 153.539062 21.265625 154.542969 22.339844 155.65625 22.671875 C 155.554688 23.925781 155.25 27.679688 155.109375 28.363281 C 154.953125 29.144531 154.429688 30.902344 152.371094 32.054688 C 151.363281 32.617188 149.453125 32.179688 148.570312 30.820312 C 148.066406 30.039062 147.769531 28.734375 147.492188 27.832031 C 145.605469 21.625 142.085938 24.882812 140.949219 22.574219 C 140.292969 21.242188 140.785156 19.425781 141.457031 18.359375 C 141.917969 17.632812 143.910156 15.960938 143.953125 15.921875 C 143.953125 15.921875 143.929688 15.816406 143.886719 15.695312 L 144 15.601562 C 144.074219 15.664062 144.148438 15.722656 144.234375 15.773438 C 145.289062 16.445312 146.703125 16.105469 147.386719 15.023438 C 148.074219 13.9375 147.773438 12.519531 146.714844 11.847656 C 145.65625 11.179688 144.242188 11.519531 143.558594 12.601562 C 143.054688 13.398438 143.085938 14.375 143.558594 15.105469 L 143.480469 15.167969 C 143.34375 15.078125 143.21875 15.019531 143.21875 15.019531 C 142.453125 15.65625 140.976562 16.945312 140.476562 17.738281 C 139.695312 18.972656 138.984375 21.261719 139.898438 23.121094 C 140.738281 24.820312 142.449219 24.605469 143.945312 24.984375 C 146.476562 25.617188 146.328125 29.535156 147.589844 31.484375 C 148.738281 33.261719 151.289062 34 152.921875 33.085938 C 156.335938 31.171875 156.339844 28.378906 156.625 25.097656 Z M 156.625 25.097656 " fill-opacity="1" fill-rule="nonzero"/></g></g></g></svg>