<svg xmlns="http://www.w3.org/2000/svg" xmlns:xlink="http://www.w3.org/1999/xlink" width="320" zoomAndPan="magnify" viewBox="0 0 240 37.5" height="50" preserveAspectRatio="xMidYMid meet" version="1.0"><defs><g/><clipPath id="b276360984"><path d="M 156 5 L 180 5 L 180 34 L 156 34 Z M 156 5 " clip-rule="nonzero"/></clipPath><clipPath id="bd961faa13"><path d="M 168.5 0.5 L 186.019531 11.570312 L 170.199219 36.597656 L 152.683594 25.523438 Z M 168.5 0.5 " clip-rule="nonzero"/></clipPath><clipPath id="4fe55eff88"><path d="M 168.5 0.5 L 186.019531 11.570312 L 170.199219 36.597656 L 152.683594 25.523438 Z M 168.5 0.5 " clip-rule="nonzero"/></clipPath></defs><g fill="#000000" fill-opacity="1"><g transform="translate(1.481282, 30.201898)"><g><path d="M 18.15625 -17.015625 C 18.15625 -17.878906 17.960938 -18.625 17.578125 -19.25 C 17.203125 -19.882812 16.664062 -20.410156 15.96875 -20.828125 C 15.269531 -21.242188 14.441406 -21.539062 13.484375 -21.71875 C 12.535156 -21.90625 11.472656 -22 10.296875 -22 L 1.046875 -22 L 1.046875 -21.484375 L 2.796875 -21.484375 L 2.796875 -0.515625 L 1.046875 -0.515625 L 1.046875 0 L 11.21875 0 C 12.1875 0 13.109375 -0.0976562 13.984375 -0.296875 C 14.867188 -0.492188 15.644531 -0.820312 16.3125 -1.28125 C 16.976562 -1.75 17.507812 -2.378906 17.90625 -3.171875 C 18.3125 -3.972656 18.515625 -4.957031 18.515625 -6.125 C 18.515625 -7.164062 18.296875 -8.046875 17.859375 -8.765625 C 17.421875 -9.484375 16.863281 -10.070312 16.1875 -10.53125 C 15.519531 -10.988281 14.796875 -11.332031 14.015625 -11.5625 C 13.234375 -11.800781 12.503906 -11.957031 11.828125 -12.03125 C 12.503906 -12.09375 13.21875 -12.1875 13.96875 -12.3125 C 14.71875 -12.445312 15.398438 -12.691406 16.015625 -13.046875 C 16.640625 -13.410156 17.148438 -13.898438 17.546875 -14.515625 C 17.953125 -15.140625 18.15625 -15.972656 18.15625 -17.015625 Z M 8.046875 -12.21875 L 8.046875 -21.484375 L 9.71875 -21.484375 C 10.820312 -21.484375 11.597656 -21.191406 12.046875 -20.609375 C 12.492188 -20.035156 12.71875 -19.066406 12.71875 -17.703125 L 12.71875 -16.328125 C 12.71875 -15.003906 12.503906 -13.988281 12.078125 -13.28125 C 11.648438 -12.570312 10.945312 -12.21875 9.96875 -12.21875 Z M 8.046875 -0.515625 L 8.046875 -11.703125 L 10.328125 -11.703125 C 10.941406 -11.703125 11.425781 -11.59375 11.78125 -11.375 C 12.144531 -11.15625 12.421875 -10.832031 12.609375 -10.40625 C 12.804688 -9.988281 12.929688 -9.472656 12.984375 -8.859375 C 13.035156 -8.253906 13.0625 -7.570312 13.0625 -6.8125 L 13.0625 -5.4375 C 13.0625 -4.75 13.050781 -4.097656 13.03125 -3.484375 C 13.007812 -2.878906 12.910156 -2.359375 12.734375 -1.921875 C 12.566406 -1.484375 12.296875 -1.140625 11.921875 -0.890625 C 11.554688 -0.640625 11.023438 -0.515625 10.328125 -0.515625 Z M 8.046875 -0.515625 "/></g></g></g><g fill="#000000" fill-opacity="1"><g transform="translate(21.060389, 30.201898)"><g><path d="M 15.28125 -8.046875 C 15.195312 -8.640625 15.019531 -9.289062 14.75 -10 C 14.476562 -10.71875 14.0625 -11.390625 13.5 -12.015625 C 12.945312 -12.648438 12.210938 -13.1875 11.296875 -13.625 C 10.390625 -14.0625 9.242188 -14.28125 7.859375 -14.28125 C 6.617188 -14.28125 5.535156 -14.066406 4.609375 -13.640625 C 3.691406 -13.210938 2.921875 -12.65625 2.296875 -11.96875 C 1.679688 -11.289062 1.21875 -10.507812 0.90625 -9.625 C 0.601562 -8.75 0.453125 -7.851562 0.453125 -6.9375 C 0.453125 -6.03125 0.601562 -5.132812 0.90625 -4.25 C 1.21875 -3.375 1.679688 -2.59375 2.296875 -1.90625 C 2.921875 -1.21875 3.691406 -0.660156 4.609375 -0.234375 C 5.535156 0.179688 6.617188 0.390625 7.859375 0.390625 C 8.722656 0.390625 9.519531 0.273438 10.25 0.046875 C 10.976562 -0.179688 11.628906 -0.488281 12.203125 -0.875 C 12.773438 -1.269531 13.265625 -1.722656 13.671875 -2.234375 C 14.078125 -2.742188 14.390625 -3.28125 14.609375 -3.84375 C 14.671875 -4 14.703125 -4.140625 14.703125 -4.265625 C 14.703125 -4.484375 14.625 -4.59375 14.46875 -4.59375 C 14.34375 -4.59375 14.242188 -4.546875 14.171875 -4.453125 C 14.109375 -4.367188 14.023438 -4.234375 13.921875 -4.046875 C 13.679688 -3.566406 13.378906 -3.101562 13.015625 -2.65625 C 12.660156 -2.207031 12.234375 -1.804688 11.734375 -1.453125 C 11.234375 -1.109375 10.660156 -0.832031 10.015625 -0.625 C 9.378906 -0.425781 8.660156 -0.328125 7.859375 -0.328125 C 7.523438 -0.328125 7.226562 -0.367188 6.96875 -0.453125 C 6.707031 -0.546875 6.484375 -0.707031 6.296875 -0.9375 C 6.117188 -1.175781 5.976562 -1.507812 5.875 -1.9375 C 5.78125 -2.363281 5.734375 -2.898438 5.734375 -3.546875 L 5.734375 -8.046875 Z M 5.734375 -11.078125 C 5.734375 -12.816406 6.429688 -13.6875 7.828125 -13.6875 C 9.171875 -13.6875 9.84375 -12.816406 9.84375 -11.078125 L 9.84375 -8.671875 L 5.734375 -8.671875 Z M 5.734375 -11.078125 "/></g></g></g><g fill="#000000" fill-opacity="1"><g transform="translate(37.023415, 30.201898)"><g><path d="M 7.328125 -19.484375 L 6.875 -19.484375 C 6.75 -18.660156 6.523438 -17.9375 6.203125 -17.3125 C 5.890625 -16.695312 5.53125 -16.171875 5.125 -15.734375 C 4.726562 -15.304688 4.296875 -14.953125 3.828125 -14.671875 C 3.359375 -14.390625 2.894531 -14.171875 2.4375 -14.015625 L 0.6875 -14.015625 L 0.6875 -13.5 L 2.4375 -13.5 L 2.4375 -5.734375 C 2.4375 -4.535156 2.582031 -3.546875 2.875 -2.765625 C 3.175781 -1.984375 3.582031 -1.359375 4.09375 -0.890625 C 4.601562 -0.429688 5.195312 -0.101562 5.875 0.09375 C 6.5625 0.289062 7.285156 0.390625 8.046875 0.390625 C 9.367188 0.390625 10.332031 0.117188 10.9375 -0.421875 C 11.550781 -0.960938 11.945312 -1.703125 12.125 -2.640625 L 12.125 -2.734375 C 12.125 -2.972656 12.023438 -3.09375 11.828125 -3.09375 C 11.765625 -3.09375 11.695312 -3.0625 11.625 -3 C 11.5625 -2.9375 11.519531 -2.835938 11.5 -2.703125 C 11.394531 -2.054688 11.148438 -1.546875 10.765625 -1.171875 C 10.390625 -0.804688 9.953125 -0.625 9.453125 -0.625 C 8.628906 -0.625 8.066406 -0.976562 7.765625 -1.6875 C 7.472656 -2.40625 7.328125 -3.582031 7.328125 -5.21875 L 7.328125 -13.5 L 9.78125 -13.5 L 9.78125 -14.015625 L 7.328125 -14.015625 Z M 7.328125 -19.484375 "/></g></g></g><g fill="#000000" fill-opacity="1"><g transform="translate(49.793855, 30.201898)"><g><path d="M 7.328125 -19.484375 L 6.875 -19.484375 C 6.75 -18.660156 6.523438 -17.9375 6.203125 -17.3125 C 5.890625 -16.695312 5.53125 -16.171875 5.125 -15.734375 C 4.726562 -15.304688 4.296875 -14.953125 3.828125 -14.671875 C 3.359375 -14.390625 2.894531 -14.171875 2.4375 -14.015625 L 0.6875 -14.015625 L 0.6875 -13.5 L 2.4375 -13.5 L 2.4375 -5.734375 C 2.4375 -4.535156 2.582031 -3.546875 2.875 -2.765625 C 3.175781 -1.984375 3.582031 -1.359375 4.09375 -0.890625 C 4.601562 -0.429688 5.195312 -0.101562 5.875 0.09375 C 6.5625 0.289062 7.285156 0.390625 8.046875 0.390625 C 9.367188 0.390625 10.332031 0.117188 10.9375 -0.421875 C 11.550781 -0.960938 11.945312 -1.703125 12.125 -2.640625 L 12.125 -2.734375 C 12.125 -2.972656 12.023438 -3.09375 11.828125 -3.09375 C 11.765625 -3.09375 11.695312 -3.0625 11.625 -3 C 11.5625 -2.9375 11.519531 -2.835938 11.5 -2.703125 C 11.394531 -2.054688 11.148438 -1.546875 10.765625 -1.171875 C 10.390625 -0.804688 9.953125 -0.625 9.453125 -0.625 C 8.628906 -0.625 8.066406 -0.976562 7.765625 -1.6875 C 7.472656 -2.40625 7.328125 -3.582031 7.328125 -5.21875 L 7.328125 -13.5 L 9.78125 -13.5 L 9.78125 -14.015625 L 7.328125 -14.015625 Z M 7.328125 -19.484375 "/></g></g></g><g fill="#000000" fill-opacity="1"><g transform="translate(62.564298, 30.201898)"><g><path d="M 15.28125 -8.046875 C 15.195312 -8.640625 15.019531 -9.289062 14.75 -10 C 14.476562 -10.71875 14.0625 -11.390625 13.5 -12.015625 C 12.945312 -12.648438 12.210938 -13.1875 11.296875 -13.625 C 10.390625 -14.0625 9.242188 -14.28125 7.859375 -14.28125 C 6.617188 -14.28125 5.535156 -14.066406 4.609375 -13.640625 C 3.691406 -13.210938 2.921875 -12.65625 2.296875 -11.96875 C 1.679688 -11.289062 1.21875 -10.507812 0.90625 -9.625 C 0.601562 -8.75 0.453125 -7.851562 0.453125 -6.9375 C 0.453125 -6.03125 0.601562 -5.132812 0.90625 -4.25 C 1.21875 -3.375 1.679688 -2.59375 2.296875 -1.90625 C 2.921875 -1.21875 3.691406 -0.660156 4.609375 -0.234375 C 5.535156 0.179688 6.617188 0.390625 7.859375 0.390625 C 8.722656 0.390625 9.519531 0.273438 10.25 0.046875 C 10.976562 -0.179688 11.628906 -0.488281 12.203125 -0.875 C 12.773438 -1.269531 13.265625 -1.722656 13.671875 -2.234375 C 14.078125 -2.742188 14.390625 -3.28125 14.609375 -3.84375 C 14.671875 -4 14.703125 -4.140625 14.703125 -4.265625 C 14.703125 -4.484375 14.625 -4.59375 14.46875 -4.59375 C 14.34375 -4.59375 14.242188 -4.546875 14.171875 -4.453125 C 14.109375 -4.367188 14.023438 -4.234375 13.921875 -4.046875 C 13.679688 -3.566406 13.378906 -3.101562 13.015625 -2.65625 C 12.660156 -2.207031 12.234375 -1.804688 11.734375 -1.453125 C 11.234375 -1.109375 10.660156 -0.832031 10.015625 -0.625 C 9.378906 -0.425781 8.660156 -0.328125 7.859375 -0.328125 C 7.523438 -0.328125 7.226562 -0.367188 6.96875 -0.453125 C 6.707031 -0.546875 6.484375 -0.707031 6.296875 -0.9375 C 6.117188 -1.175781 5.976562 -1.507812 5.875 -1.9375 C 5.78125 -2.363281 5.734375 -2.898438 5.734375 -3.546875 L 5.734375 -8.046875 Z M 5.734375 -11.078125 C 5.734375 -12.816406 6.429688 -13.6875 7.828125 -13.6875 C 9.171875 -13.6875 9.84375 -12.816406 9.84375 -11.078125 L 9.84375 -8.671875 L 5.734375 -8.671875 Z M 5.734375 -11.078125 "/></g></g></g><g fill="#000000" fill-opacity="1"><g transform="translate(78.527326, 30.201898)"><g><path d="M 7.4375 -11.96875 L 7.4375 -14.765625 L 0.78125 -13.65625 L 0.78125 -13.109375 L 2.546875 -13.390625 L 2.546875 -0.515625 L 0.78125 -0.515625 L 0.78125 0 L 9.1875 0 L 9.1875 -0.515625 L 7.4375 -0.515625 L 7.4375 -9.9375 C 7.4375 -10.269531 7.507812 -10.640625 7.65625 -11.046875 C 7.8125 -11.460938 8.035156 -11.859375 8.328125 -12.234375 C 8.617188 -12.617188 8.957031 -12.941406 9.34375 -13.203125 C 9.738281 -13.460938 10.1875 -13.59375 10.6875 -13.59375 C 10.445312 -13.4375 10.195312 -13.207031 9.9375 -12.90625 C 9.675781 -12.601562 9.546875 -12.191406 9.546875 -11.671875 C 9.546875 -11.035156 9.75 -10.519531 10.15625 -10.125 C 10.570312 -9.738281 11.140625 -9.546875 11.859375 -9.546875 C 12.429688 -9.546875 12.953125 -9.722656 13.421875 -10.078125 C 13.898438 -10.441406 14.140625 -10.992188 14.140625 -11.734375 C 14.140625 -12.578125 13.867188 -13.210938 13.328125 -13.640625 C 12.785156 -14.066406 12.046875 -14.28125 11.109375 -14.28125 C 10.242188 -14.28125 9.492188 -14.0625 8.859375 -13.625 C 8.234375 -13.1875 7.757812 -12.632812 7.4375 -11.96875 Z M 7.4375 -11.96875 "/></g></g></g><g fill="#000000" fill-opacity="1"><g transform="translate(93.578177, 30.201898)"><g/></g></g><g fill="#000000" fill-opacity="1"><g transform="translate(103.025724, 30.201898)"><g><path d="M 10.171875 -22.203125 L 3.578125 -2.21875 C 3.429688 -1.757812 3.15625 -1.359375 2.75 -1.015625 C 2.351562 -0.679688 1.804688 -0.515625 1.109375 -0.515625 L 1.109375 0 L 6.03125 0 L 6.03125 -0.515625 C 5.632812 -0.515625 5.316406 -0.550781 5.078125 -0.625 C 4.835938 -0.707031 4.648438 -0.804688 4.515625 -0.921875 C 4.390625 -1.046875 4.304688 -1.175781 4.265625 -1.3125 C 4.222656 -1.457031 4.203125 -1.582031 4.203125 -1.6875 C 4.203125 -1.820312 4.207031 -1.9375 4.21875 -2.03125 C 4.226562 -2.132812 4.265625 -2.269531 4.328125 -2.4375 L 5.703125 -6.8125 L 12.25 -6.8125 L 14.34375 -0.515625 L 12.578125 -0.515625 L 12.578125 0 L 21.34375 0 L 21.34375 -0.515625 L 19.59375 -0.515625 L 12.421875 -22.203125 Z M 8.96875 -16.75 L 12.0625 -7.328125 L 5.90625 -7.328125 Z M 8.96875 -16.75 "/></g></g></g><g fill="#000000" fill-opacity="1"><g transform="translate(125.406493, 30.201898)"><g><path d="M 7.53125 -0.515625 L 7.53125 -15.0625 L 0.875 -14.015625 L 0.875 -13.46875 L 2.640625 -13.75 L 2.640625 -0.515625 L 0.875 -0.515625 L 0.875 0 L 9.296875 0 L 9.296875 -0.515625 Z M 7.59375 -18.875 C 7.59375 -19.59375 7.34375 -20.203125 6.84375 -20.703125 C 6.34375 -21.203125 5.734375 -21.453125 5.015625 -21.453125 C 4.296875 -21.453125 3.6875 -21.203125 3.1875 -20.703125 C 2.6875 -20.203125 2.4375 -19.59375 2.4375 -18.875 C 2.4375 -18.15625 2.6875 -17.546875 3.1875 -17.046875 C 3.6875 -16.546875 4.296875 -16.296875 5.015625 -16.296875 C 5.734375 -16.296875 6.34375 -16.546875 6.84375 -17.046875 C 7.34375 -17.546875 7.59375 -18.15625 7.59375 -18.875 Z M 7.59375 -18.875 "/></g></g></g><g fill="#000000" fill-opacity="1"><g transform="translate(135.701048, 30.201898)"><g><path d="M 6.515625 -8.609375 C 6.515625 -9.554688 6.539062 -10.34375 6.59375 -10.96875 C 6.65625 -11.601562 6.75 -12.101562 6.875 -12.46875 C 7.007812 -12.84375 7.175781 -13.109375 7.375 -13.265625 C 7.582031 -13.421875 7.851562 -13.5 8.1875 -13.5 C 8.789062 -13.5 9.316406 -13.28125 9.765625 -12.84375 C 10.210938 -12.40625 10.585938 -11.914062 10.890625 -11.375 L 10.890625 -2.96875 C 10.753906 -2.726562 10.585938 -2.472656 10.390625 -2.203125 C 10.203125 -1.929688 9.988281 -1.675781 9.75 -1.4375 C 9.507812 -1.195312 9.257812 -1 9 -0.84375 C 8.738281 -0.695312 8.46875 -0.625 8.1875 -0.625 C 7.851562 -0.625 7.578125 -0.675781 7.359375 -0.78125 C 7.148438 -0.882812 6.984375 -1.097656 6.859375 -1.421875 C 6.742188 -1.753906 6.65625 -2.226562 6.59375 -2.84375 C 6.539062 -3.46875 6.515625 -4.300781 6.515625 -5.34375 Z M 9.15625 -21.015625 L 10.890625 -21.34375 L 10.890625 -12.515625 C 10.628906 -13.015625 10.210938 -13.425781 9.640625 -13.75 C 9.078125 -14.082031 8.34375 -14.25 7.4375 -14.25 C 6.34375 -14.25 5.390625 -14.039062 4.578125 -13.625 C 3.765625 -13.207031 3.085938 -12.65625 2.546875 -11.96875 C 2.003906 -11.289062 1.59375 -10.515625 1.3125 -9.640625 C 1.039062 -8.773438 0.90625 -7.882812 0.90625 -6.96875 C 0.90625 -6.0625 1.039062 -5.164062 1.3125 -4.28125 C 1.59375 -3.40625 2.003906 -2.625 2.546875 -1.9375 C 3.085938 -1.25 3.765625 -0.695312 4.578125 -0.28125 C 5.390625 0.125 6.34375 0.328125 7.4375 0.328125 C 8.257812 0.328125 8.957031 0.09375 9.53125 -0.375 C 10.101562 -0.84375 10.554688 -1.304688 10.890625 -1.765625 L 10.890625 0 L 17.53125 0 L 17.53125 -0.515625 L 15.78125 -0.515625 L 15.78125 -22.78125 L 9.15625 -21.546875 Z M 9.15625 -21.015625 "/></g></g></g><g clip-path="url(#b276360984)"><g clip-path="url(#bd961faa13)"><g clip-path="url(#4fe55eff88)"><path fill="#5271ff" d="M 173.601562 25.59375 C 173.683594 24.652344 173.757812 23.757812 173.796875 23.253906 C 174.941406 23.085938 176.128906 22.203125 177.171875 20.605469 C 178.011719 19.320312 178.46875 18.027344 178.46875 18.027344 C 178.46875 18.027344 178.390625 17.945312 178.28125 17.859375 C 178.390625 17.496094 178.519531 16.988281 178.671875 16.347656 C 178.71875 16.355469 178.746094 16.371094 178.746094 16.371094 L 179.074219 14.929688 C 179.074219 14.929688 179.050781 14.878906 179.003906 14.820312 C 179.855469 10.445312 179.179688 8.398438 179.085938 7.800781 C 178.988281 7.171875 178.632812 7.003906 178.261719 6.710938 C 177.988281 6.496094 177.046875 6.132812 176.566406 5.953125 C 176.523438 5.851562 176.46875 5.789062 176.46875 5.789062 C 176.46875 5.789062 175.769531 5.503906 174.984375 5.503906 C 174.546875 5.503906 174.308594 6.171875 174.292969 6.382812 C 174.277344 6.589844 174.292969 6.859375 174.628906 6.96875 C 174.964844 7.082031 176.035156 7.074219 176.269531 6.984375 C 176.378906 6.867188 176.453125 6.757812 176.507812 6.652344 C 177.070312 6.859375 178.253906 7.316406 178.410156 7.550781 C 178.585938 7.808594 179.371094 9.722656 178.300781 14.800781 C 178.242188 14.859375 178.179688 14.933594 178.113281 15.023438 L 178.078125 15.019531 C 178.078125 15.019531 178.027344 15.292969 177.898438 15.691406 C 177.289062 17.539062 175.992188 19.082031 173.75 18.546875 C 171.773438 18.074219 170.480469 15.953125 169.800781 14.179688 C 169.640625 13.757812 169.566406 13.488281 169.566406 13.488281 L 169.539062 13.496094 L 169.527344 13.425781 C 169.527344 13.425781 169.492188 13.292969 169.402344 13.199219 C 168.867188 8.898438 169.199219 6.582031 169.992188 6.097656 C 170.859375 5.570312 171.742188 5.839844 171.894531 5.882812 C 171.886719 6.082031 171.910156 6.292969 172.039062 6.347656 C 172.890625 6.726562 173.558594 6.761719 173.558594 6.761719 C 173.558594 6.761719 173.671875 6.855469 173.972656 6.199219 C 174.269531 5.542969 173.851562 5.238281 173.851562 5.238281 C 173.269531 5.070312 172.632812 5.035156 172.351562 5.035156 C 172.179688 5.035156 172.085938 5.144531 172.027344 5.273438 C 172.011719 5.257812 172.003906 5.25 172.003906 5.25 C 172.09375 5.308594 170.621094 4.925781 169.5 5.785156 C 168.597656 6.484375 168.078125 10.355469 169.234375 16.777344 C 169.117188 16.847656 169.035156 16.917969 169.035156 16.917969 C 169.171875 17.941406 169.457031 18.992188 169.820312 19.949219 C 170.515625 21.761719 171.519531 22.835938 172.632812 23.171875 C 172.53125 24.425781 172.222656 28.175781 172.085938 28.859375 C 171.929688 29.644531 171.40625 31.398438 169.347656 32.550781 C 168.339844 33.113281 166.429688 32.679688 165.546875 31.320312 C 165.042969 30.535156 164.742188 29.230469 164.46875 28.328125 C 162.582031 22.125 159.0625 25.378906 157.925781 23.074219 C 157.269531 21.738281 157.761719 19.921875 158.433594 18.855469 C 158.890625 18.132812 160.886719 16.457031 160.929688 16.421875 C 160.929688 16.421875 160.90625 16.316406 160.863281 16.191406 L 160.976562 16.101562 C 161.050781 16.160156 161.125 16.21875 161.210938 16.273438 C 162.265625 16.941406 163.679688 16.605469 164.363281 15.519531 C 165.050781 14.4375 164.75 13.015625 163.691406 12.347656 C 162.632812 11.679688 161.21875 12.015625 160.535156 13.097656 C 160.03125 13.894531 160.0625 14.875 160.535156 15.601562 L 160.457031 15.664062 C 160.320312 15.574219 160.195312 15.515625 160.195312 15.515625 C 159.429688 16.15625 157.953125 17.445312 157.453125 18.234375 C 156.671875 19.472656 155.960938 21.757812 156.875 23.621094 C 157.714844 25.316406 159.425781 25.105469 160.921875 25.480469 C 163.453125 26.117188 163.304688 30.035156 164.566406 31.980469 C 165.714844 33.761719 168.265625 34.496094 169.898438 33.582031 C 173.3125 31.667969 173.316406 28.875 173.601562 25.59375 Z M 173.601562 25.59375 " fill-opacity="1" fill-rule="nonzero"/></g></g></g></svg>