<svg xmlns="http://www.w3.org/2000/svg" xmlns:xlink="http://www.w3.org/1999/xlink" width="320" zoomAndPan="magnify" viewBox="0 0 240 37.5" height="50" preserveAspectRatio="xMidYMid meet" version="1.0"><defs><g/><clipPath id="76926edf99"><path d="M 162.214844 4 L 182 4 L 182 33.601562 L 162.214844 33.601562 Z M 162.214844 4 " clip-rule="nonzero"/></clipPath></defs><g fill="#000000" fill-opacity="1"><g transform="translate(8.213262, 26.402596)"><g><path d="M 12.375 -15.96875 C 12.351562 -16.238281 12.273438 -16.421875 12.140625 -16.515625 C 12.015625 -16.617188 11.828125 -16.671875 11.578125 -16.671875 L 0.84375 -16.671875 L 0.84375 -16.265625 L 2.171875 -16.265625 L 2.171875 -0.390625 L 0.84375 -0.390625 L 0.84375 0 L 7.484375 0 L 7.484375 -0.390625 L 6.140625 -0.390625 L 6.140625 -8.546875 L 7.65625 -8.546875 C 8.28125 -8.546875 8.757812 -8.335938 9.09375 -7.921875 C 9.4375 -7.515625 9.648438 -6.890625 9.734375 -6.046875 C 9.742188 -5.753906 9.820312 -5.609375 9.96875 -5.609375 C 10.132812 -5.609375 10.21875 -5.753906 10.21875 -6.046875 L 10.21875 -11.4375 C 10.21875 -11.726562 10.132812 -11.875 9.96875 -11.875 C 9.820312 -11.875 9.742188 -11.726562 9.734375 -11.4375 C 9.648438 -10.613281 9.4375 -9.988281 9.09375 -9.5625 C 8.757812 -9.144531 8.28125 -8.9375 7.65625 -8.9375 L 6.140625 -8.9375 L 6.140625 -16.265625 L 8.046875 -16.265625 C 8.691406 -16.265625 9.253906 -16.148438 9.734375 -15.921875 C 10.222656 -15.691406 10.632812 -15.390625 10.96875 -15.015625 C 11.3125 -14.648438 11.566406 -14.234375 11.734375 -13.765625 C 11.910156 -13.304688 12.015625 -12.847656 12.046875 -12.390625 C 12.046875 -12.179688 12.128906 -12.078125 12.296875 -12.078125 C 12.460938 -12.078125 12.546875 -12.179688 12.546875 -12.390625 Z M 12.375 -15.96875 "/></g></g></g><g fill="#000000" fill-opacity="1"><g transform="translate(22.311432, 26.402596)"><g><path d="M 5.703125 -0.390625 L 5.703125 -11.40625 L 0.671875 -10.609375 L 0.671875 -10.203125 L 2 -10.421875 L 2 -0.390625 L 0.671875 -0.390625 L 0.671875 0 L 7.03125 0 L 7.03125 -0.390625 Z M 5.75 -14.296875 C 5.75 -14.835938 5.554688 -15.296875 5.171875 -15.671875 C 4.796875 -16.054688 4.335938 -16.25 3.796875 -16.25 C 3.253906 -16.25 2.796875 -16.054688 2.421875 -15.671875 C 2.046875 -15.296875 1.859375 -14.835938 1.859375 -14.296875 C 1.859375 -13.753906 2.046875 -13.289062 2.421875 -12.90625 C 2.796875 -12.53125 3.253906 -12.34375 3.796875 -12.34375 C 4.335938 -12.34375 4.796875 -12.53125 5.171875 -12.90625 C 5.554688 -13.289062 5.75 -13.753906 5.75 -14.296875 Z M 5.75 -14.296875 "/></g></g></g><g fill="#000000" fill-opacity="1"><g transform="translate(30.113594, 26.402596)"><g><path d="M 12.3125 -0.390625 L 12.3125 -7.375 C 12.3125 -8.070312 12.207031 -8.648438 12 -9.109375 C 11.800781 -9.566406 11.53125 -9.925781 11.1875 -10.1875 C 10.851562 -10.457031 10.457031 -10.644531 10 -10.75 C 9.550781 -10.851562 9.082031 -10.90625 8.59375 -10.90625 C 8.164062 -10.90625 7.78125 -10.847656 7.4375 -10.734375 C 7.101562 -10.617188 6.8125 -10.46875 6.5625 -10.28125 C 6.320312 -10.101562 6.109375 -9.890625 5.921875 -9.640625 C 5.742188 -9.398438 5.597656 -9.15625 5.484375 -8.90625 L 5.484375 -11.203125 L 0.375 -10.34375 L 0.375 -9.921875 L 1.703125 -10.140625 L 1.703125 -0.390625 L 0.375 -0.390625 L 0.375 0 L 6.46875 0 L 6.46875 -0.390625 L 5.40625 -0.390625 L 5.40625 -7.1875 C 5.40625 -7.507812 5.472656 -7.847656 5.609375 -8.203125 C 5.753906 -8.554688 5.929688 -8.878906 6.140625 -9.171875 C 6.359375 -9.460938 6.585938 -9.703125 6.828125 -9.890625 C 7.078125 -10.078125 7.316406 -10.171875 7.546875 -10.171875 C 8.015625 -10.171875 8.304688 -9.988281 8.421875 -9.625 C 8.546875 -9.257812 8.609375 -8.703125 8.609375 -7.953125 L 8.609375 -0.390625 L 7.546875 -0.390625 L 7.546875 0 L 13.65625 0 L 13.65625 -0.390625 Z M 12.3125 -0.390625 "/></g></g></g><g fill="#000000" fill-opacity="1"><g transform="translate(44.26115, 26.402596)"><g><path d="M 4.9375 -6.515625 C 4.9375 -7.242188 4.957031 -7.84375 5 -8.3125 C 5.039062 -8.789062 5.109375 -9.171875 5.203125 -9.453125 C 5.304688 -9.734375 5.4375 -9.929688 5.59375 -10.046875 C 5.75 -10.160156 5.953125 -10.21875 6.203125 -10.21875 C 6.660156 -10.21875 7.054688 -10.050781 7.390625 -9.71875 C 7.734375 -9.394531 8.019531 -9.023438 8.25 -8.609375 L 8.25 -2.25 C 8.144531 -2.0625 8.019531 -1.863281 7.875 -1.65625 C 7.726562 -1.457031 7.5625 -1.265625 7.375 -1.078125 C 7.195312 -0.898438 7.007812 -0.753906 6.8125 -0.640625 C 6.613281 -0.523438 6.410156 -0.46875 6.203125 -0.46875 C 5.953125 -0.46875 5.742188 -0.507812 5.578125 -0.59375 C 5.410156 -0.675781 5.28125 -0.835938 5.1875 -1.078125 C 5.101562 -1.328125 5.039062 -1.6875 5 -2.15625 C 4.957031 -2.625 4.9375 -3.253906 4.9375 -4.046875 Z M 6.9375 -15.921875 L 8.25 -16.171875 L 8.25 -9.484375 C 8.050781 -9.859375 7.738281 -10.164062 7.3125 -10.40625 C 6.882812 -10.65625 6.320312 -10.78125 5.625 -10.78125 C 4.800781 -10.78125 4.082031 -10.625 3.46875 -10.3125 C 2.851562 -10 2.335938 -9.582031 1.921875 -9.0625 C 1.515625 -8.550781 1.207031 -7.960938 1 -7.296875 C 0.789062 -6.640625 0.6875 -5.96875 0.6875 -5.28125 C 0.6875 -4.59375 0.789062 -3.914062 1 -3.25 C 1.207031 -2.582031 1.515625 -1.988281 1.921875 -1.46875 C 2.335938 -0.945312 2.851562 -0.53125 3.46875 -0.21875 C 4.082031 0.09375 4.800781 0.25 5.625 0.25 C 6.25 0.25 6.78125 0.0703125 7.21875 -0.28125 C 7.65625 -0.632812 8 -0.984375 8.25 -1.328125 L 8.25 0 L 13.28125 0 L 13.28125 -0.390625 L 11.953125 -0.390625 L 11.953125 -17.25 L 6.9375 -16.3125 Z M 6.9375 -15.921875 "/></g></g></g><g fill="#000000" fill-opacity="1"><g transform="translate(58.309945, 26.402596)"><g/></g></g><g fill="#000000" fill-opacity="1"><g transform="translate(65.470161, 26.402596)"><g><path d="M 5.671875 -10.78125 C 4.585938 -10.78125 3.691406 -10.613281 2.984375 -10.28125 C 2.273438 -9.957031 1.921875 -9.46875 1.921875 -8.8125 C 1.921875 -8.332031 2.054688 -7.988281 2.328125 -7.78125 C 2.597656 -7.582031 2.910156 -7.484375 3.265625 -7.484375 C 3.535156 -7.484375 3.757812 -7.523438 3.9375 -7.609375 C 4.113281 -7.703125 4.25 -7.8125 4.34375 -7.9375 C 4.445312 -8.0625 4.515625 -8.195312 4.546875 -8.34375 C 4.578125 -8.488281 4.59375 -8.613281 4.59375 -8.71875 C 4.59375 -9.125 4.4375 -9.425781 4.125 -9.625 C 4.007812 -9.695312 3.953125 -9.78125 3.953125 -9.875 C 3.953125 -10.007812 4.070312 -10.117188 4.3125 -10.203125 C 4.5625 -10.296875 5.023438 -10.34375 5.703125 -10.34375 C 6.304688 -10.34375 6.695312 -10.175781 6.875 -9.84375 C 7.0625 -9.519531 7.15625 -9.0625 7.15625 -8.46875 L 7.15625 -6.5 L 4.5 -6.5 C 3.820312 -6.5 3.226562 -6.394531 2.71875 -6.1875 C 2.21875 -5.976562 1.800781 -5.707031 1.46875 -5.375 C 1.132812 -5.050781 0.882812 -4.675781 0.71875 -4.25 C 0.550781 -3.832031 0.46875 -3.410156 0.46875 -2.984375 C 0.46875 -2.546875 0.546875 -2.125 0.703125 -1.71875 C 0.859375 -1.3125 1.09375 -0.957031 1.40625 -0.65625 C 1.71875 -0.363281 2.109375 -0.132812 2.578125 0.03125 C 3.046875 0.207031 3.59375 0.296875 4.21875 0.296875 C 4.632812 0.296875 5 0.253906 5.3125 0.171875 C 5.632812 0.0859375 5.921875 -0.015625 6.171875 -0.140625 C 6.421875 -0.273438 6.640625 -0.414062 6.828125 -0.5625 C 7.015625 -0.71875 7.175781 -0.859375 7.3125 -0.984375 C 7.457031 -0.640625 7.75 -0.335938 8.1875 -0.078125 C 8.632812 0.171875 9.28125 0.296875 10.125 0.296875 C 10.71875 0.296875 11.1875 0.226562 11.53125 0.09375 C 11.875 -0.03125 12.140625 -0.179688 12.328125 -0.359375 C 12.515625 -0.546875 12.632812 -0.742188 12.6875 -0.953125 C 12.75 -1.171875 12.78125 -1.375 12.78125 -1.5625 C 12.78125 -1.6875 12.734375 -1.75 12.640625 -1.75 C 12.523438 -1.75 12.457031 -1.675781 12.4375 -1.53125 C 12.394531 -1.28125 12.316406 -1.066406 12.203125 -0.890625 C 12.097656 -0.710938 11.90625 -0.625 11.625 -0.625 C 11.300781 -0.625 11.09375 -0.734375 11 -0.953125 C 10.90625 -1.171875 10.859375 -1.476562 10.859375 -1.875 L 10.859375 -7.0625 C 10.859375 -7.75 10.765625 -8.332031 10.578125 -8.8125 C 10.390625 -9.289062 10.082031 -9.675781 9.65625 -9.96875 C 9.238281 -10.269531 8.703125 -10.476562 8.046875 -10.59375 C 7.398438 -10.71875 6.609375 -10.78125 5.671875 -10.78125 Z M 7.15625 -6.046875 L 7.15625 -1.734375 C 7.15625 -1.578125 7.082031 -1.421875 6.9375 -1.265625 C 6.800781 -1.109375 6.632812 -0.96875 6.4375 -0.84375 C 6.238281 -0.726562 6.039062 -0.628906 5.84375 -0.546875 C 5.65625 -0.460938 5.507812 -0.421875 5.40625 -0.421875 C 5 -0.421875 4.707031 -0.617188 4.53125 -1.015625 C 4.351562 -1.421875 4.265625 -2.085938 4.265625 -3.015625 C 4.265625 -3.921875 4.410156 -4.648438 4.703125 -5.203125 C 4.992188 -5.765625 5.472656 -6.046875 6.140625 -6.046875 Z M 7.15625 -6.046875 "/></g></g></g><g fill="#000000" fill-opacity="1"><g transform="translate(86.160675, 26.402596)"><g><path d="M 7.96875 -16.671875 L 0.796875 -16.671875 L 0.796875 -16.265625 L 2.125 -16.265625 L 2.125 -0.390625 L 0.796875 -0.390625 L 0.796875 0 L 7.96875 0 C 9.125 0 10.128906 -0.238281 10.984375 -0.71875 C 11.835938 -1.195312 12.546875 -1.828125 13.109375 -2.609375 C 13.679688 -3.390625 14.113281 -4.28125 14.40625 -5.28125 C 14.695312 -6.289062 14.84375 -7.3125 14.84375 -8.34375 C 14.84375 -9.382812 14.695312 -10.398438 14.40625 -11.390625 C 14.113281 -12.390625 13.679688 -13.28125 13.109375 -14.0625 C 12.546875 -14.84375 11.835938 -15.472656 10.984375 -15.953125 C 10.128906 -16.429688 9.125 -16.671875 7.96875 -16.671875 Z M 6.09375 -0.390625 L 6.09375 -16.265625 L 7.359375 -16.265625 C 7.804688 -16.265625 8.222656 -16.160156 8.609375 -15.953125 C 8.992188 -15.753906 9.320312 -15.378906 9.59375 -14.828125 C 9.875 -14.285156 10.097656 -13.535156 10.265625 -12.578125 C 10.429688 -11.628906 10.515625 -10.414062 10.515625 -8.9375 L 10.515625 -7.75 C 10.515625 -6.21875 10.429688 -4.972656 10.265625 -4.015625 C 10.097656 -3.066406 9.875 -2.320312 9.59375 -1.78125 C 9.320312 -1.238281 9 -0.867188 8.625 -0.671875 C 8.257812 -0.484375 7.863281 -0.390625 7.4375 -0.390625 Z M 6.09375 -0.390625 "/></g></g></g><g fill="#000000" fill-opacity="1"><g transform="translate(101.814334, 26.402596)"><g><path d="M 0.390625 -5.265625 C 0.390625 -4.566406 0.503906 -3.882812 0.734375 -3.21875 C 0.972656 -2.550781 1.316406 -1.957031 1.765625 -1.4375 C 2.210938 -0.925781 2.785156 -0.507812 3.484375 -0.1875 C 4.191406 0.132812 5.015625 0.296875 5.953125 0.296875 C 6.890625 0.296875 7.707031 0.132812 8.40625 -0.1875 C 9.101562 -0.507812 9.675781 -0.925781 10.125 -1.4375 C 10.582031 -1.957031 10.925781 -2.550781 11.15625 -3.21875 C 11.382812 -3.882812 11.5 -4.566406 11.5 -5.265625 C 11.5 -5.953125 11.382812 -6.628906 11.15625 -7.296875 C 10.925781 -7.960938 10.582031 -8.550781 10.125 -9.0625 C 9.675781 -9.582031 9.101562 -10.003906 8.40625 -10.328125 C 7.707031 -10.648438 6.890625 -10.8125 5.953125 -10.8125 C 5.015625 -10.8125 4.191406 -10.648438 3.484375 -10.328125 C 2.785156 -10.003906 2.210938 -9.582031 1.765625 -9.0625 C 1.316406 -8.550781 0.972656 -7.960938 0.734375 -7.296875 C 0.503906 -6.628906 0.390625 -5.953125 0.390625 -5.265625 Z M 4.21875 -6.171875 C 4.21875 -6.828125 4.234375 -7.414062 4.265625 -7.9375 C 4.304688 -8.46875 4.382812 -8.910156 4.5 -9.265625 C 4.613281 -9.617188 4.785156 -9.890625 5.015625 -10.078125 C 5.242188 -10.273438 5.554688 -10.375 5.953125 -10.375 C 6.347656 -10.375 6.660156 -10.273438 6.890625 -10.078125 C 7.117188 -9.890625 7.289062 -9.617188 7.40625 -9.265625 C 7.519531 -8.910156 7.59375 -8.46875 7.625 -7.9375 C 7.65625 -7.414062 7.671875 -6.828125 7.671875 -6.171875 L 7.671875 -4.25 C 7.671875 -3.570312 7.65625 -2.976562 7.625 -2.46875 C 7.59375 -1.957031 7.519531 -1.53125 7.40625 -1.1875 C 7.289062 -0.84375 7.117188 -0.582031 6.890625 -0.40625 C 6.660156 -0.226562 6.347656 -0.140625 5.953125 -0.140625 C 5.554688 -0.140625 5.242188 -0.226562 5.015625 -0.40625 C 4.785156 -0.582031 4.613281 -0.84375 4.5 -1.1875 C 4.382812 -1.53125 4.304688 -1.957031 4.265625 -2.46875 C 4.234375 -2.976562 4.21875 -3.570312 4.21875 -4.25 Z M 4.21875 -6.171875 "/></g></g></g><g fill="#000000" fill-opacity="1"><g transform="translate(113.961974, 26.402596)"><g><path d="M 6.25 -10.375 C 6.882812 -10.375 7.394531 -10.289062 7.78125 -10.125 C 8.175781 -9.957031 8.375 -9.828125 8.375 -9.734375 C 8.007812 -9.679688 7.695312 -9.519531 7.4375 -9.25 C 7.1875 -8.988281 7.0625 -8.644531 7.0625 -8.21875 C 7.0625 -7.84375 7.195312 -7.515625 7.46875 -7.234375 C 7.738281 -6.953125 8.113281 -6.8125 8.59375 -6.8125 C 9.101562 -6.8125 9.488281 -6.96875 9.75 -7.28125 C 10.007812 -7.59375 10.140625 -7.960938 10.140625 -8.390625 C 10.140625 -8.640625 10.082031 -8.90625 9.96875 -9.1875 C 9.851562 -9.46875 9.644531 -9.726562 9.34375 -9.96875 C 9.039062 -10.21875 8.613281 -10.421875 8.0625 -10.578125 C 7.507812 -10.734375 6.796875 -10.8125 5.921875 -10.8125 C 5.035156 -10.8125 4.242188 -10.648438 3.546875 -10.328125 C 2.859375 -10.003906 2.269531 -9.582031 1.78125 -9.0625 C 1.300781 -8.550781 0.9375 -7.960938 0.6875 -7.296875 C 0.445312 -6.628906 0.328125 -5.953125 0.328125 -5.265625 C 0.328125 -4.566406 0.441406 -3.882812 0.671875 -3.21875 C 0.898438 -2.550781 1.25 -1.957031 1.71875 -1.4375 C 2.1875 -0.925781 2.769531 -0.507812 3.46875 -0.1875 C 4.164062 0.132812 4.984375 0.296875 5.921875 0.296875 C 7.191406 0.296875 8.25 -0.00390625 9.09375 -0.609375 C 9.945312 -1.222656 10.535156 -2.015625 10.859375 -2.984375 C 10.878906 -3.015625 10.890625 -3.066406 10.890625 -3.140625 C 10.890625 -3.316406 10.816406 -3.40625 10.671875 -3.40625 C 10.554688 -3.40625 10.472656 -3.320312 10.421875 -3.15625 C 10.285156 -2.757812 10.085938 -2.390625 9.828125 -2.046875 C 9.566406 -1.703125 9.253906 -1.394531 8.890625 -1.125 C 8.523438 -0.851562 8.125 -0.640625 7.6875 -0.484375 C 7.25 -0.328125 6.800781 -0.25 6.34375 -0.25 C 5.914062 -0.25 5.554688 -0.3125 5.265625 -0.4375 C 4.984375 -0.570312 4.75 -0.796875 4.5625 -1.109375 C 4.382812 -1.421875 4.257812 -1.832031 4.1875 -2.34375 C 4.113281 -2.851562 4.078125 -3.492188 4.078125 -4.265625 L 4.078125 -6.25 C 4.078125 -7 4.113281 -7.632812 4.1875 -8.15625 C 4.257812 -8.675781 4.378906 -9.097656 4.546875 -9.421875 C 4.722656 -9.753906 4.945312 -9.992188 5.21875 -10.140625 C 5.488281 -10.296875 5.832031 -10.375 6.25 -10.375 Z M 6.25 -10.375 "/></g></g></g><g fill="#000000" fill-opacity="1"><g transform="translate(125.22078, 26.402596)"><g><path d="M 5.5625 -14.765625 L 5.203125 -14.765625 C 5.109375 -14.140625 4.941406 -13.59375 4.703125 -13.125 C 4.460938 -12.65625 4.191406 -12.253906 3.890625 -11.921875 C 3.585938 -11.597656 3.257812 -11.328125 2.90625 -11.109375 C 2.550781 -10.890625 2.203125 -10.722656 1.859375 -10.609375 L 0.515625 -10.609375 L 0.515625 -10.21875 L 1.859375 -10.21875 L 1.859375 -4.34375 C 1.859375 -3.4375 1.96875 -2.6875 2.1875 -2.09375 C 2.40625 -1.5 2.707031 -1.023438 3.09375 -0.671875 C 3.476562 -0.316406 3.929688 -0.0664062 4.453125 0.078125 C 4.972656 0.222656 5.519531 0.296875 6.09375 0.296875 C 7.101562 0.296875 7.835938 0.09375 8.296875 -0.3125 C 8.753906 -0.726562 9.050781 -1.289062 9.1875 -2 L 9.1875 -2.078125 C 9.1875 -2.253906 9.113281 -2.34375 8.96875 -2.34375 C 8.914062 -2.34375 8.863281 -2.316406 8.8125 -2.265625 C 8.757812 -2.222656 8.726562 -2.148438 8.71875 -2.046875 C 8.632812 -1.554688 8.445312 -1.171875 8.15625 -0.890625 C 7.875 -0.609375 7.539062 -0.46875 7.15625 -0.46875 C 6.53125 -0.46875 6.109375 -0.738281 5.890625 -1.28125 C 5.671875 -1.820312 5.5625 -2.710938 5.5625 -3.953125 L 5.5625 -10.21875 L 7.40625 -10.21875 L 7.40625 -10.609375 L 5.5625 -10.609375 Z M 5.5625 -14.765625 "/></g></g></g><g fill="#000000" fill-opacity="1"><g transform="translate(134.899409, 26.402596)"><g><path d="M 0.390625 -5.265625 C 0.390625 -4.566406 0.503906 -3.882812 0.734375 -3.21875 C 0.972656 -2.550781 1.316406 -1.957031 1.765625 -1.4375 C 2.210938 -0.925781 2.785156 -0.507812 3.484375 -0.1875 C 4.191406 0.132812 5.015625 0.296875 5.953125 0.296875 C 6.890625 0.296875 7.707031 0.132812 8.40625 -0.1875 C 9.101562 -0.507812 9.675781 -0.925781 10.125 -1.4375 C 10.582031 -1.957031 10.925781 -2.550781 11.15625 -3.21875 C 11.382812 -3.882812 11.5 -4.566406 11.5 -5.265625 C 11.5 -5.953125 11.382812 -6.628906 11.15625 -7.296875 C 10.925781 -7.960938 10.582031 -8.550781 10.125 -9.0625 C 9.675781 -9.582031 9.101562 -10.003906 8.40625 -10.328125 C 7.707031 -10.648438 6.890625 -10.8125 5.953125 -10.8125 C 5.015625 -10.8125 4.191406 -10.648438 3.484375 -10.328125 C 2.785156 -10.003906 2.210938 -9.582031 1.765625 -9.0625 C 1.316406 -8.550781 0.972656 -7.960938 0.734375 -7.296875 C 0.503906 -6.628906 0.390625 -5.953125 0.390625 -5.265625 Z M 4.21875 -6.171875 C 4.21875 -6.828125 4.234375 -7.414062 4.265625 -7.9375 C 4.304688 -8.46875 4.382812 -8.910156 4.5 -9.265625 C 4.613281 -9.617188 4.785156 -9.890625 5.015625 -10.078125 C 5.242188 -10.273438 5.554688 -10.375 5.953125 -10.375 C 6.347656 -10.375 6.660156 -10.273438 6.890625 -10.078125 C 7.117188 -9.890625 7.289062 -9.617188 7.40625 -9.265625 C 7.519531 -8.910156 7.59375 -8.46875 7.625 -7.9375 C 7.65625 -7.414062 7.671875 -6.828125 7.671875 -6.171875 L 7.671875 -4.25 C 7.671875 -3.570312 7.65625 -2.976562 7.625 -2.46875 C 7.59375 -1.957031 7.519531 -1.53125 7.40625 -1.1875 C 7.289062 -0.84375 7.117188 -0.582031 6.890625 -0.40625 C 6.660156 -0.226562 6.347656 -0.140625 5.953125 -0.140625 C 5.554688 -0.140625 5.242188 -0.226562 5.015625 -0.40625 C 4.785156 -0.582031 4.613281 -0.84375 4.5 -1.1875 C 4.382812 -1.53125 4.304688 -1.957031 4.265625 -2.46875 C 4.234375 -2.976562 4.21875 -3.570312 4.21875 -4.25 Z M 4.21875 -6.171875 "/></g></g></g><g fill="#000000" fill-opacity="1"><g transform="translate(147.04706, 26.402596)"><g><path d="M 5.625 -9.0625 L 5.625 -11.1875 L 0.59375 -10.34375 L 0.59375 -9.921875 L 1.921875 -10.140625 L 1.921875 -0.390625 L 0.59375 -0.390625 L 0.59375 0 L 6.96875 0 L 6.96875 -0.390625 L 5.625 -0.390625 L 5.625 -7.53125 C 5.625 -7.78125 5.679688 -8.0625 5.796875 -8.375 C 5.910156 -8.6875 6.078125 -8.984375 6.296875 -9.265625 C 6.523438 -9.554688 6.785156 -9.800781 7.078125 -10 C 7.378906 -10.195312 7.71875 -10.296875 8.09375 -10.296875 C 7.914062 -10.179688 7.726562 -10.007812 7.53125 -9.78125 C 7.332031 -9.550781 7.234375 -9.238281 7.234375 -8.84375 C 7.234375 -8.363281 7.390625 -7.972656 7.703125 -7.671875 C 8.015625 -7.378906 8.441406 -7.234375 8.984375 -7.234375 C 9.410156 -7.234375 9.804688 -7.367188 10.171875 -7.640625 C 10.535156 -7.910156 10.71875 -8.328125 10.71875 -8.890625 C 10.71875 -9.523438 10.507812 -10.003906 10.09375 -10.328125 C 9.6875 -10.648438 9.128906 -10.8125 8.421875 -10.8125 C 7.765625 -10.8125 7.195312 -10.644531 6.71875 -10.3125 C 6.238281 -9.988281 5.875 -9.570312 5.625 -9.0625 Z M 5.625 -9.0625 "/></g></g></g><g clip-path="url(#76926edf99)"><path fill="#5271ff" d="M 179.933594 22.484375 C 179.5 21.644531 179.085938 20.847656 178.851562 20.398438 C 179.726562 19.648438 180.257812 18.269531 180.285156 16.359375 C 180.308594 14.828125 180.003906 13.488281 180.003906 13.488281 C 180.003906 13.488281 179.894531 13.460938 179.757812 13.445312 C 179.65625 13.082031 179.496094 12.582031 179.277344 11.960938 C 179.324219 11.941406 179.355469 11.9375 179.355469 11.9375 L 178.863281 10.546875 C 178.863281 10.546875 178.816406 10.515625 178.742188 10.492188 C 177.125 6.339844 175.460938 4.96875 175.0625 4.511719 C 174.644531 4.03125 174.253906 4.082031 173.785156 4.03125 C 173.441406 3.996094 172.449219 4.191406 171.949219 4.296875 C 171.855469 4.234375 171.777344 4.210938 171.777344 4.210938 C 171.777344 4.210938 171.03125 4.34375 170.367188 4.765625 C 170 4.996094 170.15625 5.691406 170.253906 5.875 C 170.351562 6.058594 170.511719 6.277344 170.851562 6.191406 C 171.195312 6.109375 172.097656 5.527344 172.246094 5.328125 C 172.277344 5.171875 172.28125 5.035156 172.273438 4.917969 C 172.859375 4.792969 174.101562 4.546875 174.359375 4.660156 C 174.648438 4.785156 176.332031 5.984375 178.140625 10.851562 C 178.121094 10.929688 178.109375 11.027344 178.101562 11.136719 L 178.066406 11.152344 C 178.066406 11.152344 178.171875 11.410156 178.273438 11.816406 C 178.75 13.703125 178.472656 15.703125 176.292969 16.449219 C 174.371094 17.105469 172.144531 16.003906 170.625 14.863281 C 170.265625 14.59375 170.054688 14.40625 170.054688 14.40625 L 170.035156 14.425781 L 169.992188 14.375 C 169.992188 14.375 169.890625 14.28125 169.761719 14.25 C 167.015625 10.898438 166.054688 8.761719 166.46875 7.929688 C 166.917969 7.023438 167.808594 6.777344 167.960938 6.730469 C 168.058594 6.90625 168.191406 7.070312 168.328125 7.050781 C 169.253906 6.914062 169.835938 6.585938 169.835938 6.585938 C 169.835938 6.585938 169.984375 6.605469 169.886719 5.890625 C 169.785156 5.175781 169.269531 5.144531 169.269531 5.144531 C 168.6875 5.3125 168.132812 5.621094 167.894531 5.773438 C 167.746094 5.863281 167.726562 6.007812 167.746094 6.148438 C 167.726562 6.144531 167.714844 6.140625 167.714844 6.140625 C 167.824219 6.140625 166.371094 6.605469 165.886719 7.929688 C 165.496094 9.003906 167.125 12.550781 171.53125 17.363281 C 171.472656 17.488281 171.4375 17.589844 171.4375 17.589844 C 172.101562 18.382812 172.902344 19.121094 173.722656 19.730469 C 175.28125 20.894531 176.703125 21.265625 177.820312 20.953125 C 178.40625 22.066406 180.148438 25.402344 180.398438 26.054688 C 180.683594 26.800781 181.179688 28.5625 180.054688 30.636719 C 179.507812 31.652344 177.65625 32.304688 176.183594 31.625 C 175.339844 31.234375 174.390625 30.292969 173.675781 29.675781 C 168.765625 25.4375 167.53125 30.070312 165.335938 28.726562 C 164.070312 27.953125 163.511719 26.152344 163.511719 24.890625 C 163.511719 24.035156 164.304688 21.554688 164.320312 21.5 C 164.320312 21.5 164.242188 21.425781 164.140625 21.34375 L 164.191406 21.203125 C 164.285156 21.214844 164.378906 21.226562 164.480469 21.226562 C 165.730469 21.226562 166.742188 20.1875 166.742188 18.902344 C 166.742188 17.621094 165.730469 16.582031 164.480469 16.582031 C 163.226562 16.582031 162.214844 17.621094 162.214844 18.902344 C 162.214844 19.847656 162.761719 20.65625 163.550781 21.019531 L 163.515625 21.113281 C 163.355469 21.109375 163.21875 21.128906 163.21875 21.128906 C 162.914062 22.074219 162.351562 23.957031 162.351562 24.890625 C 162.351562 26.351562 162.972656 28.667969 164.742188 29.75 C 166.355469 30.738281 167.6875 29.644531 169.15625 29.160156 C 171.636719 28.347656 173.601562 31.738281 175.707031 32.710938 C 177.632812 33.601562 180.179688 32.863281 181.070312 31.214844 C 182.9375 27.773438 181.445312 25.410156 179.933594 22.484375 Z M 179.933594 22.484375 " fill-opacity="1" fill-rule="nonzero"/></g></svg>