<svg xmlns="http://www.w3.org/2000/svg" xmlns:xlink="http://www.w3.org/1999/xlink" width="320" zoomAndPan="magnify" viewBox="0 0 240 37.5" height="50" preserveAspectRatio="xMidYMid meet" version="1.0"><defs><g/><clipPath id="088624ece1"><path d="M 1.578125 22 L 28.964844 22 L 28.964844 36.117188 L 1.578125 36.117188 Z M 1.578125 22 " clip-rule="nonzero"/></clipPath><clipPath id="3e33a17bd7"><path d="M 6 0.589844 L 25 0.589844 L 25 15 L 6 15 Z M 6 0.589844 " clip-rule="nonzero"/></clipPath></defs><path fill="#003884" d="M 7.71875 14.058594 C 7.71875 14.058594 9.191406 21.46875 15.972656 21.285156 C 21.847656 21.128906 23.679688 14.058594 23.679688 14.058594 " fill-opacity="1" fill-rule="nonzero"/><path fill="#ffffff" d="M 22.386719 15.445312 C 21.929688 15.300781 21.097656 14.902344 20.984375 14.261719 C 20.886719 13.703125 20.800781 12.878906 20.925781 12.507812 C 21.246094 11.574219 22.128906 11.527344 22.753906 11.109375 C 23.78125 10.429688 24.339844 10.777344 24.570312 11.683594 C 24.808594 12.621094 23.910156 15.914062 22.386719 15.445312 " fill-opacity="1" fill-rule="nonzero"/><path fill="#003884" d="M 22.386719 15.445312 L 22.429688 15.320312 C 22.210938 15.25 21.898438 15.121094 21.632812 14.933594 C 21.503906 14.839844 21.382812 14.734375 21.292969 14.617188 C 21.203125 14.5 21.140625 14.375 21.117188 14.238281 C 21.054688 13.886719 20.996094 13.425781 20.996094 13.050781 C 20.996094 12.839844 21.015625 12.65625 21.054688 12.550781 C 21.128906 12.335938 21.230469 12.175781 21.355469 12.046875 C 21.539062 11.851562 21.78125 11.726562 22.039062 11.609375 C 22.296875 11.492188 22.578125 11.386719 22.828125 11.21875 C 23.1875 10.980469 23.472656 10.882812 23.6875 10.882812 C 23.785156 10.882812 23.867188 10.902344 23.941406 10.9375 C 24.050781 10.988281 24.148438 11.074219 24.234375 11.207031 C 24.320312 11.335938 24.386719 11.507812 24.441406 11.714844 C 24.460938 11.800781 24.476562 11.917969 24.476562 12.058594 C 24.476562 12.328125 24.429688 12.675781 24.34375 13.042969 C 24.214844 13.59375 23.992188 14.1875 23.699219 14.632812 C 23.554688 14.855469 23.390625 15.039062 23.21875 15.164062 C 23.046875 15.289062 22.871094 15.359375 22.679688 15.359375 C 22.601562 15.359375 22.515625 15.34375 22.425781 15.320312 L 22.429688 15.320312 L 22.386719 15.445312 L 22.347656 15.570312 C 22.460938 15.605469 22.570312 15.621094 22.679688 15.621094 C 22.851562 15.621094 23.015625 15.582031 23.164062 15.507812 C 23.425781 15.378906 23.648438 15.160156 23.84375 14.890625 C 24.132812 14.488281 24.355469 13.976562 24.507812 13.464844 C 24.660156 12.953125 24.742188 12.445312 24.742188 12.058594 C 24.742188 11.902344 24.726562 11.765625 24.699219 11.652344 C 24.621094 11.347656 24.507812 11.097656 24.34375 10.914062 C 24.261719 10.820312 24.164062 10.746094 24.050781 10.695312 C 23.941406 10.644531 23.820312 10.621094 23.6875 10.621094 C 23.394531 10.621094 23.0625 10.746094 22.679688 11 C 22.390625 11.195312 22.015625 11.3125 21.660156 11.5 C 21.484375 11.59375 21.3125 11.707031 21.160156 11.863281 C 21.011719 12.019531 20.886719 12.214844 20.800781 12.46875 C 20.75 12.625 20.730469 12.824219 20.730469 13.050781 C 20.730469 13.449219 20.789062 13.917969 20.851562 14.28125 C 20.886719 14.46875 20.972656 14.632812 21.082031 14.777344 C 21.25 14.992188 21.476562 15.160156 21.707031 15.292969 C 21.933594 15.421875 22.167969 15.515625 22.347656 15.570312 L 22.386719 15.445312 " fill-opacity="1" fill-rule="nonzero"/><path fill="#ffffff" d="M 9.121094 15.445312 C 9.578125 15.300781 10.410156 14.902344 10.523438 14.261719 C 10.621094 13.703125 10.707031 12.878906 10.582031 12.507812 C 10.261719 11.574219 9.382812 11.527344 8.753906 11.109375 C 7.726562 10.429688 7.167969 10.777344 6.9375 11.683594 C 6.699219 12.617188 7.597656 15.914062 9.121094 15.445312 " fill-opacity="1" fill-rule="nonzero"/><path fill="#003884" d="M 9.121094 15.445312 L 9.160156 15.570312 C 9.402344 15.496094 9.734375 15.355469 10.027344 15.148438 C 10.175781 15.042969 10.316406 14.921875 10.425781 14.777344 C 10.539062 14.632812 10.621094 14.46875 10.65625 14.28125 C 10.71875 13.917969 10.777344 13.449219 10.777344 13.050781 C 10.777344 12.824219 10.757812 12.625 10.707031 12.46875 C 10.621094 12.214844 10.496094 12.019531 10.347656 11.863281 C 10.121094 11.628906 9.847656 11.488281 9.578125 11.367188 C 9.308594 11.25 9.046875 11.144531 8.828125 11 C 8.445312 10.746094 8.113281 10.621094 7.820312 10.621094 C 7.6875 10.621094 7.566406 10.644531 7.457031 10.695312 C 7.289062 10.773438 7.15625 10.902344 7.050781 11.0625 C 6.945312 11.226562 6.867188 11.425781 6.808594 11.652344 C 6.78125 11.765625 6.765625 11.902344 6.765625 12.058594 C 6.765625 12.355469 6.816406 12.71875 6.902344 13.101562 C 7.039062 13.675781 7.269531 14.292969 7.582031 14.773438 C 7.742188 15.015625 7.921875 15.222656 8.128906 15.375 C 8.335938 15.527344 8.570312 15.621094 8.828125 15.621094 C 8.9375 15.621094 9.046875 15.605469 9.160156 15.570312 L 9.121094 15.445312 L 9.082031 15.316406 C 8.992188 15.34375 8.90625 15.359375 8.828125 15.359375 C 8.699219 15.359375 8.578125 15.328125 8.460938 15.269531 C 8.253906 15.171875 8.058594 14.984375 7.882812 14.738281 C 7.617188 14.371094 7.402344 13.878906 7.257812 13.390625 C 7.109375 12.898438 7.03125 12.410156 7.03125 12.058594 C 7.03125 11.917969 7.046875 11.800781 7.066406 11.714844 C 7.136719 11.4375 7.238281 11.226562 7.363281 11.089844 C 7.425781 11.019531 7.492188 10.96875 7.566406 10.9375 C 7.640625 10.902344 7.722656 10.882812 7.820312 10.882812 C 8.035156 10.882812 8.320312 10.980469 8.679688 11.21875 C 9.015625 11.441406 9.398438 11.558594 9.71875 11.730469 C 9.882812 11.816406 10.027344 11.917969 10.152344 12.046875 C 10.277344 12.175781 10.378906 12.335938 10.453125 12.550781 C 10.492188 12.65625 10.511719 12.839844 10.511719 13.050781 C 10.511719 13.425781 10.453125 13.886719 10.390625 14.238281 C 10.367188 14.375 10.304688 14.5 10.214844 14.617188 C 10.078125 14.792969 9.878906 14.945312 9.667969 15.0625 C 9.460938 15.179688 9.242188 15.269531 9.082031 15.316406 L 9.121094 15.445312 " fill-opacity="1" fill-rule="nonzero"/><g clip-path="url(#088624ece1)"><path fill="#003884" d="M 4.578125 24.894531 C 6.464844 22.972656 11.109375 22.277344 11.109375 22.277344 L 19.816406 22.277344 C 19.816406 22.277344 24.765625 23.183594 26.582031 24.894531 C 28.320312 26.535156 28.945312 36.121094 28.945312 36.121094 L 1.597656 36.121094 C 1.597656 36.121094 3.433594 26.0625 4.578125 24.894531 " fill-opacity="1" fill-rule="nonzero"/></g><path fill="#ffffff" d="M 18.515625 19.835938 L 12.535156 19.835938 L 11.113281 23.042969 L 15.527344 27.746094 L 19.9375 23.042969 L 18.515625 19.835938 " fill-opacity="1" fill-rule="nonzero"/><path fill="#003884" d="M 18.515625 19.835938 L 18.515625 19.703125 L 12.445312 19.703125 L 10.957031 23.070312 L 15.527344 27.941406 L 20.09375 23.070312 L 18.601562 19.703125 L 18.515625 19.703125 L 18.515625 19.835938 L 18.390625 19.886719 L 19.78125 23.015625 L 15.527344 27.554688 L 11.273438 23.015625 L 12.621094 19.964844 L 18.515625 19.964844 L 18.515625 19.835938 L 18.390625 19.886719 L 18.515625 19.835938 " fill-opacity="1" fill-rule="nonzero"/><path fill="#ffffff" d="M 22.253906 15.773438 C 21.535156 18.695312 17.574219 21.757812 15.421875 21.757812 C 13.527344 21.757812 9.65625 18.476562 9.226562 15.84375 C 8.851562 13.5625 8.539062 10.1875 9.007812 8.679688 C 10.203125 4.855469 12.96875 2.957031 15.894531 2.957031 C 18.710938 2.957031 21.121094 4.835938 22.367188 8.433594 C 22.925781 10.046875 22.824219 13.460938 22.253906 15.773438 " fill-opacity="1" fill-rule="nonzero"/><path fill="#003884" d="M 22.253906 15.773438 L 22.125 15.742188 C 21.949219 16.449219 21.574219 17.175781 21.078125 17.863281 C 20.328125 18.894531 19.300781 19.839844 18.265625 20.527344 C 17.75 20.867188 17.226562 21.144531 16.742188 21.335938 C 16.253906 21.523438 15.800781 21.628906 15.421875 21.628906 C 14.988281 21.628906 14.402344 21.433594 13.78125 21.089844 C 12.84375 20.574219 11.808594 19.738281 10.976562 18.785156 C 10.140625 17.835938 9.511719 16.769531 9.355469 15.820312 C 9.117188 14.367188 8.90625 12.464844 8.90625 10.898438 C 8.902344 10.015625 8.972656 9.238281 9.136719 8.71875 C 9.726562 6.828125 10.703125 5.421875 11.886719 4.488281 C 13.070312 3.550781 14.460938 3.085938 15.894531 3.085938 C 17.273438 3.085938 18.546875 3.546875 19.632812 4.445312 C 20.722656 5.347656 21.625 6.695312 22.242188 8.476562 C 22.484375 9.179688 22.605469 10.269531 22.601562 11.460938 C 22.601562 12.898438 22.433594 14.488281 22.125 15.742188 L 22.382812 15.804688 C 22.699219 14.523438 22.871094 12.921875 22.871094 11.460938 C 22.867188 10.253906 22.753906 9.144531 22.492188 8.390625 C 21.863281 6.574219 20.9375 5.183594 19.804688 4.246094 C 18.671875 3.304688 17.332031 2.824219 15.894531 2.824219 C 14.402344 2.824219 12.949219 3.308594 11.71875 4.28125 C 10.492188 5.253906 9.488281 6.707031 8.882812 8.640625 C 8.707031 9.207031 8.640625 10 8.636719 10.898438 C 8.636719 12.488281 8.855469 14.398438 9.09375 15.863281 C 9.207031 16.546875 9.539062 17.261719 9.996094 17.949219 C 10.6875 18.984375 11.671875 19.960938 12.664062 20.6875 C 13.160156 21.050781 13.660156 21.347656 14.128906 21.558594 C 14.597656 21.769531 15.039062 21.890625 15.421875 21.890625 C 15.992188 21.890625 16.65625 21.691406 17.355469 21.351562 C 18.398438 20.84375 19.515625 20.019531 20.441406 19.039062 C 21.367188 18.0625 22.105469 16.933594 22.382812 15.804688 L 22.253906 15.773438 " fill-opacity="1" fill-rule="nonzero"/><path fill="#003884" d="M 15.984375 13.421875 L 15.753906 17.207031 L 15.273438 16.941406 Z M 15.984375 13.421875 " fill-opacity="1" fill-rule="nonzero"/><path fill="#003884" d="M 19.296875 21.027344 C 19.296875 21.027344 23.425781 20.214844 24.28125 23.5625 C 24.914062 26.023438 22.855469 30.789062 22.855469 30.789062 L 22.015625 30.753906 C 22.015625 30.753906 23.40625 24.996094 22.625 23.570312 C 21.949219 22.332031 19.820312 22.273438 19.820312 22.273438 L 19.296875 21.027344 " fill-opacity="1" fill-rule="nonzero"/><path fill="#003884" d="M 5.007812 26.644531 C 5.007812 26.644531 5.929688 23.832031 6.617188 23.113281 C 7.863281 21.816406 11.921875 20.84375 11.921875 20.84375 L 11.542969 21.722656 C 11.542969 21.722656 8.042969 22.472656 7.921875 23.089844 C 7.804688 23.703125 10.515625 24.238281 10.515625 24.238281 C 10.515625 24.238281 8.933594 24.277344 8.378906 24.152344 C 7.820312 24.023438 7.304688 23.835938 7.117188 23.835938 C 6.929688 23.835938 6.429688 25.148438 6.429688 25.148438 L 5.007812 26.644531 " fill-opacity="1" fill-rule="nonzero"/><path fill="#ffffff" d="M 9.023438 25.136719 C 10.015625 25.136719 11.292969 25.296875 12.019531 26.0625 C 12.980469 27.066406 14.050781 28.925781 14.894531 30.992188 C 15.292969 31.96875 14.117188 32.457031 14.066406 32.476562 L 14.179688 32.890625 C 14.195312 32.882812 14.640625 32.738281 14.941406 32.441406 C 15.363281 32.035156 15.589844 31.457031 15.375 30.9375 C 14.628906 29.101562 13.425781 26.789062 12.355469 25.667969 C 11.519531 24.792969 9.964844 24.824219 8.910156 24.839844 C 8.957031 24.933594 9 25.035156 9.023438 25.136719 " fill-opacity="1" fill-rule="nonzero"/><path fill="#ffffff" d="M 24.109375 32.890625 C 24.109375 33.910156 23.273438 34.738281 22.242188 34.738281 C 21.210938 34.738281 20.378906 33.910156 20.378906 32.890625 C 20.378906 31.871094 21.210938 31.042969 22.242188 31.042969 C 23.273438 31.042969 24.109375 31.871094 24.109375 32.890625 " fill-opacity="1" fill-rule="nonzero"/><path fill="#003884" d="M 23.597656 32.890625 C 23.597656 33.628906 22.988281 34.230469 22.242188 34.230469 C 21.496094 34.230469 20.890625 33.628906 20.890625 32.890625 C 20.890625 32.148438 21.496094 31.550781 22.242188 31.550781 C 22.988281 31.550781 23.597656 32.148438 23.597656 32.890625 " fill-opacity="1" fill-rule="nonzero"/><path fill="#ffffff" d="M 23.039062 32.890625 C 23.039062 33.324219 22.679688 33.675781 22.242188 33.675781 C 21.804688 33.675781 21.449219 33.324219 21.449219 32.890625 C 21.449219 32.453125 21.804688 32.101562 22.242188 32.101562 C 22.679688 32.101562 23.039062 32.453125 23.039062 32.890625 " fill-opacity="1" fill-rule="nonzero"/><path fill="#ffffff" d="M 7.726562 24.59375 L 7.773438 24.582031 C 7.910156 24.558594 11.097656 23.996094 12.5625 25.53125 C 12.886719 25.871094 13.308594 26.484375 13.808594 27.347656 L 12.96875 27.882812 C 12.496094 27.074219 12.015625 26.476562 11.726562 26.171875 C 10.570312 24.960938 8.449219 25.5 8.050781 25.566406 C 7.6875 25.78125 5.460938 26.898438 5.734375 28.566406 C 5.828125 29.128906 5.984375 29.949219 6.171875 30.734375 L 5.195312 30.898438 C 5.003906 30.097656 4.832031 29.28125 4.738281 28.707031 C 4.378906 26.511719 7.546875 24.695312 7.679688 24.617188 L 7.726562 24.59375 " fill-opacity="1" fill-rule="nonzero"/><path fill="#ffffff" d="M 13.539062 32.328125 L 14.601562 32.125 L 14.835938 32.609375 L 14.011719 33.289062 C 14.011719 33.289062 13.835938 33.347656 13.609375 32.886719 C 13.382812 32.429688 13.539062 32.328125 13.539062 32.328125 " fill-opacity="1" fill-rule="nonzero"/><path fill="#ffffff" d="M 7.140625 25.890625 C 6.425781 26.570312 5.621094 27.566406 5.632812 28.617188 C 5.648438 29.996094 6.179688 32.074219 7.023438 34.140625 C 7.421875 35.117188 8.609375 34.660156 8.660156 34.636719 L 8.867188 35.015625 C 8.851562 35.019531 8.429688 35.222656 8.003906 35.21875 C 7.417969 35.210938 6.851562 34.953125 6.636719 34.433594 C 5.890625 32.597656 5.132812 30.105469 5.117188 28.5625 C 5.105469 27.359375 6.242188 26.3125 7.015625 25.597656 C 7.046875 25.699219 7.085938 25.800781 7.140625 25.890625 " fill-opacity="1" fill-rule="nonzero"/><path fill="#ffffff" d="M 8.933594 34.167969 L 8.03125 34.753906 L 8.199219 35.261719 L 9.269531 35.1875 C 9.269531 35.1875 9.4375 35.109375 9.277344 34.621094 C 9.117188 34.132812 8.933594 34.167969 8.933594 34.167969 " fill-opacity="1" fill-rule="nonzero"/><path fill="#ffffff" d="M 5.117188 26.988281 C 5.117188 26.988281 6.304688 24.125 6.992188 23.410156 C 8.238281 22.113281 11.652344 21.285156 11.652344 21.285156 L 11.273438 22.164062 C 11.273438 22.164062 8.148438 22.820312 8.03125 23.433594 C 7.914062 24.050781 10.625 24.582031 10.625 24.582031 C 10.625 24.582031 9.042969 24.621094 8.484375 24.496094 C 7.925781 24.371094 7.414062 24.183594 7.226562 24.183594 C 7.035156 24.183594 6.535156 25.492188 6.535156 25.492188 L 5.117188 26.988281 " fill-opacity="1" fill-rule="nonzero"/><path fill="#ffffff" d="M 19.40625 21.304688 C 19.40625 21.304688 23.039062 21.03125 23.777344 23.195312 C 24.597656 25.601562 22.738281 31.109375 22.738281 31.109375 L 21.898438 31.074219 C 21.898438 31.074219 23.460938 24.835938 22.679688 23.410156 C 22 22.171875 19.816406 22.277344 19.816406 22.277344 L 19.40625 21.304688 " fill-opacity="1" fill-rule="nonzero"/><g clip-path="url(#3e33a17bd7)"><path fill="#003884" d="M 9.925781 14 C 9.621094 11.761719 10.644531 8.34375 10.644531 8.34375 C 10.644531 8.34375 13.089844 10.144531 16.078125 10.144531 C 19.066406 10.144531 19.613281 8.507812 20.863281 9.398438 C 21.851562 10.101562 21.714844 12.023438 21.597656 14.054688 C 22.015625 13.808594 22.238281 13.484375 22.257812 13.128906 C 22.300781 12.441406 22.449219 11.71875 22.734375 11.328125 C 23.578125 10.167969 24.296875 11.257812 24.570312 11.683594 C 24.570312 3.210938 20.863281 0.804688 15.628906 0.664062 C 12.875 0.59375 9.792969 0.871094 8.421875 4.214844 C 6.863281 5.179688 6.753906 8.363281 6.9375 11.683594 C 7.316406 11.007812 8.09375 11.019531 8.53125 11.699219 C 8.964844 12.378906 9.351562 13.667969 9.351562 13.667969 C 9.351562 13.667969 9.65625 13.992188 9.925781 14 " fill-opacity="1" fill-rule="nonzero"/></g><g fill="#000000" fill-opacity="1"><g transform="translate(36.289776, 27.25559)"><g><path d="M 13.9375 -14.9375 C 13.9375 -15.25 13.789062 -15.40625 13.5 -15.40625 L 3.59375 -15.40625 L 3.5 -15.03125 L 5.484375 -15.03125 L 1.421875 -0.359375 L -0.5 -0.359375 L -0.59375 0 L 5.484375 0 L 5.5625 -0.359375 L 3.625 -0.359375 L 5.703125 -7.9375 L 7.359375 -7.9375 C 7.628906 -7.9375 7.835938 -7.878906 7.984375 -7.765625 C 8.128906 -7.648438 8.234375 -7.488281 8.296875 -7.28125 C 8.367188 -7.082031 8.410156 -6.847656 8.421875 -6.578125 C 8.441406 -6.316406 8.453125 -6.035156 8.453125 -5.734375 C 8.453125 -5.410156 8.515625 -5.25 8.640625 -5.25 C 8.734375 -5.25 8.816406 -5.367188 8.890625 -5.609375 L 10.125 -10.25 C 10.15625 -10.34375 10.171875 -10.410156 10.171875 -10.453125 C 10.171875 -10.492188 10.171875 -10.53125 10.171875 -10.5625 C 10.171875 -10.695312 10.128906 -10.765625 10.046875 -10.765625 C 9.929688 -10.765625 9.835938 -10.648438 9.765625 -10.421875 C 9.640625 -10.179688 9.507812 -9.9375 9.375 -9.6875 C 9.25 -9.4375 9.09375 -9.207031 8.90625 -9 C 8.726562 -8.789062 8.523438 -8.617188 8.296875 -8.484375 C 8.066406 -8.359375 7.789062 -8.296875 7.46875 -8.296875 L 5.828125 -8.296875 L 7.671875 -15.03125 L 10.5625 -15.03125 C 11.019531 -15.03125 11.398438 -14.9375 11.703125 -14.75 C 12.003906 -14.5625 12.238281 -14.320312 12.40625 -14.03125 C 12.582031 -13.738281 12.703125 -13.421875 12.765625 -13.078125 C 12.828125 -12.734375 12.859375 -12.414062 12.859375 -12.125 C 12.859375 -12 12.851562 -11.878906 12.84375 -11.765625 C 12.84375 -11.648438 12.832031 -11.546875 12.8125 -11.453125 L 12.8125 -11.375 C 12.8125 -11.21875 12.859375 -11.140625 12.953125 -11.140625 C 13.078125 -11.140625 13.144531 -11.21875 13.15625 -11.375 L 13.90625 -14.765625 C 13.925781 -14.804688 13.9375 -14.863281 13.9375 -14.9375 Z M 13.9375 -14.9375 "/></g></g></g><g fill="#000000" fill-opacity="1"><g transform="translate(48.43627, 27.25559)"><g><path d="M 6.28125 -13.3125 C 6.28125 -13.601562 6.1875 -13.859375 6 -14.078125 C 5.820312 -14.304688 5.539062 -14.421875 5.15625 -14.421875 C 4.726562 -14.421875 4.40625 -14.285156 4.1875 -14.015625 C 3.976562 -13.742188 3.875 -13.457031 3.875 -13.15625 C 3.875 -12.863281 3.960938 -12.609375 4.140625 -12.390625 C 4.328125 -12.171875 4.613281 -12.0625 5 -12.0625 C 5.425781 -12.0625 5.742188 -12.191406 5.953125 -12.453125 C 6.171875 -12.722656 6.28125 -13.007812 6.28125 -13.3125 Z M 1.265625 -8.625 L 2.984375 -8.625 L 1.3125 -2.5625 C 1.21875 -2.226562 1.148438 -1.9375 1.109375 -1.6875 C 1.066406 -1.4375 1.046875 -1.210938 1.046875 -1.015625 C 1.046875 -0.734375 1.082031 -0.507812 1.15625 -0.34375 C 1.238281 -0.175781 1.335938 -0.0507812 1.453125 0.03125 C 1.566406 0.113281 1.695312 0.171875 1.84375 0.203125 C 2 0.234375 2.15625 0.25 2.3125 0.25 C 2.675781 0.25 3 0.171875 3.28125 0.015625 C 3.570312 -0.128906 3.84375 -0.335938 4.09375 -0.609375 C 4.34375 -0.890625 4.585938 -1.222656 4.828125 -1.609375 C 5.066406 -2.003906 5.3125 -2.4375 5.5625 -2.90625 C 5.59375 -3 5.609375 -3.046875 5.609375 -3.046875 C 5.609375 -3.140625 5.570312 -3.1875 5.5 -3.1875 C 5.425781 -3.1875 5.363281 -3.148438 5.3125 -3.078125 C 4.425781 -1.546875 3.765625 -0.78125 3.328125 -0.78125 C 3.109375 -0.78125 3 -0.941406 3 -1.265625 C 3 -1.472656 3.046875 -1.738281 3.140625 -2.0625 L 5.0625 -8.984375 L 1.359375 -8.984375 Z M 1.265625 -8.625 "/></g></g></g><g fill="#000000" fill-opacity="1"><g transform="translate(54.830368, 27.25559)"><g><path d="M 11.421875 -3.28125 C 11.335938 -3.28125 11.265625 -3.226562 11.203125 -3.125 C 10.734375 -2.195312 10.3125 -1.523438 9.9375 -1.109375 C 9.5625 -0.691406 9.257812 -0.484375 9.03125 -0.484375 C 8.789062 -0.484375 8.671875 -0.671875 8.671875 -1.046875 C 8.671875 -1.171875 8.679688 -1.320312 8.703125 -1.5 C 8.734375 -1.6875 8.804688 -1.972656 8.921875 -2.359375 L 9.8125 -5.5625 C 9.945312 -6.082031 10.03125 -6.460938 10.0625 -6.703125 C 10.101562 -6.941406 10.125 -7.144531 10.125 -7.3125 C 10.125 -8.007812 9.925781 -8.503906 9.53125 -8.796875 C 9.132812 -9.085938 8.609375 -9.234375 7.953125 -9.234375 C 7.460938 -9.234375 7.039062 -9.171875 6.6875 -9.046875 C 6.34375 -8.929688 6.039062 -8.785156 5.78125 -8.609375 C 5.519531 -8.429688 5.300781 -8.238281 5.125 -8.03125 C 4.957031 -7.820312 4.816406 -7.632812 4.703125 -7.46875 L 5.109375 -8.984375 L 1.65625 -8.984375 L 1.578125 -8.625 L 3.046875 -8.625 L 0.6875 0 L 2.640625 0 L 4.1875 -5.609375 C 4.300781 -5.984375 4.472656 -6.359375 4.703125 -6.734375 C 4.929688 -7.109375 5.1875 -7.441406 5.46875 -7.734375 C 5.757812 -8.035156 6.054688 -8.28125 6.359375 -8.46875 C 6.671875 -8.65625 6.957031 -8.75 7.21875 -8.75 C 7.476562 -8.75 7.707031 -8.648438 7.90625 -8.453125 C 8.101562 -8.253906 8.203125 -7.957031 8.203125 -7.5625 C 8.203125 -7.351562 8.171875 -7.101562 8.109375 -6.8125 C 8.046875 -6.53125 7.957031 -6.15625 7.84375 -5.6875 L 7.109375 -3 C 6.984375 -2.53125 6.898438 -2.179688 6.859375 -1.953125 C 6.828125 -1.734375 6.8125 -1.539062 6.8125 -1.375 C 6.8125 -0.8125 6.953125 -0.394531 7.234375 -0.125 C 7.515625 0.144531 7.898438 0.28125 8.390625 0.28125 C 8.773438 0.28125 9.109375 0.203125 9.390625 0.046875 C 9.671875 -0.109375 9.925781 -0.328125 10.15625 -0.609375 C 10.394531 -0.890625 10.625 -1.222656 10.84375 -1.609375 C 11.070312 -2.003906 11.304688 -2.4375 11.546875 -2.90625 C 11.578125 -3 11.59375 -3.054688 11.59375 -3.078125 C 11.59375 -3.210938 11.535156 -3.28125 11.421875 -3.28125 Z M 11.421875 -3.28125 "/></g></g></g><g fill="#000000" fill-opacity="1"><g transform="translate(66.839355, 27.25559)"><g><path d="M 9.859375 -15.40625 L 3.421875 -15.40625 L 3.328125 -15.03125 L 5.296875 -15.03125 L 1.234375 -0.359375 L -0.703125 -0.359375 L -0.78125 0 L 6.140625 0 C 7.347656 0 8.5 -0.25 9.59375 -0.75 C 10.695312 -1.257812 11.664062 -1.945312 12.5 -2.8125 C 13.332031 -3.675781 14 -4.691406 14.5 -5.859375 C 15 -7.023438 15.25 -8.273438 15.25 -9.609375 C 15.25 -10.523438 15.097656 -11.34375 14.796875 -12.0625 C 14.492188 -12.789062 14.09375 -13.398438 13.59375 -13.890625 C 13.101562 -14.378906 12.53125 -14.753906 11.875 -15.015625 C 11.226562 -15.273438 10.554688 -15.40625 9.859375 -15.40625 Z M 13.046875 -11.640625 C 13.046875 -11.285156 13.003906 -10.867188 12.921875 -10.390625 C 12.847656 -9.910156 12.75 -9.414062 12.625 -8.90625 C 12.507812 -8.394531 12.378906 -7.878906 12.234375 -7.359375 C 12.097656 -6.847656 11.976562 -6.40625 11.875 -6.03125 C 11.613281 -5.113281 11.273438 -4.296875 10.859375 -3.578125 C 10.453125 -2.867188 9.992188 -2.273438 9.484375 -1.796875 C 8.984375 -1.328125 8.445312 -0.96875 7.875 -0.71875 C 7.3125 -0.476562 6.757812 -0.359375 6.21875 -0.359375 L 3.4375 -0.359375 L 7.5 -15.03125 L 9.671875 -15.03125 C 10.171875 -15.03125 10.628906 -14.945312 11.046875 -14.78125 C 11.460938 -14.613281 11.816406 -14.378906 12.109375 -14.078125 C 12.410156 -13.785156 12.640625 -13.429688 12.796875 -13.015625 C 12.960938 -12.609375 13.046875 -12.148438 13.046875 -11.640625 Z M 13.046875 -11.640625 "/></g></g></g><g fill="#000000" fill-opacity="1"><g transform="translate(82.469372, 27.25559)"><g><path d="M 11.484375 -8.984375 L 9.421875 -8.984375 L 8.921875 -7.25 C 8.765625 -7.875 8.457031 -8.359375 8 -8.703125 C 7.550781 -9.054688 6.96875 -9.234375 6.25 -9.234375 C 5.613281 -9.234375 4.976562 -9.082031 4.34375 -8.78125 C 3.707031 -8.476562 3.140625 -8.070312 2.640625 -7.5625 C 2.148438 -7.0625 1.75 -6.484375 1.4375 -5.828125 C 1.132812 -5.171875 0.984375 -4.488281 0.984375 -3.78125 C 0.984375 -3.289062 1.054688 -2.804688 1.203125 -2.328125 C 1.359375 -1.847656 1.582031 -1.414062 1.875 -1.03125 C 2.164062 -0.644531 2.519531 -0.332031 2.9375 -0.09375 C 3.363281 0.132812 3.84375 0.25 4.375 0.25 C 4.726562 0.25 5.066406 0.195312 5.390625 0.09375 C 5.710938 -0.0078125 6 -0.140625 6.25 -0.296875 C 6.507812 -0.460938 6.738281 -0.640625 6.9375 -0.828125 C 7.144531 -1.023438 7.304688 -1.207031 7.421875 -1.375 C 7.421875 -0.84375 7.523438 -0.4375 7.734375 -0.15625 C 7.953125 0.113281 8.332031 0.25 8.875 0.25 C 9.332031 0.25 9.734375 0.171875 10.078125 0.015625 C 10.421875 -0.128906 10.734375 -0.335938 11.015625 -0.609375 C 11.296875 -0.878906 11.550781 -1.195312 11.78125 -1.5625 C 12.007812 -1.925781 12.234375 -2.316406 12.453125 -2.734375 C 12.484375 -2.773438 12.503906 -2.8125 12.515625 -2.84375 C 12.523438 -2.882812 12.53125 -2.929688 12.53125 -2.984375 C 12.53125 -3.085938 12.476562 -3.140625 12.375 -3.140625 C 12.28125 -3.140625 12.207031 -3.078125 12.15625 -2.953125 C 11.6875 -2.023438 11.242188 -1.367188 10.828125 -0.984375 C 10.410156 -0.597656 10.0625 -0.40625 9.78125 -0.40625 C 9.644531 -0.40625 9.535156 -0.441406 9.453125 -0.515625 C 9.367188 -0.585938 9.328125 -0.710938 9.328125 -0.890625 C 9.328125 -1.078125 9.359375 -1.257812 9.421875 -1.4375 Z M 8.53125 -5.78125 L 7.75 -3.15625 C 7.625 -2.757812 7.492188 -2.394531 7.359375 -2.0625 C 7.234375 -1.738281 7.050781 -1.457031 6.8125 -1.21875 C 6.5 -0.90625 6.125 -0.640625 5.6875 -0.421875 C 5.257812 -0.210938 4.867188 -0.109375 4.515625 -0.109375 C 4.046875 -0.109375 3.707031 -0.269531 3.5 -0.59375 C 3.289062 -0.914062 3.1875 -1.421875 3.1875 -2.109375 C 3.1875 -2.628906 3.242188 -3.179688 3.359375 -3.765625 C 3.472656 -4.359375 3.617188 -4.925781 3.796875 -5.46875 C 3.984375 -6.019531 4.179688 -6.523438 4.390625 -6.984375 C 4.609375 -7.441406 4.8125 -7.796875 5 -8.046875 C 5.207031 -8.316406 5.453125 -8.519531 5.734375 -8.65625 C 6.023438 -8.800781 6.304688 -8.875 6.578125 -8.875 C 6.835938 -8.875 7.085938 -8.8125 7.328125 -8.6875 C 7.578125 -8.5625 7.796875 -8.390625 7.984375 -8.171875 C 8.179688 -7.953125 8.335938 -7.695312 8.453125 -7.40625 C 8.566406 -7.113281 8.625 -6.804688 8.625 -6.484375 C 8.625 -6.191406 8.59375 -5.957031 8.53125 -5.78125 Z M 8.53125 -5.78125 "/></g></g></g><g fill="#000000" fill-opacity="1"><g transform="translate(95.395075, 27.25559)"><g/></g></g><g fill="#000000" fill-opacity="1"><g transform="translate(101.537076, 27.25559)"><g><path d="M 9.859375 -15.40625 L 3.421875 -15.40625 L 3.328125 -15.03125 L 5.296875 -15.03125 L 1.234375 -0.359375 L -0.703125 -0.359375 L -0.78125 0 L 6.140625 0 C 7.347656 0 8.5 -0.25 9.59375 -0.75 C 10.695312 -1.257812 11.664062 -1.945312 12.5 -2.8125 C 13.332031 -3.675781 14 -4.691406 14.5 -5.859375 C 15 -7.023438 15.25 -8.273438 15.25 -9.609375 C 15.25 -10.523438 15.097656 -11.34375 14.796875 -12.0625 C 14.492188 -12.789062 14.09375 -13.398438 13.59375 -13.890625 C 13.101562 -14.378906 12.53125 -14.753906 11.875 -15.015625 C 11.226562 -15.273438 10.554688 -15.40625 9.859375 -15.40625 Z M 13.046875 -11.640625 C 13.046875 -11.285156 13.003906 -10.867188 12.921875 -10.390625 C 12.847656 -9.910156 12.75 -9.414062 12.625 -8.90625 C 12.507812 -8.394531 12.378906 -7.878906 12.234375 -7.359375 C 12.097656 -6.847656 11.976562 -6.40625 11.875 -6.03125 C 11.613281 -5.113281 11.273438 -4.296875 10.859375 -3.578125 C 10.453125 -2.867188 9.992188 -2.273438 9.484375 -1.796875 C 8.984375 -1.328125 8.445312 -0.96875 7.875 -0.71875 C 7.3125 -0.476562 6.757812 -0.359375 6.21875 -0.359375 L 3.4375 -0.359375 L 7.5 -15.03125 L 9.671875 -15.03125 C 10.171875 -15.03125 10.628906 -14.945312 11.046875 -14.78125 C 11.460938 -14.613281 11.816406 -14.378906 12.109375 -14.078125 C 12.410156 -13.785156 12.640625 -13.429688 12.796875 -13.015625 C 12.960938 -12.609375 13.046875 -12.148438 13.046875 -11.640625 Z M 13.046875 -11.640625 "/></g></g></g><g fill="#000000" fill-opacity="1"><g transform="translate(117.167093, 27.25559)"><g><path d="M 4.171875 0.25 C 4.847656 0.25 5.515625 0.113281 6.171875 -0.15625 C 6.835938 -0.4375 7.4375 -0.832031 7.96875 -1.34375 C 8.507812 -1.851562 8.941406 -2.46875 9.265625 -3.1875 C 9.597656 -3.914062 9.765625 -4.722656 9.765625 -5.609375 C 9.765625 -6.753906 9.4375 -7.644531 8.78125 -8.28125 C 8.132812 -8.914062 7.285156 -9.234375 6.234375 -9.234375 C 5.453125 -9.234375 4.722656 -9.066406 4.046875 -8.734375 C 3.378906 -8.410156 2.796875 -7.972656 2.296875 -7.421875 C 1.804688 -6.867188 1.414062 -6.242188 1.125 -5.546875 C 0.84375 -4.847656 0.703125 -4.125 0.703125 -3.375 C 0.703125 -2.75 0.800781 -2.207031 1 -1.75 C 1.207031 -1.300781 1.472656 -0.925781 1.796875 -0.625 C 2.128906 -0.332031 2.5 -0.113281 2.90625 0.03125 C 3.320312 0.175781 3.742188 0.25 4.171875 0.25 Z M 3.546875 -6.34375 C 3.660156 -6.6875 3.78125 -7.007812 3.90625 -7.3125 C 4.039062 -7.613281 4.207031 -7.878906 4.40625 -8.109375 C 4.613281 -8.335938 4.863281 -8.519531 5.15625 -8.65625 C 5.445312 -8.800781 5.800781 -8.875 6.21875 -8.875 C 6.875 -8.875 7.332031 -8.722656 7.59375 -8.421875 C 7.851562 -8.128906 7.984375 -7.753906 7.984375 -7.296875 C 7.984375 -7.085938 7.941406 -6.789062 7.859375 -6.40625 C 7.785156 -6.03125 7.691406 -5.617188 7.578125 -5.171875 C 7.460938 -4.734375 7.332031 -4.285156 7.1875 -3.828125 C 7.050781 -3.367188 6.929688 -2.960938 6.828125 -2.609375 C 6.597656 -1.859375 6.285156 -1.253906 5.890625 -0.796875 C 5.503906 -0.335938 4.9375 -0.109375 4.1875 -0.109375 C 3.59375 -0.109375 3.15625 -0.238281 2.875 -0.5 C 2.601562 -0.757812 2.46875 -1.148438 2.46875 -1.671875 C 2.46875 -1.890625 2.503906 -2.195312 2.578125 -2.59375 C 2.660156 -3 2.757812 -3.429688 2.875 -3.890625 C 2.988281 -4.347656 3.109375 -4.796875 3.234375 -5.234375 C 3.359375 -5.671875 3.460938 -6.039062 3.546875 -6.34375 Z M 3.546875 -6.34375 "/></g></g></g><g fill="#000000" fill-opacity="1"><g transform="translate(127.617661, 27.25559)"><g><path d="M 2.859375 -1.921875 C 2.859375 -2.335938 2.957031 -2.914062 3.15625 -3.65625 C 3.363281 -4.394531 3.601562 -5.222656 3.875 -6.140625 C 4.03125 -6.671875 4.203125 -7.113281 4.390625 -7.46875 C 4.578125 -7.820312 4.785156 -8.101562 5.015625 -8.3125 C 5.242188 -8.519531 5.5 -8.664062 5.78125 -8.75 C 6.070312 -8.832031 6.398438 -8.875 6.765625 -8.875 C 7.035156 -8.875 7.265625 -8.84375 7.453125 -8.78125 C 7.648438 -8.726562 7.804688 -8.664062 7.921875 -8.59375 C 8.035156 -8.519531 8.117188 -8.441406 8.171875 -8.359375 C 8.222656 -8.285156 8.25 -8.226562 8.25 -8.1875 C 8.25 -8.132812 8.210938 -8.085938 8.140625 -8.046875 C 7.984375 -7.953125 7.859375 -7.820312 7.765625 -7.65625 C 7.679688 -7.488281 7.640625 -7.3125 7.640625 -7.125 C 7.640625 -6.820312 7.742188 -6.59375 7.953125 -6.4375 C 8.171875 -6.289062 8.410156 -6.21875 8.671875 -6.21875 C 8.941406 -6.21875 9.1875 -6.300781 9.40625 -6.46875 C 9.625 -6.644531 9.734375 -6.910156 9.734375 -7.265625 C 9.734375 -7.554688 9.640625 -7.820312 9.453125 -8.0625 C 9.265625 -8.3125 9.019531 -8.523438 8.71875 -8.703125 C 8.425781 -8.878906 8.097656 -9.007812 7.734375 -9.09375 C 7.378906 -9.1875 7.03125 -9.234375 6.6875 -9.234375 C 6.082031 -9.234375 5.429688 -9.109375 4.734375 -8.859375 C 4.035156 -8.609375 3.394531 -8.238281 2.8125 -7.75 C 2.238281 -7.257812 1.753906 -6.660156 1.359375 -5.953125 C 0.972656 -5.253906 0.78125 -4.460938 0.78125 -3.578125 C 0.78125 -3.023438 0.875 -2.515625 1.0625 -2.046875 C 1.257812 -1.585938 1.523438 -1.1875 1.859375 -0.84375 C 2.191406 -0.5 2.59375 -0.226562 3.0625 -0.03125 C 3.539062 0.15625 4.054688 0.25 4.609375 0.25 C 5.691406 0.25 6.582031 -0.00390625 7.28125 -0.515625 C 7.988281 -1.023438 8.523438 -1.671875 8.890625 -2.453125 C 8.921875 -2.546875 8.9375 -2.597656 8.9375 -2.609375 C 8.9375 -2.722656 8.890625 -2.78125 8.796875 -2.78125 C 8.710938 -2.78125 8.628906 -2.707031 8.546875 -2.5625 C 8.109375 -1.738281 7.546875 -1.125 6.859375 -0.71875 C 6.179688 -0.3125 5.453125 -0.109375 4.671875 -0.109375 C 4.328125 -0.109375 4.039062 -0.160156 3.8125 -0.265625 C 3.582031 -0.378906 3.394531 -0.523438 3.25 -0.703125 C 3.113281 -0.878906 3.015625 -1.070312 2.953125 -1.28125 C 2.890625 -1.5 2.859375 -1.710938 2.859375 -1.921875 Z M 2.859375 -1.921875 "/></g></g></g><g fill="#000000" fill-opacity="1"><g transform="translate(137.609872, 27.25559)"><g><path d="M 4.84375 -8.984375 L 5.828125 -12.578125 L 3.71875 -12.109375 L 2.859375 -8.984375 L 1.28125 -8.984375 L 1.171875 -8.625 L 2.75 -8.625 L 1.078125 -2.609375 C 0.984375 -2.253906 0.9375 -1.941406 0.9375 -1.671875 C 0.9375 -1.078125 1.113281 -0.609375 1.46875 -0.265625 C 1.820312 0.078125 2.316406 0.25 2.953125 0.25 C 3.773438 0.25 4.453125 0.046875 4.984375 -0.359375 C 5.515625 -0.765625 5.914062 -1.265625 6.1875 -1.859375 C 6.207031 -1.890625 6.21875 -1.9375 6.21875 -2 C 6.21875 -2.113281 6.171875 -2.171875 6.078125 -2.171875 C 5.960938 -2.171875 5.878906 -2.101562 5.828125 -1.96875 C 5.566406 -1.476562 5.25 -1.097656 4.875 -0.828125 C 4.507812 -0.566406 4.164062 -0.4375 3.84375 -0.4375 C 3.1875 -0.4375 2.859375 -0.796875 2.859375 -1.515625 C 2.859375 -1.753906 2.90625 -2.0625 3 -2.4375 L 4.71875 -8.625 L 6.6875 -8.625 L 6.8125 -8.984375 Z M 4.84375 -8.984375 "/></g></g></g><g fill="#000000" fill-opacity="1"><g transform="translate(144.187313, 27.25559)"><g><path d="M 4.171875 0.25 C 4.847656 0.25 5.515625 0.113281 6.171875 -0.15625 C 6.835938 -0.4375 7.4375 -0.832031 7.96875 -1.34375 C 8.507812 -1.851562 8.941406 -2.46875 9.265625 -3.1875 C 9.597656 -3.914062 9.765625 -4.722656 9.765625 -5.609375 C 9.765625 -6.753906 9.4375 -7.644531 8.78125 -8.28125 C 8.132812 -8.914062 7.285156 -9.234375 6.234375 -9.234375 C 5.453125 -9.234375 4.722656 -9.066406 4.046875 -8.734375 C 3.378906 -8.410156 2.796875 -7.972656 2.296875 -7.421875 C 1.804688 -6.867188 1.414062 -6.242188 1.125 -5.546875 C 0.84375 -4.847656 0.703125 -4.125 0.703125 -3.375 C 0.703125 -2.75 0.800781 -2.207031 1 -1.75 C 1.207031 -1.300781 1.472656 -0.925781 1.796875 -0.625 C 2.128906 -0.332031 2.5 -0.113281 2.90625 0.03125 C 3.320312 0.175781 3.742188 0.25 4.171875 0.25 Z M 3.546875 -6.34375 C 3.660156 -6.6875 3.78125 -7.007812 3.90625 -7.3125 C 4.039062 -7.613281 4.207031 -7.878906 4.40625 -8.109375 C 4.613281 -8.335938 4.863281 -8.519531 5.15625 -8.65625 C 5.445312 -8.800781 5.800781 -8.875 6.21875 -8.875 C 6.875 -8.875 7.332031 -8.722656 7.59375 -8.421875 C 7.851562 -8.128906 7.984375 -7.753906 7.984375 -7.296875 C 7.984375 -7.085938 7.941406 -6.789062 7.859375 -6.40625 C 7.785156 -6.03125 7.691406 -5.617188 7.578125 -5.171875 C 7.460938 -4.734375 7.332031 -4.285156 7.1875 -3.828125 C 7.050781 -3.367188 6.929688 -2.960938 6.828125 -2.609375 C 6.597656 -1.859375 6.285156 -1.253906 5.890625 -0.796875 C 5.503906 -0.335938 4.9375 -0.109375 4.1875 -0.109375 C 3.59375 -0.109375 3.15625 -0.238281 2.875 -0.5 C 2.601562 -0.757812 2.46875 -1.148438 2.46875 -1.671875 C 2.46875 -1.890625 2.503906 -2.195312 2.578125 -2.59375 C 2.660156 -3 2.757812 -3.429688 2.875 -3.890625 C 2.988281 -4.347656 3.109375 -4.796875 3.234375 -5.234375 C 3.359375 -5.671875 3.460938 -6.039062 3.546875 -6.34375 Z M 3.546875 -6.34375 "/></g></g></g><g fill="#000000" fill-opacity="1"><g transform="translate(154.637881, 27.25559)"><g><path d="M 4.359375 -7.71875 L 4.703125 -8.984375 L 1.421875 -8.984375 L 1.328125 -8.59375 L 2.609375 -8.59375 L 0.25 0 L 2.203125 0 L 3.9375 -6.21875 C 4 -6.457031 4.132812 -6.726562 4.34375 -7.03125 C 4.5625 -7.34375 4.8125 -7.628906 5.09375 -7.890625 C 5.382812 -8.160156 5.691406 -8.382812 6.015625 -8.5625 C 6.347656 -8.75 6.664062 -8.84375 6.96875 -8.84375 L 7.125 -8.84375 C 6.988281 -8.769531 6.84375 -8.628906 6.6875 -8.421875 C 6.539062 -8.210938 6.46875 -7.972656 6.46875 -7.703125 C 6.46875 -7.335938 6.585938 -7.035156 6.828125 -6.796875 C 7.078125 -6.554688 7.398438 -6.4375 7.796875 -6.4375 C 8.066406 -6.4375 8.34375 -6.53125 8.625 -6.71875 C 8.90625 -6.914062 9.046875 -7.25 9.046875 -7.71875 C 9.046875 -8.007812 8.992188 -8.25 8.890625 -8.4375 C 8.785156 -8.632812 8.648438 -8.789062 8.484375 -8.90625 C 8.316406 -9.019531 8.117188 -9.101562 7.890625 -9.15625 C 7.671875 -9.207031 7.445312 -9.234375 7.21875 -9.234375 C 6.832031 -9.234375 6.492188 -9.1875 6.203125 -9.09375 C 5.921875 -9.007812 5.664062 -8.894531 5.4375 -8.75 C 5.207031 -8.601562 5.003906 -8.4375 4.828125 -8.25 C 4.660156 -8.070312 4.503906 -7.894531 4.359375 -7.71875 Z M 4.359375 -7.71875 "/></g></g></g></svg>