<svg xmlns="http://www.w3.org/2000/svg" xmlns:xlink="http://www.w3.org/1999/xlink" width="320" zoomAndPan="magnify" viewBox="0 0 240 37.5" height="50" preserveAspectRatio="xMidYMid meet" version="1.0"><defs><g/><clipPath id="4dfab88668"><path d="M 156 5 L 180 5 L 180 34 L 156 34 Z M 156 5 " clip-rule="nonzero"/></clipPath><clipPath id="07bc578140"><path d="M 168.5 0.5 L 186.019531 11.570312 L 170.199219 36.597656 L 152.683594 25.523438 Z M 168.5 0.5 " clip-rule="nonzero"/></clipPath><clipPath id="4a15bbcd57"><path d="M 168.5 0.5 L 186.019531 11.570312 L 170.199219 36.597656 L 152.683594 25.523438 Z M 168.5 0.5 " clip-rule="nonzero"/></clipPath></defs><g fill="#000000" fill-opacity="1"><g transform="translate(1.279906, 26.402596)"><g><path d="M 9.875 -5.609375 C 10.039062 -5.609375 10.125 -5.753906 10.125 -6.046875 L 10.125 -11.4375 C 10.125 -11.726562 10.039062 -11.875 9.875 -11.875 C 9.726562 -11.875 9.644531 -11.726562 9.625 -11.4375 C 9.539062 -10.613281 9.332031 -9.988281 9 -9.5625 C 8.664062 -9.144531 8.179688 -8.9375 7.546875 -8.9375 L 6.046875 -8.9375 L 6.046875 -16.265625 L 7.953125 -16.265625 C 8.585938 -16.265625 9.148438 -16.148438 9.640625 -15.921875 C 10.128906 -15.691406 10.539062 -15.390625 10.875 -15.015625 C 11.207031 -14.648438 11.460938 -14.234375 11.640625 -13.765625 C 11.816406 -13.304688 11.921875 -12.847656 11.953125 -12.390625 C 11.953125 -12.179688 12.035156 -12.078125 12.203125 -12.078125 C 12.359375 -12.078125 12.4375 -12.179688 12.4375 -12.390625 L 12.25 -15.96875 C 12.226562 -16.238281 12.148438 -16.421875 12.015625 -16.515625 C 11.890625 -16.617188 11.703125 -16.671875 11.453125 -16.671875 L 0.734375 -16.671875 L 0.734375 -16.265625 L 2.078125 -16.265625 L 2.078125 -0.390625 L 0.734375 -0.390625 L 0.734375 0 L 12.46875 0 C 12.726562 0 12.90625 -0.0625 13 -0.1875 C 13.09375 -0.320312 13.140625 -0.503906 13.140625 -0.734375 L 13.140625 -4.796875 C 13.140625 -5.054688 13.054688 -5.1875 12.890625 -5.1875 C 12.722656 -5.1875 12.613281 -5.054688 12.5625 -4.796875 C 12.4375 -4.179688 12.296875 -3.601562 12.140625 -3.0625 C 11.992188 -2.53125 11.769531 -2.066406 11.46875 -1.671875 C 11.175781 -1.285156 10.785156 -0.972656 10.296875 -0.734375 C 9.816406 -0.503906 9.179688 -0.390625 8.390625 -0.390625 L 6.046875 -0.390625 L 6.046875 -8.546875 L 7.546875 -8.546875 C 8.179688 -8.546875 8.664062 -8.335938 9 -7.921875 C 9.332031 -7.515625 9.539062 -6.890625 9.625 -6.046875 C 9.644531 -5.753906 9.726562 -5.609375 9.875 -5.609375 Z M 9.875 -5.609375 "/></g></g></g><g fill="#000000" fill-opacity="1"><g transform="translate(15.526224, 26.402596)"><g><path d="M 1.28125 -10.21875 L 4.640625 -4.421875 L 1.859375 -1.1875 C 1.609375 -0.875 1.367188 -0.660156 1.140625 -0.546875 C 0.921875 -0.441406 0.671875 -0.390625 0.390625 -0.390625 L 0.390625 0 L 3.109375 0 L 3.109375 -0.390625 C 2.765625 -0.390625 2.519531 -0.425781 2.375 -0.5 C 2.238281 -0.582031 2.171875 -0.6875 2.171875 -0.8125 C 2.171875 -0.894531 2.1875 -0.960938 2.21875 -1.015625 C 2.25 -1.066406 2.300781 -1.128906 2.375 -1.203125 L 4.859375 -4.078125 L 6.984375 -0.390625 L 6.046875 -0.390625 L 6.046875 0 L 11.671875 0 L 11.671875 -0.390625 L 10.734375 -0.390625 L 7.203125 -6.5 L 9.484375 -9.1875 C 9.796875 -9.550781 10.050781 -9.8125 10.25 -9.96875 C 10.457031 -10.132812 10.753906 -10.21875 11.140625 -10.21875 L 11.140625 -10.609375 L 8.25 -10.609375 L 8.25 -10.21875 C 8.625 -10.21875 8.875 -10.160156 9 -10.046875 C 9.125 -9.929688 9.1875 -9.800781 9.1875 -9.65625 C 9.1875 -9.46875 9.128906 -9.3125 9.015625 -9.1875 L 7.03125 -6.796875 L 5.015625 -10.21875 L 5.953125 -10.21875 L 5.953125 -10.609375 L 0.34375 -10.609375 L 0.34375 -10.21875 Z M 1.28125 -10.21875 "/></g></g></g><g fill="#000000" fill-opacity="1"><g transform="translate(27.673869, 26.402596)"><g><path d="M 0.6875 6.25 L 0.6875 6.640625 L 7.0625 6.640625 L 7.0625 6.25 L 5.734375 6.25 L 5.734375 -1.0625 C 5.992188 -0.644531 6.3125 -0.3125 6.6875 -0.0625 C 7.070312 0.175781 7.632812 0.296875 8.375 0.296875 C 9.175781 0.296875 9.878906 0.132812 10.484375 -0.1875 C 11.097656 -0.507812 11.601562 -0.925781 12 -1.4375 C 12.40625 -1.957031 12.710938 -2.550781 12.921875 -3.21875 C 13.128906 -3.882812 13.234375 -4.566406 13.234375 -5.265625 C 13.234375 -5.953125 13.128906 -6.628906 12.921875 -7.296875 C 12.710938 -7.960938 12.40625 -8.550781 12 -9.0625 C 11.601562 -9.582031 11.097656 -10.003906 10.484375 -10.328125 C 9.878906 -10.648438 9.175781 -10.8125 8.375 -10.8125 C 7.664062 -10.8125 7.101562 -10.648438 6.6875 -10.328125 C 6.28125 -10.003906 5.960938 -9.628906 5.734375 -9.203125 L 5.734375 -11.1875 L 0.6875 -10.34375 L 0.6875 -9.921875 L 2.03125 -10.140625 L 2.03125 6.25 Z M 9.0625 -4.265625 C 9.0625 -3.484375 9.035156 -2.835938 8.984375 -2.328125 C 8.929688 -1.816406 8.851562 -1.414062 8.75 -1.125 C 8.65625 -0.832031 8.523438 -0.628906 8.359375 -0.515625 C 8.203125 -0.398438 8.015625 -0.34375 7.796875 -0.34375 C 7.515625 -0.34375 7.25 -0.414062 7 -0.5625 C 6.757812 -0.71875 6.546875 -0.90625 6.359375 -1.125 C 6.171875 -1.34375 6.019531 -1.570312 5.90625 -1.8125 C 5.789062 -2.050781 5.734375 -2.269531 5.734375 -2.46875 L 5.734375 -7.609375 C 5.734375 -7.867188 5.789062 -8.140625 5.90625 -8.421875 C 6.03125 -8.710938 6.191406 -8.984375 6.390625 -9.234375 C 6.585938 -9.484375 6.8125 -9.6875 7.0625 -9.84375 C 7.3125 -10 7.554688 -10.078125 7.796875 -10.078125 C 7.992188 -10.078125 8.171875 -10.035156 8.328125 -9.953125 C 8.484375 -9.867188 8.613281 -9.691406 8.71875 -9.421875 C 8.832031 -9.160156 8.914062 -8.78125 8.96875 -8.28125 C 9.03125 -7.78125 9.0625 -7.101562 9.0625 -6.25 Z M 9.0625 -4.265625 "/></g></g></g><g fill="#000000" fill-opacity="1"><g transform="translate(41.722664, 26.402596)"><g><path d="M 11.578125 -6.09375 C 11.515625 -6.539062 11.378906 -7.035156 11.171875 -7.578125 C 10.960938 -8.117188 10.648438 -8.628906 10.234375 -9.109375 C 9.816406 -9.585938 9.257812 -9.988281 8.5625 -10.3125 C 7.875 -10.644531 7.003906 -10.8125 5.953125 -10.8125 C 5.015625 -10.8125 4.191406 -10.648438 3.484375 -10.328125 C 2.785156 -10.003906 2.203125 -9.582031 1.734375 -9.0625 C 1.265625 -8.550781 0.914062 -7.960938 0.6875 -7.296875 C 0.457031 -6.628906 0.34375 -5.953125 0.34375 -5.265625 C 0.34375 -4.566406 0.457031 -3.882812 0.6875 -3.21875 C 0.914062 -2.550781 1.265625 -1.957031 1.734375 -1.4375 C 2.203125 -0.925781 2.785156 -0.507812 3.484375 -0.1875 C 4.191406 0.132812 5.015625 0.296875 5.953125 0.296875 C 6.609375 0.296875 7.210938 0.207031 7.765625 0.03125 C 8.316406 -0.132812 8.8125 -0.363281 9.25 -0.65625 C 9.6875 -0.957031 10.054688 -1.300781 10.359375 -1.6875 C 10.660156 -2.070312 10.894531 -2.476562 11.0625 -2.90625 C 11.113281 -3.03125 11.140625 -3.140625 11.140625 -3.234375 C 11.140625 -3.398438 11.082031 -3.484375 10.96875 -3.484375 C 10.863281 -3.484375 10.785156 -3.445312 10.734375 -3.375 C 10.691406 -3.3125 10.628906 -3.207031 10.546875 -3.0625 C 10.359375 -2.695312 10.128906 -2.34375 9.859375 -2 C 9.585938 -1.664062 9.257812 -1.367188 8.875 -1.109375 C 8.5 -0.847656 8.066406 -0.640625 7.578125 -0.484375 C 7.097656 -0.328125 6.554688 -0.25 5.953125 -0.25 C 5.703125 -0.25 5.476562 -0.28125 5.28125 -0.34375 C 5.082031 -0.40625 4.910156 -0.523438 4.765625 -0.703125 C 4.628906 -0.890625 4.523438 -1.144531 4.453125 -1.46875 C 4.378906 -1.789062 4.34375 -2.195312 4.34375 -2.6875 L 4.34375 -6.09375 Z M 4.34375 -8.390625 C 4.34375 -9.710938 4.867188 -10.375 5.921875 -10.375 C 6.941406 -10.375 7.453125 -9.710938 7.453125 -8.390625 L 7.453125 -6.5625 L 4.34375 -6.5625 Z M 4.34375 -8.390625 "/></g></g></g><g fill="#000000" fill-opacity="1"><g transform="translate(53.820933, 26.402596)"><g><path d="M 5.625 -9.0625 L 5.625 -11.1875 L 0.59375 -10.34375 L 0.59375 -9.921875 L 1.921875 -10.140625 L 1.921875 -0.390625 L 0.59375 -0.390625 L 0.59375 0 L 6.96875 0 L 6.96875 -0.390625 L 5.625 -0.390625 L 5.625 -7.53125 C 5.625 -7.78125 5.679688 -8.0625 5.796875 -8.375 C 5.910156 -8.6875 6.078125 -8.984375 6.296875 -9.265625 C 6.523438 -9.554688 6.785156 -9.800781 7.078125 -10 C 7.378906 -10.195312 7.71875 -10.296875 8.09375 -10.296875 C 7.914062 -10.179688 7.726562 -10.007812 7.53125 -9.78125 C 7.332031 -9.550781 7.234375 -9.238281 7.234375 -8.84375 C 7.234375 -8.363281 7.390625 -7.972656 7.703125 -7.671875 C 8.015625 -7.378906 8.441406 -7.234375 8.984375 -7.234375 C 9.410156 -7.234375 9.804688 -7.367188 10.171875 -7.640625 C 10.535156 -7.910156 10.71875 -8.328125 10.71875 -8.890625 C 10.71875 -9.523438 10.507812 -10.003906 10.09375 -10.328125 C 9.6875 -10.648438 9.128906 -10.8125 8.421875 -10.8125 C 7.765625 -10.8125 7.195312 -10.644531 6.71875 -10.3125 C 6.238281 -9.988281 5.875 -9.570312 5.625 -9.0625 Z M 5.625 -9.0625 "/></g></g></g><g fill="#000000" fill-opacity="1"><g transform="translate(65.227871, 26.402596)"><g><path d="M 5.5625 -14.765625 L 5.203125 -14.765625 C 5.109375 -14.140625 4.941406 -13.59375 4.703125 -13.125 C 4.460938 -12.65625 4.191406 -12.253906 3.890625 -11.921875 C 3.585938 -11.597656 3.257812 -11.328125 2.90625 -11.109375 C 2.550781 -10.890625 2.203125 -10.722656 1.859375 -10.609375 L 0.515625 -10.609375 L 0.515625 -10.21875 L 1.859375 -10.21875 L 1.859375 -4.34375 C 1.859375 -3.4375 1.96875 -2.6875 2.1875 -2.09375 C 2.40625 -1.5 2.707031 -1.023438 3.09375 -0.671875 C 3.476562 -0.316406 3.929688 -0.0664062 4.453125 0.078125 C 4.972656 0.222656 5.519531 0.296875 6.09375 0.296875 C 7.101562 0.296875 7.835938 0.09375 8.296875 -0.3125 C 8.753906 -0.726562 9.050781 -1.289062 9.1875 -2 L 9.1875 -2.078125 C 9.1875 -2.253906 9.113281 -2.34375 8.96875 -2.34375 C 8.914062 -2.34375 8.863281 -2.316406 8.8125 -2.265625 C 8.757812 -2.222656 8.726562 -2.148438 8.71875 -2.046875 C 8.632812 -1.554688 8.445312 -1.171875 8.15625 -0.890625 C 7.875 -0.609375 7.539062 -0.46875 7.15625 -0.46875 C 6.53125 -0.46875 6.109375 -0.738281 5.890625 -1.28125 C 5.671875 -1.820312 5.5625 -2.710938 5.5625 -3.953125 L 5.5625 -10.21875 L 7.40625 -10.21875 L 7.40625 -10.609375 L 5.5625 -10.609375 Z M 5.5625 -14.765625 "/></g></g></g><g fill="#000000" fill-opacity="1"><g transform="translate(74.906495, 26.402596)"><g/></g></g><g fill="#000000" fill-opacity="1"><g transform="translate(82.066711, 26.402596)"><g><path d="M 7.96875 -16.671875 L 0.796875 -16.671875 L 0.796875 -16.265625 L 2.125 -16.265625 L 2.125 -0.390625 L 0.796875 -0.390625 L 0.796875 0 L 7.96875 0 C 9.125 0 10.128906 -0.238281 10.984375 -0.71875 C 11.835938 -1.195312 12.546875 -1.828125 13.109375 -2.609375 C 13.679688 -3.390625 14.113281 -4.28125 14.40625 -5.28125 C 14.695312 -6.289062 14.84375 -7.3125 14.84375 -8.34375 C 14.84375 -9.382812 14.695312 -10.398438 14.40625 -11.390625 C 14.113281 -12.390625 13.679688 -13.28125 13.109375 -14.0625 C 12.546875 -14.84375 11.835938 -15.472656 10.984375 -15.953125 C 10.128906 -16.429688 9.125 -16.671875 7.96875 -16.671875 Z M 6.09375 -0.390625 L 6.09375 -16.265625 L 7.359375 -16.265625 C 7.804688 -16.265625 8.222656 -16.160156 8.609375 -15.953125 C 8.992188 -15.753906 9.320312 -15.378906 9.59375 -14.828125 C 9.875 -14.285156 10.097656 -13.535156 10.265625 -12.578125 C 10.429688 -11.628906 10.515625 -10.414062 10.515625 -8.9375 L 10.515625 -7.75 C 10.515625 -6.21875 10.429688 -4.972656 10.265625 -4.015625 C 10.097656 -3.066406 9.875 -2.320312 9.59375 -1.78125 C 9.320312 -1.238281 9 -0.867188 8.625 -0.671875 C 8.257812 -0.484375 7.863281 -0.390625 7.4375 -0.390625 Z M 6.09375 -0.390625 "/></g></g></g><g fill="#000000" fill-opacity="1"><g transform="translate(97.72037, 26.402596)"><g><path d="M 0.390625 -5.265625 C 0.390625 -4.566406 0.503906 -3.882812 0.734375 -3.21875 C 0.972656 -2.550781 1.316406 -1.957031 1.765625 -1.4375 C 2.210938 -0.925781 2.785156 -0.507812 3.484375 -0.1875 C 4.191406 0.132812 5.015625 0.296875 5.953125 0.296875 C 6.890625 0.296875 7.707031 0.132812 8.40625 -0.1875 C 9.101562 -0.507812 9.675781 -0.925781 10.125 -1.4375 C 10.582031 -1.957031 10.925781 -2.550781 11.15625 -3.21875 C 11.382812 -3.882812 11.5 -4.566406 11.5 -5.265625 C 11.5 -5.953125 11.382812 -6.628906 11.15625 -7.296875 C 10.925781 -7.960938 10.582031 -8.550781 10.125 -9.0625 C 9.675781 -9.582031 9.101562 -10.003906 8.40625 -10.328125 C 7.707031 -10.648438 6.890625 -10.8125 5.953125 -10.8125 C 5.015625 -10.8125 4.191406 -10.648438 3.484375 -10.328125 C 2.785156 -10.003906 2.210938 -9.582031 1.765625 -9.0625 C 1.316406 -8.550781 0.972656 -7.960938 0.734375 -7.296875 C 0.503906 -6.628906 0.390625 -5.953125 0.390625 -5.265625 Z M 4.21875 -6.171875 C 4.21875 -6.828125 4.234375 -7.414062 4.265625 -7.9375 C 4.304688 -8.46875 4.382812 -8.910156 4.5 -9.265625 C 4.613281 -9.617188 4.785156 -9.890625 5.015625 -10.078125 C 5.242188 -10.273438 5.554688 -10.375 5.953125 -10.375 C 6.347656 -10.375 6.660156 -10.273438 6.890625 -10.078125 C 7.117188 -9.890625 7.289062 -9.617188 7.40625 -9.265625 C 7.519531 -8.910156 7.59375 -8.46875 7.625 -7.9375 C 7.65625 -7.414062 7.671875 -6.828125 7.671875 -6.171875 L 7.671875 -4.25 C 7.671875 -3.570312 7.65625 -2.976562 7.625 -2.46875 C 7.59375 -1.957031 7.519531 -1.53125 7.40625 -1.1875 C 7.289062 -0.84375 7.117188 -0.582031 6.890625 -0.40625 C 6.660156 -0.226562 6.347656 -0.140625 5.953125 -0.140625 C 5.554688 -0.140625 5.242188 -0.226562 5.015625 -0.40625 C 4.785156 -0.582031 4.613281 -0.84375 4.5 -1.1875 C 4.382812 -1.53125 4.304688 -1.957031 4.265625 -2.46875 C 4.234375 -2.976562 4.21875 -3.570312 4.21875 -4.25 Z M 4.21875 -6.171875 "/></g></g></g><g fill="#000000" fill-opacity="1"><g transform="translate(109.868009, 26.402596)"><g><path d="M 6.25 -10.375 C 6.882812 -10.375 7.394531 -10.289062 7.78125 -10.125 C 8.175781 -9.957031 8.375 -9.828125 8.375 -9.734375 C 8.007812 -9.679688 7.695312 -9.519531 7.4375 -9.25 C 7.1875 -8.988281 7.0625 -8.644531 7.0625 -8.21875 C 7.0625 -7.84375 7.195312 -7.515625 7.46875 -7.234375 C 7.738281 -6.953125 8.113281 -6.8125 8.59375 -6.8125 C 9.101562 -6.8125 9.488281 -6.96875 9.75 -7.28125 C 10.007812 -7.59375 10.140625 -7.960938 10.140625 -8.390625 C 10.140625 -8.640625 10.082031 -8.90625 9.96875 -9.1875 C 9.851562 -9.46875 9.644531 -9.726562 9.34375 -9.96875 C 9.039062 -10.21875 8.613281 -10.421875 8.0625 -10.578125 C 7.507812 -10.734375 6.796875 -10.8125 5.921875 -10.8125 C 5.035156 -10.8125 4.242188 -10.648438 3.546875 -10.328125 C 2.859375 -10.003906 2.269531 -9.582031 1.78125 -9.0625 C 1.300781 -8.550781 0.9375 -7.960938 0.6875 -7.296875 C 0.445312 -6.628906 0.328125 -5.953125 0.328125 -5.265625 C 0.328125 -4.566406 0.441406 -3.882812 0.671875 -3.21875 C 0.898438 -2.550781 1.25 -1.957031 1.71875 -1.4375 C 2.1875 -0.925781 2.769531 -0.507812 3.46875 -0.1875 C 4.164062 0.132812 4.984375 0.296875 5.921875 0.296875 C 7.191406 0.296875 8.25 -0.00390625 9.09375 -0.609375 C 9.945312 -1.222656 10.535156 -2.015625 10.859375 -2.984375 C 10.878906 -3.015625 10.890625 -3.066406 10.890625 -3.140625 C 10.890625 -3.316406 10.816406 -3.40625 10.671875 -3.40625 C 10.554688 -3.40625 10.472656 -3.320312 10.421875 -3.15625 C 10.285156 -2.757812 10.085938 -2.390625 9.828125 -2.046875 C 9.566406 -1.703125 9.253906 -1.394531 8.890625 -1.125 C 8.523438 -0.851562 8.125 -0.640625 7.6875 -0.484375 C 7.25 -0.328125 6.800781 -0.25 6.34375 -0.25 C 5.914062 -0.25 5.554688 -0.3125 5.265625 -0.4375 C 4.984375 -0.570312 4.75 -0.796875 4.5625 -1.109375 C 4.382812 -1.421875 4.257812 -1.832031 4.1875 -2.34375 C 4.113281 -2.851562 4.078125 -3.492188 4.078125 -4.265625 L 4.078125 -6.25 C 4.078125 -7 4.113281 -7.632812 4.1875 -8.15625 C 4.257812 -8.675781 4.378906 -9.097656 4.546875 -9.421875 C 4.722656 -9.753906 4.945312 -9.992188 5.21875 -10.140625 C 5.488281 -10.296875 5.832031 -10.375 6.25 -10.375 Z M 6.25 -10.375 "/></g></g></g><g fill="#000000" fill-opacity="1"><g transform="translate(121.126816, 26.402596)"><g><path d="M 5.5625 -14.765625 L 5.203125 -14.765625 C 5.109375 -14.140625 4.941406 -13.59375 4.703125 -13.125 C 4.460938 -12.65625 4.191406 -12.253906 3.890625 -11.921875 C 3.585938 -11.597656 3.257812 -11.328125 2.90625 -11.109375 C 2.550781 -10.890625 2.203125 -10.722656 1.859375 -10.609375 L 0.515625 -10.609375 L 0.515625 -10.21875 L 1.859375 -10.21875 L 1.859375 -4.34375 C 1.859375 -3.4375 1.96875 -2.6875 2.1875 -2.09375 C 2.40625 -1.5 2.707031 -1.023438 3.09375 -0.671875 C 3.476562 -0.316406 3.929688 -0.0664062 4.453125 0.078125 C 4.972656 0.222656 5.519531 0.296875 6.09375 0.296875 C 7.101562 0.296875 7.835938 0.09375 8.296875 -0.3125 C 8.753906 -0.726562 9.050781 -1.289062 9.1875 -2 L 9.1875 -2.078125 C 9.1875 -2.253906 9.113281 -2.34375 8.96875 -2.34375 C 8.914062 -2.34375 8.863281 -2.316406 8.8125 -2.265625 C 8.757812 -2.222656 8.726562 -2.148438 8.71875 -2.046875 C 8.632812 -1.554688 8.445312 -1.171875 8.15625 -0.890625 C 7.875 -0.609375 7.539062 -0.46875 7.15625 -0.46875 C 6.53125 -0.46875 6.109375 -0.738281 5.890625 -1.28125 C 5.671875 -1.820312 5.5625 -2.710938 5.5625 -3.953125 L 5.5625 -10.21875 L 7.40625 -10.21875 L 7.40625 -10.609375 L 5.5625 -10.609375 Z M 5.5625 -14.765625 "/></g></g></g><g fill="#000000" fill-opacity="1"><g transform="translate(130.805445, 26.402596)"><g><path d="M 0.390625 -5.265625 C 0.390625 -4.566406 0.503906 -3.882812 0.734375 -3.21875 C 0.972656 -2.550781 1.316406 -1.957031 1.765625 -1.4375 C 2.210938 -0.925781 2.785156 -0.507812 3.484375 -0.1875 C 4.191406 0.132812 5.015625 0.296875 5.953125 0.296875 C 6.890625 0.296875 7.707031 0.132812 8.40625 -0.1875 C 9.101562 -0.507812 9.675781 -0.925781 10.125 -1.4375 C 10.582031 -1.957031 10.925781 -2.550781 11.15625 -3.21875 C 11.382812 -3.882812 11.5 -4.566406 11.5 -5.265625 C 11.5 -5.953125 11.382812 -6.628906 11.15625 -7.296875 C 10.925781 -7.960938 10.582031 -8.550781 10.125 -9.0625 C 9.675781 -9.582031 9.101562 -10.003906 8.40625 -10.328125 C 7.707031 -10.648438 6.890625 -10.8125 5.953125 -10.8125 C 5.015625 -10.8125 4.191406 -10.648438 3.484375 -10.328125 C 2.785156 -10.003906 2.210938 -9.582031 1.765625 -9.0625 C 1.316406 -8.550781 0.972656 -7.960938 0.734375 -7.296875 C 0.503906 -6.628906 0.390625 -5.953125 0.390625 -5.265625 Z M 4.21875 -6.171875 C 4.21875 -6.828125 4.234375 -7.414062 4.265625 -7.9375 C 4.304688 -8.46875 4.382812 -8.910156 4.5 -9.265625 C 4.613281 -9.617188 4.785156 -9.890625 5.015625 -10.078125 C 5.242188 -10.273438 5.554688 -10.375 5.953125 -10.375 C 6.347656 -10.375 6.660156 -10.273438 6.890625 -10.078125 C 7.117188 -9.890625 7.289062 -9.617188 7.40625 -9.265625 C 7.519531 -8.910156 7.59375 -8.46875 7.625 -7.9375 C 7.65625 -7.414062 7.671875 -6.828125 7.671875 -6.171875 L 7.671875 -4.25 C 7.671875 -3.570312 7.65625 -2.976562 7.625 -2.46875 C 7.59375 -1.957031 7.519531 -1.53125 7.40625 -1.1875 C 7.289062 -0.84375 7.117188 -0.582031 6.890625 -0.40625 C 6.660156 -0.226562 6.347656 -0.140625 5.953125 -0.140625 C 5.554688 -0.140625 5.242188 -0.226562 5.015625 -0.40625 C 4.785156 -0.582031 4.613281 -0.84375 4.5 -1.1875 C 4.382812 -1.53125 4.304688 -1.957031 4.265625 -2.46875 C 4.234375 -2.976562 4.21875 -3.570312 4.21875 -4.25 Z M 4.21875 -6.171875 "/></g></g></g><g fill="#000000" fill-opacity="1"><g transform="translate(142.953096, 26.402596)"><g><path d="M 5.625 -9.0625 L 5.625 -11.1875 L 0.59375 -10.34375 L 0.59375 -9.921875 L 1.921875 -10.140625 L 1.921875 -0.390625 L 0.59375 -0.390625 L 0.59375 0 L 6.96875 0 L 6.96875 -0.390625 L 5.625 -0.390625 L 5.625 -7.53125 C 5.625 -7.78125 5.679688 -8.0625 5.796875 -8.375 C 5.910156 -8.6875 6.078125 -8.984375 6.296875 -9.265625 C 6.523438 -9.554688 6.785156 -9.800781 7.078125 -10 C 7.378906 -10.195312 7.71875 -10.296875 8.09375 -10.296875 C 7.914062 -10.179688 7.726562 -10.007812 7.53125 -9.78125 C 7.332031 -9.550781 7.234375 -9.238281 7.234375 -8.84375 C 7.234375 -8.363281 7.390625 -7.972656 7.703125 -7.671875 C 8.015625 -7.378906 8.441406 -7.234375 8.984375 -7.234375 C 9.410156 -7.234375 9.804688 -7.367188 10.171875 -7.640625 C 10.535156 -7.910156 10.71875 -8.328125 10.71875 -8.890625 C 10.71875 -9.523438 10.507812 -10.003906 10.09375 -10.328125 C 9.6875 -10.648438 9.128906 -10.8125 8.421875 -10.8125 C 7.765625 -10.8125 7.195312 -10.644531 6.71875 -10.3125 C 6.238281 -9.988281 5.875 -9.570312 5.625 -9.0625 Z M 5.625 -9.0625 "/></g></g></g><g clip-path="url(#4dfab88668)"><g clip-path="url(#07bc578140)"><g clip-path="url(#4a15bbcd57)"><path fill="#5271ff" d="M 173.601562 25.59375 C 173.683594 24.652344 173.757812 23.757812 173.796875 23.253906 C 174.941406 23.085938 176.128906 22.203125 177.171875 20.605469 C 178.011719 19.320312 178.46875 18.027344 178.46875 18.027344 C 178.46875 18.027344 178.390625 17.945312 178.28125 17.859375 C 178.390625 17.496094 178.519531 16.988281 178.671875 16.347656 C 178.71875 16.355469 178.746094 16.371094 178.746094 16.371094 L 179.074219 14.929688 C 179.074219 14.929688 179.050781 14.878906 179.003906 14.820312 C 179.855469 10.445312 179.179688 8.398438 179.085938 7.800781 C 178.988281 7.171875 178.632812 7.003906 178.261719 6.710938 C 177.988281 6.496094 177.046875 6.132812 176.566406 5.953125 C 176.523438 5.851562 176.46875 5.789062 176.46875 5.789062 C 176.46875 5.789062 175.769531 5.503906 174.984375 5.503906 C 174.546875 5.503906 174.308594 6.171875 174.292969 6.382812 C 174.277344 6.589844 174.292969 6.859375 174.628906 6.96875 C 174.964844 7.082031 176.035156 7.074219 176.269531 6.984375 C 176.378906 6.867188 176.453125 6.757812 176.507812 6.652344 C 177.070312 6.859375 178.253906 7.316406 178.410156 7.550781 C 178.585938 7.808594 179.371094 9.722656 178.300781 14.800781 C 178.242188 14.859375 178.179688 14.933594 178.113281 15.023438 L 178.078125 15.019531 C 178.078125 15.019531 178.027344 15.292969 177.898438 15.691406 C 177.289062 17.539062 175.992188 19.082031 173.75 18.546875 C 171.773438 18.074219 170.480469 15.953125 169.800781 14.179688 C 169.640625 13.757812 169.566406 13.488281 169.566406 13.488281 L 169.539062 13.496094 L 169.527344 13.425781 C 169.527344 13.425781 169.492188 13.292969 169.402344 13.199219 C 168.867188 8.898438 169.199219 6.582031 169.992188 6.097656 C 170.859375 5.570312 171.742188 5.839844 171.894531 5.882812 C 171.886719 6.082031 171.910156 6.292969 172.039062 6.347656 C 172.890625 6.726562 173.558594 6.761719 173.558594 6.761719 C 173.558594 6.761719 173.671875 6.855469 173.972656 6.199219 C 174.269531 5.542969 173.851562 5.238281 173.851562 5.238281 C 173.269531 5.070312 172.632812 5.035156 172.351562 5.035156 C 172.179688 5.035156 172.085938 5.144531 172.027344 5.273438 C 172.011719 5.257812 172.003906 5.25 172.003906 5.25 C 172.09375 5.308594 170.621094 4.925781 169.5 5.785156 C 168.597656 6.484375 168.078125 10.355469 169.234375 16.777344 C 169.117188 16.847656 169.035156 16.917969 169.035156 16.917969 C 169.171875 17.941406 169.457031 18.992188 169.820312 19.949219 C 170.515625 21.761719 171.519531 22.835938 172.632812 23.171875 C 172.53125 24.425781 172.222656 28.175781 172.085938 28.859375 C 171.929688 29.644531 171.40625 31.398438 169.347656 32.550781 C 168.339844 33.113281 166.429688 32.679688 165.546875 31.320312 C 165.042969 30.535156 164.742188 29.230469 164.46875 28.328125 C 162.582031 22.125 159.0625 25.378906 157.925781 23.074219 C 157.269531 21.738281 157.761719 19.921875 158.433594 18.855469 C 158.890625 18.132812 160.886719 16.457031 160.929688 16.421875 C 160.929688 16.421875 160.90625 16.316406 160.863281 16.191406 L 160.976562 16.101562 C 161.050781 16.160156 161.125 16.21875 161.210938 16.273438 C 162.265625 16.941406 163.679688 16.605469 164.363281 15.519531 C 165.050781 14.4375 164.75 13.015625 163.691406 12.347656 C 162.632812 11.679688 161.21875 12.015625 160.535156 13.097656 C 160.03125 13.894531 160.0625 14.875 160.535156 15.601562 L 160.457031 15.664062 C 160.320312 15.574219 160.195312 15.515625 160.195312 15.515625 C 159.429688 16.15625 157.953125 17.445312 157.453125 18.234375 C 156.671875 19.472656 155.960938 21.757812 156.875 23.621094 C 157.714844 25.316406 159.425781 25.105469 160.921875 25.480469 C 163.453125 26.117188 163.304688 30.035156 164.566406 31.980469 C 165.714844 33.761719 168.265625 34.496094 169.898438 33.582031 C 173.3125 31.667969 173.316406 28.875 173.601562 25.59375 Z M 173.601562 25.59375 " fill-opacity="1" fill-rule="nonzero"/></g></g></g></svg>