<svg xmlns="http://www.w3.org/2000/svg" xmlns:xlink="http://www.w3.org/1999/xlink" width="320" zoomAndPan="magnify" viewBox="0 0 240 37.5" height="50" preserveAspectRatio="xMidYMid meet" version="1.0"><defs><g/><clipPath id="2a832ba5d6"><path d="M 1.578125 0 L 238.421875 0 L 238.421875 37.007812 L 1.578125 37.007812 Z M 1.578125 0 " clip-rule="nonzero"/></clipPath><clipPath id="26485fbb6d"><path d="M 27.460938 20 L 40.785156 20 L 40.785156 27.5 L 27.460938 27.5 Z M 27.460938 20 " clip-rule="nonzero"/></clipPath><clipPath id="3252c08990"><path d="M 29 22 L 32 22 L 32 27.5 L 29 27.5 Z M 29 22 " clip-rule="nonzero"/></clipPath><clipPath id="ac7eafba35"><path d="M 30 26 L 32 26 L 32 27.5 L 30 27.5 Z M 30 26 " clip-rule="nonzero"/></clipPath><clipPath id="0ee65b0148"><path d="M 30 9.738281 L 39 9.738281 L 39 17 L 30 17 Z M 30 9.738281 " clip-rule="nonzero"/></clipPath></defs><g clip-path="url(#2a832ba5d6)"><path fill="#ffffff" d="M 1.578125 0 L 238.421875 0 L 238.421875 44.40625 L 1.578125 44.40625 Z M 1.578125 0 " fill-opacity="1" fill-rule="nonzero"/><path fill="#ffffff" d="M 1.578125 0 L 238.421875 0 L 238.421875 37.007812 L 1.578125 37.007812 Z M 1.578125 0 " fill-opacity="1" fill-rule="nonzero"/><path fill="#ffffff" d="M 1.578125 0 L 238.421875 0 L 238.421875 37.007812 L 1.578125 37.007812 Z M 1.578125 0 " fill-opacity="1" fill-rule="nonzero"/></g><path fill="#003884" d="M 30.449219 16.46875 C 30.449219 16.46875 31.164062 20.175781 34.464844 20.085938 C 37.324219 20.003906 38.214844 16.46875 38.214844 16.46875 " fill-opacity="1" fill-rule="nonzero"/><path fill="#ffffff" d="M 37.585938 17.164062 C 37.363281 17.09375 36.960938 16.894531 36.902344 16.570312 C 36.855469 16.292969 36.816406 15.882812 36.875 15.695312 C 37.03125 15.230469 37.460938 15.203125 37.765625 14.996094 C 38.265625 14.65625 38.535156 14.832031 38.648438 15.285156 C 38.761719 15.75 38.324219 17.398438 37.585938 17.164062 " fill-opacity="1" fill-rule="nonzero"/><path fill="#003884" d="M 37.585938 17.164062 L 37.605469 17.101562 C 37.5 17.066406 37.347656 17 37.21875 16.910156 C 37.15625 16.863281 37.097656 16.808594 37.054688 16.75 C 37.007812 16.691406 36.980469 16.628906 36.96875 16.5625 C 36.9375 16.386719 36.910156 16.152344 36.910156 15.96875 C 36.910156 15.863281 36.917969 15.769531 36.9375 15.71875 C 36.972656 15.609375 37.023438 15.53125 37.082031 15.464844 C 37.175781 15.367188 37.289062 15.304688 37.417969 15.246094 C 37.542969 15.1875 37.679688 15.132812 37.800781 15.050781 C 37.972656 14.933594 38.113281 14.882812 38.21875 14.882812 C 38.265625 14.882812 38.304688 14.894531 38.34375 14.910156 C 38.394531 14.933594 38.441406 14.980469 38.484375 15.042969 C 38.527344 15.109375 38.558594 15.195312 38.585938 15.300781 C 38.597656 15.34375 38.601562 15.402344 38.601562 15.46875 C 38.601562 15.605469 38.578125 15.78125 38.539062 15.960938 C 38.476562 16.238281 38.367188 16.535156 38.226562 16.757812 C 38.152344 16.867188 38.074219 16.960938 37.992188 17.023438 C 37.90625 17.085938 37.820312 17.121094 37.730469 17.121094 C 37.6875 17.121094 37.648438 17.113281 37.605469 17.101562 L 37.566406 17.226562 C 37.621094 17.246094 37.675781 17.253906 37.730469 17.253906 C 37.8125 17.253906 37.890625 17.230469 37.964844 17.195312 C 38.089844 17.132812 38.199219 17.023438 38.292969 16.886719 C 38.433594 16.6875 38.542969 16.429688 38.617188 16.175781 C 38.691406 15.917969 38.730469 15.664062 38.730469 15.46875 C 38.730469 15.394531 38.726562 15.324219 38.710938 15.269531 C 38.671875 15.117188 38.617188 14.992188 38.539062 14.898438 C 38.496094 14.851562 38.449219 14.816406 38.394531 14.789062 C 38.34375 14.765625 38.28125 14.753906 38.21875 14.753906 C 38.074219 14.753906 37.914062 14.816406 37.726562 14.941406 C 37.585938 15.039062 37.40625 15.097656 37.234375 15.191406 C 37.148438 15.238281 37.0625 15.296875 36.988281 15.375 C 36.917969 15.453125 36.855469 15.550781 36.8125 15.675781 C 36.789062 15.753906 36.78125 15.855469 36.78125 15.96875 C 36.78125 16.167969 36.808594 16.402344 36.839844 16.582031 C 36.855469 16.675781 36.898438 16.757812 36.949219 16.832031 C 37.03125 16.9375 37.144531 17.023438 37.253906 17.085938 C 37.367188 17.152344 37.480469 17.199219 37.566406 17.226562 L 37.585938 17.164062 " fill-opacity="1" fill-rule="nonzero"/><path fill="#ffffff" d="M 31.128906 17.164062 C 31.351562 17.09375 31.757812 16.894531 31.8125 16.570312 C 31.859375 16.292969 31.902344 15.882812 31.839844 15.695312 C 31.6875 15.230469 31.257812 15.203125 30.953125 14.996094 C 30.453125 14.65625 30.179688 14.832031 30.066406 15.285156 C 29.953125 15.75 30.390625 17.398438 31.128906 17.164062 " fill-opacity="1" fill-rule="nonzero"/><path fill="#003884" d="M 31.128906 17.164062 L 31.148438 17.226562 C 31.265625 17.191406 31.429688 17.121094 31.570312 17.015625 C 31.644531 16.964844 31.710938 16.902344 31.765625 16.832031 C 31.820312 16.757812 31.859375 16.675781 31.875 16.582031 C 31.90625 16.402344 31.9375 16.167969 31.9375 15.96875 C 31.9375 15.855469 31.925781 15.753906 31.902344 15.675781 C 31.859375 15.550781 31.800781 15.453125 31.726562 15.375 C 31.617188 15.257812 31.484375 15.1875 31.351562 15.125 C 31.222656 15.066406 31.09375 15.015625 30.988281 14.941406 C 30.800781 14.816406 30.640625 14.753906 30.496094 14.753906 C 30.433594 14.753906 30.375 14.765625 30.320312 14.789062 C 30.238281 14.828125 30.171875 14.890625 30.121094 14.972656 C 30.070312 15.054688 30.03125 15.152344 30.003906 15.269531 C 29.992188 15.324219 29.984375 15.394531 29.984375 15.46875 C 29.984375 15.617188 30.007812 15.800781 30.050781 15.992188 C 30.117188 16.28125 30.226562 16.585938 30.382812 16.828125 C 30.460938 16.949219 30.546875 17.054688 30.648438 17.128906 C 30.746094 17.207031 30.863281 17.253906 30.988281 17.253906 C 31.039062 17.253906 31.09375 17.246094 31.148438 17.226562 L 31.109375 17.101562 C 31.066406 17.113281 31.027344 17.121094 30.988281 17.121094 C 30.925781 17.121094 30.867188 17.105469 30.808594 17.078125 C 30.710938 17.027344 30.613281 16.933594 30.527344 16.8125 C 30.398438 16.628906 30.292969 16.382812 30.222656 16.136719 C 30.152344 15.890625 30.113281 15.648438 30.113281 15.46875 C 30.113281 15.402344 30.121094 15.34375 30.128906 15.300781 C 30.164062 15.160156 30.214844 15.054688 30.273438 14.984375 C 30.304688 14.953125 30.335938 14.925781 30.375 14.910156 C 30.410156 14.894531 30.449219 14.882812 30.496094 14.882812 C 30.601562 14.882812 30.742188 14.933594 30.914062 15.050781 C 31.078125 15.164062 31.265625 15.21875 31.421875 15.308594 C 31.5 15.351562 31.570312 15.398438 31.632812 15.464844 C 31.691406 15.53125 31.742188 15.609375 31.777344 15.71875 C 31.796875 15.769531 31.804688 15.863281 31.804688 15.96875 C 31.804688 16.152344 31.777344 16.386719 31.75 16.558594 C 31.738281 16.628906 31.707031 16.691406 31.664062 16.75 C 31.597656 16.835938 31.5 16.914062 31.398438 16.972656 C 31.296875 17.03125 31.191406 17.074219 31.109375 17.101562 L 31.128906 17.164062 " fill-opacity="1" fill-rule="nonzero"/><g clip-path="url(#26485fbb6d)"><path fill="#003884" d="M 28.917969 21.890625 C 29.835938 20.925781 32.097656 20.582031 32.097656 20.582031 L 36.335938 20.582031 C 36.335938 20.582031 38.742188 21.035156 39.625 21.890625 C 40.472656 22.710938 40.777344 27.503906 40.777344 27.503906 L 27.46875 27.503906 C 27.46875 27.503906 28.363281 22.472656 28.917969 21.890625 " fill-opacity="1" fill-rule="nonzero"/></g><path fill="#ffffff" d="M 35.703125 19.359375 L 32.789062 19.359375 L 32.101562 20.960938 L 34.246094 23.316406 L 36.394531 20.960938 L 35.703125 19.359375 " fill-opacity="1" fill-rule="nonzero"/><path fill="#003884" d="M 35.703125 19.359375 L 35.703125 19.292969 L 32.75 19.292969 L 32.023438 20.976562 L 34.246094 23.414062 L 36.46875 20.976562 L 35.742188 19.292969 L 35.703125 19.292969 L 35.703125 19.359375 L 35.640625 19.386719 L 36.316406 20.949219 L 34.246094 23.21875 L 32.175781 20.949219 L 32.832031 19.425781 L 35.703125 19.425781 L 35.703125 19.359375 L 35.640625 19.386719 L 35.703125 19.359375 " fill-opacity="1" fill-rule="nonzero"/><path fill="#ffffff" d="M 37.519531 17.328125 C 37.171875 18.789062 35.242188 20.320312 34.195312 20.320312 C 33.273438 20.320312 31.390625 18.679688 31.179688 17.363281 C 31 16.222656 30.847656 14.535156 31.074219 13.78125 C 31.65625 11.871094 33.003906 10.917969 34.425781 10.917969 C 35.796875 10.917969 36.96875 11.859375 37.574219 13.660156 C 37.847656 14.464844 37.796875 16.171875 37.519531 17.328125 " fill-opacity="1" fill-rule="nonzero"/><path fill="#003884" d="M 37.519531 17.328125 L 37.457031 17.3125 C 37.371094 17.667969 37.191406 18.03125 36.949219 18.375 C 36.585938 18.890625 36.085938 19.363281 35.582031 19.703125 C 35.328125 19.875 35.074219 20.015625 34.839844 20.109375 C 34.601562 20.203125 34.382812 20.257812 34.195312 20.253906 C 33.984375 20.257812 33.699219 20.160156 33.398438 19.988281 C 32.941406 19.730469 32.4375 19.308594 32.035156 18.835938 C 31.628906 18.359375 31.320312 17.828125 31.246094 17.351562 C 31.128906 16.625 31.023438 15.675781 31.023438 14.890625 C 31.023438 14.449219 31.058594 14.0625 31.136719 13.800781 C 31.425781 12.855469 31.898438 12.152344 32.476562 11.683594 C 33.050781 11.21875 33.730469 10.984375 34.425781 10.984375 C 35.097656 10.984375 35.714844 11.214844 36.246094 11.664062 C 36.777344 12.117188 37.214844 12.789062 37.515625 13.679688 C 37.632812 14.03125 37.691406 14.578125 37.691406 15.171875 C 37.691406 15.890625 37.609375 16.6875 37.457031 17.3125 L 37.582031 17.34375 C 37.738281 16.703125 37.820312 15.902344 37.820312 15.171875 C 37.820312 14.566406 37.765625 14.015625 37.636719 13.636719 C 37.332031 12.730469 36.878906 12.035156 36.328125 11.5625 C 35.777344 11.09375 35.125 10.851562 34.425781 10.851562 C 33.699219 10.851562 32.992188 11.097656 32.394531 11.582031 C 31.796875 12.066406 31.308594 12.796875 31.015625 13.761719 C 30.929688 14.046875 30.894531 14.441406 30.894531 14.890625 C 30.894531 15.6875 31 16.640625 31.117188 17.375 C 31.171875 17.714844 31.332031 18.074219 31.558594 18.417969 C 31.894531 18.933594 32.371094 19.421875 32.855469 19.785156 C 33.097656 19.96875 33.339844 20.117188 33.566406 20.222656 C 33.796875 20.328125 34.011719 20.386719 34.195312 20.386719 C 34.472656 20.386719 34.796875 20.289062 35.136719 20.117188 C 35.644531 19.863281 36.1875 19.453125 36.636719 18.960938 C 37.089844 18.472656 37.449219 17.90625 37.582031 17.34375 L 37.519531 17.328125 " fill-opacity="1" fill-rule="nonzero"/><path fill="#003884" d="M 34.46875 16.152344 L 34.359375 18.046875 L 34.125 17.910156 Z M 34.46875 16.152344 " fill-opacity="1" fill-rule="nonzero"/><path fill="#003884" d="M 36.082031 19.957031 C 36.082031 19.957031 38.089844 19.550781 38.507812 21.222656 C 38.816406 22.453125 37.8125 24.835938 37.8125 24.835938 L 37.40625 24.820312 C 37.40625 24.820312 38.082031 21.941406 37.703125 21.226562 C 37.371094 20.609375 36.335938 20.578125 36.335938 20.578125 L 36.082031 19.957031 " fill-opacity="1" fill-rule="nonzero"/><path fill="#003884" d="M 29.128906 22.765625 C 29.128906 22.765625 29.578125 21.355469 29.914062 21 C 30.519531 20.351562 32.492188 19.863281 32.492188 19.863281 L 32.308594 20.304688 C 32.308594 20.304688 30.605469 20.679688 30.546875 20.988281 C 30.488281 21.292969 31.808594 21.5625 31.808594 21.5625 C 31.808594 21.5625 31.039062 21.578125 30.769531 21.515625 C 30.496094 21.453125 30.246094 21.359375 30.15625 21.359375 C 30.0625 21.359375 29.820312 22.015625 29.820312 22.015625 L 29.128906 22.765625 " fill-opacity="1" fill-rule="nonzero"/><path fill="#ffffff" d="M 31.082031 22.011719 C 31.566406 22.007812 32.1875 22.089844 32.542969 22.472656 C 33.007812 22.972656 33.527344 23.90625 33.941406 24.9375 C 34.132812 25.425781 33.5625 25.667969 33.535156 25.679688 L 33.59375 25.886719 C 33.597656 25.882812 33.816406 25.8125 33.964844 25.664062 C 34.167969 25.457031 34.277344 25.171875 34.175781 24.910156 C 33.808594 23.992188 33.222656 22.835938 32.703125 22.277344 C 32.296875 21.839844 31.542969 21.851562 31.027344 21.863281 C 31.050781 21.910156 31.070312 21.957031 31.082031 22.011719 " fill-opacity="1" fill-rule="nonzero"/><path fill="#ffffff" d="M 38.421875 25.886719 C 38.421875 26.398438 38.015625 26.808594 37.515625 26.808594 C 37.015625 26.808594 36.609375 26.398438 36.609375 25.886719 C 36.609375 25.375 37.015625 24.960938 37.515625 24.960938 C 38.015625 24.960938 38.421875 25.375 38.421875 25.886719 " fill-opacity="1" fill-rule="nonzero"/><path fill="#003884" d="M 38.175781 25.886719 C 38.175781 26.257812 37.878906 26.554688 37.515625 26.554688 C 37.152344 26.554688 36.855469 26.257812 36.855469 25.886719 C 36.855469 25.515625 37.152344 25.214844 37.515625 25.214844 C 37.878906 25.214844 38.175781 25.515625 38.175781 25.886719 " fill-opacity="1" fill-rule="nonzero"/><path fill="#ffffff" d="M 37.902344 25.886719 C 37.902344 26.105469 37.730469 26.28125 37.515625 26.28125 C 37.300781 26.28125 37.128906 26.105469 37.128906 25.886719 C 37.128906 25.667969 37.300781 25.492188 37.515625 25.492188 C 37.730469 25.492188 37.902344 25.667969 37.902344 25.886719 " fill-opacity="1" fill-rule="nonzero"/><path fill="#ffffff" d="M 30.449219 21.738281 L 30.476562 21.734375 C 30.539062 21.722656 32.09375 21.441406 32.804688 22.207031 C 32.964844 22.378906 33.167969 22.683594 33.410156 23.113281 L 33.003906 23.382812 C 32.773438 22.976562 32.539062 22.679688 32.398438 22.527344 C 31.835938 21.921875 30.804688 22.191406 30.609375 22.222656 C 30.433594 22.332031 29.347656 22.890625 29.484375 23.726562 C 29.527344 24.003906 29.605469 24.414062 29.695312 24.808594 L 29.21875 24.890625 C 29.128906 24.492188 29.042969 24.082031 28.996094 23.792969 C 28.820312 22.699219 30.363281 21.789062 30.429688 21.75 L 30.449219 21.738281 " fill-opacity="1" fill-rule="nonzero"/><path fill="#ffffff" d="M 33.28125 25.605469 L 33.796875 25.503906 L 33.910156 25.746094 L 33.511719 26.085938 C 33.511719 26.085938 33.425781 26.117188 33.3125 25.886719 C 33.203125 25.65625 33.28125 25.605469 33.28125 25.605469 " fill-opacity="1" fill-rule="nonzero"/><g clip-path="url(#3252c08990)"><path fill="#ffffff" d="M 30.167969 22.386719 C 29.820312 22.726562 29.425781 23.226562 29.433594 23.75 C 29.441406 24.441406 29.699219 25.480469 30.109375 26.511719 C 30.304688 27 30.882812 26.769531 30.90625 26.761719 L 31.007812 26.949219 C 31 26.953125 30.792969 27.054688 30.585938 27.050781 C 30.300781 27.046875 30.023438 26.917969 29.921875 26.660156 C 29.558594 25.738281 29.191406 24.496094 29.183594 23.722656 C 29.175781 23.121094 29.730469 22.597656 30.105469 22.242188 C 30.121094 22.292969 30.140625 22.339844 30.167969 22.386719 " fill-opacity="1" fill-rule="nonzero"/></g><g clip-path="url(#ac7eafba35)"><path fill="#ffffff" d="M 31.039062 26.527344 L 30.601562 26.820312 L 30.679688 27.074219 L 31.203125 27.035156 C 31.203125 27.035156 31.285156 26.996094 31.207031 26.753906 C 31.128906 26.507812 31.039062 26.527344 31.039062 26.527344 " fill-opacity="1" fill-rule="nonzero"/></g><path fill="#ffffff" d="M 29.183594 22.9375 C 29.183594 22.9375 29.761719 21.503906 30.09375 21.148438 C 30.699219 20.496094 32.363281 20.082031 32.363281 20.082031 L 32.179688 20.523438 C 32.179688 20.523438 30.65625 20.851562 30.601562 21.160156 C 30.542969 21.464844 31.863281 21.734375 31.863281 21.734375 C 31.863281 21.734375 31.09375 21.753906 30.820312 21.691406 C 30.550781 21.628906 30.300781 21.53125 30.207031 21.53125 C 30.117188 21.53125 29.871094 22.1875 29.871094 22.1875 L 29.183594 22.9375 " fill-opacity="1" fill-rule="nonzero"/><path fill="#ffffff" d="M 36.132812 20.09375 C 36.132812 20.09375 37.902344 19.957031 38.261719 21.039062 C 38.660156 22.242188 37.753906 24.996094 37.753906 24.996094 L 37.347656 24.980469 C 37.347656 24.980469 38.109375 21.859375 37.726562 21.144531 C 37.398438 20.527344 36.335938 20.582031 36.335938 20.582031 L 36.132812 20.09375 " fill-opacity="1" fill-rule="nonzero"/><g clip-path="url(#0ee65b0148)"><path fill="#003884" d="M 31.519531 16.441406 C 31.375 15.324219 31.871094 13.613281 31.871094 13.613281 C 31.871094 13.613281 33.0625 14.515625 34.515625 14.515625 C 35.96875 14.515625 36.234375 13.695312 36.84375 14.140625 C 37.324219 14.492188 37.257812 15.453125 37.203125 16.46875 C 37.40625 16.347656 37.511719 16.183594 37.523438 16.007812 C 37.542969 15.660156 37.617188 15.300781 37.753906 15.105469 C 38.164062 14.527344 38.515625 15.070312 38.648438 15.285156 C 38.648438 11.046875 36.84375 9.84375 34.296875 9.773438 C 32.957031 9.738281 31.457031 9.878906 30.789062 11.550781 C 30.03125 12.03125 29.976562 13.625 30.066406 15.285156 C 30.253906 14.945312 30.628906 14.949219 30.84375 15.292969 C 31.054688 15.632812 31.242188 16.277344 31.242188 16.277344 C 31.242188 16.277344 31.390625 16.4375 31.519531 16.441406 " fill-opacity="1" fill-rule="nonzero"/></g><g fill="#000000" fill-opacity="1"><g transform="translate(52.906551, 22.911528)"><g><path d="M 8.714844 -9.421875 C 8.664062 -9.371094 8.304688 -9.34375 8.226562 -9.332031 C 7.828125 -9.253906 7.429688 -9.203125 7.042969 -9.152344 C 6.273438 -9.050781 5.464844 -9.0625 4.703125 -8.933594 C 4.71875 -9.332031 4.050781 -9.976562 3.753906 -9.488281 C 3.664062 -9.34375 3.636719 -9.152344 3.585938 -9 C 3.535156 -8.832031 3.535156 -8.855469 3.394531 -8.820312 C 3.289062 -8.78125 3.136719 -8.78125 3.035156 -8.78125 C 2.855469 -8.753906 2.6875 -8.753906 2.507812 -8.742188 C 2.273438 -8.726562 2.019531 -8.742188 1.929688 -8.484375 C 1.710938 -7.804688 2.765625 -7.777344 3.164062 -7.804688 C 3.097656 -7.621094 3.046875 -7.441406 2.96875 -7.25 C 2.957031 -7.199219 2.800781 -6.734375 2.828125 -6.734375 L 2.90625 -6.839844 C 2.726562 -6.351562 2.417969 -5.824219 2.199219 -5.308594 C 2.070312 -5 1.96875 -4.703125 1.863281 -4.394531 C 1.785156 -4.152344 1.785156 -4.125 1.53125 -4.0625 L 1.144531 -3.996094 C 1.054688 -3.984375 0.9375 -3.972656 0.859375 -3.894531 C 0.527344 -3.535156 1.167969 -3.253906 1.464844 -3.265625 C 1.386719 -3.058594 0.515625 -0.796875 0.5 -0.796875 C 0.5 -0.785156 0.589844 -0.964844 0.695312 -1.222656 L 0.28125 -0.179688 C 0.28125 -0.207031 0.296875 -0.230469 0.296875 -0.246094 C 0.246094 -0.246094 0.0507812 0.296875 0.0898438 0.296875 L 0.140625 0.246094 C 0.078125 0.398438 -0.0273438 0.449219 0 0.667969 C 0.0390625 0.898438 0.191406 1.09375 0.386719 1.222656 C 0.554688 1.335938 0.914062 1.542969 1.117188 1.476562 C 1.3125 1.414062 1.167969 1.425781 1.246094 1.335938 C 1.554688 0.988281 1.621094 0.425781 1.773438 -0.0390625 C 1.8125 -0.167969 2.300781 -1.683594 2.289062 -1.695312 L 2.238281 -1.644531 C 2.273438 -1.75 2.3125 -1.875 2.367188 -1.992188 C 2.378906 -1.980469 2.328125 -1.890625 2.351562 -1.890625 C 2.429688 -1.875 2.726562 -2.765625 2.75 -2.828125 C 2.816406 -3.019531 2.800781 -3.289062 2.890625 -3.472656 C 2.980469 -3.636719 3.109375 -3.625 3.289062 -3.636719 C 3.457031 -3.652344 3.574219 -3.714844 3.675781 -3.765625 C 3.832031 -3.832031 4.023438 -3.804688 4.179688 -3.84375 C 4.382812 -3.894531 4.578125 -3.921875 4.78125 -3.972656 C 5 -4.011719 5.078125 -4.101562 5.230469 -4.140625 C 5.398438 -4.179688 5.863281 -4.152344 5.914062 -4.382812 C 5.964844 -4.628906 5.773438 -4.472656 5.746094 -4.472656 C 5.335938 -4.449219 4.921875 -4.511719 4.511719 -4.472656 C 4.074219 -4.449219 3.652344 -4.410156 3.214844 -4.371094 C 3.214844 -4.382812 3.265625 -4.652344 3.199219 -4.539062 L 3.238281 -4.640625 L 3.238281 -4.601562 C 3.265625 -4.601562 3.417969 -5.101562 3.472656 -5.179688 C 3.652344 -5.515625 3.78125 -5.914062 3.894531 -6.285156 C 4.011719 -6.671875 4.113281 -7.058594 4.230469 -7.429688 L 4.332031 -7.714844 C 4.394531 -7.90625 4.359375 -7.878906 4.523438 -7.929688 C 4.679688 -7.96875 4.898438 -7.984375 5.050781 -7.996094 C 5.734375 -8.046875 6.363281 -8.226562 7.042969 -8.40625 C 7.210938 -8.445312 7.507812 -8.511719 7.648438 -8.625 C 7.777344 -8.726562 7.75 -8.753906 7.917969 -8.804688 C 8.007812 -8.832031 8.933594 -9.292969 8.714844 -9.421875 Z M 2.609375 -3.378906 C 2.441406 -2.855469 2.261719 -2.3125 2.070312 -1.785156 C 1.902344 -1.363281 1.671875 -0.953125 1.515625 -0.527344 C 1.839844 -1.492188 2.25 -2.441406 2.609375 -3.40625 L 2.609375 -3.394531 C 2.597656 -3.34375 2.597656 -3.355469 2.609375 -3.378906 Z M 1.515625 -3.277344 L 1.351562 -2.878906 C 1.402344 -3.035156 1.476562 -3.265625 1.515625 -3.277344 Z M 2.621094 -3.445312 L 2.621094 -3.433594 C 2.609375 -3.417969 2.609375 -3.417969 2.609375 -3.40625 C 2.609375 -3.417969 2.609375 -3.433594 2.621094 -3.445312 Z M 2.621094 -3.445312 C 2.621094 -3.457031 2.621094 -3.472656 2.636719 -3.484375 L 2.636719 -3.472656 C 2.636719 -3.472656 2.621094 -3.457031 2.621094 -3.445312 Z M 2.621094 -3.445312 "/></g></g><g transform="translate(58.511295, 22.911528)"><g><path d="M 3.367188 -3.164062 C 3.34375 -3.328125 3.164062 -3.277344 3.074219 -3.214844 C 2.957031 -3.136719 2.3125 -2.289062 2.367188 -2.222656 C 2.402344 -2.222656 2.429688 -2.222656 2.457031 -2.25 C 2.273438 -2.03125 1.941406 -1.785156 1.695312 -1.59375 C 1.554688 -1.476562 1.207031 -1.15625 1.003906 -1.261719 C 0.566406 -1.476562 1.453125 -3.019531 1.414062 -3.035156 C 1.375 -3.046875 1.054688 -2.328125 0.988281 -2.160156 C 1.144531 -2.609375 1.351562 -3.058594 1.59375 -3.457031 C 1.582031 -3.417969 1.542969 -3.355469 1.566406 -3.355469 C 1.59375 -3.34375 1.785156 -3.613281 1.75 -3.636719 C 1.734375 -3.636719 1.710938 -3.636719 1.695312 -3.625 C 1.734375 -3.664062 1.800781 -3.675781 1.800781 -3.753906 C 1.800781 -3.882812 1.503906 -4.011719 1.402344 -4.050781 C 1.15625 -4.152344 0.914062 -4.179688 0.71875 -4.050781 C 0.460938 -3.894531 0.410156 -3.585938 0.308594 -3.316406 C 0.28125 -3.238281 0.0390625 -2.328125 0.0898438 -2.3125 C 0.117188 -2.328125 0.117188 -2.339844 0.128906 -2.367188 L 0.0898438 -2.132812 C 0.078125 -2.132812 0.101562 -2.199219 0.078125 -2.199219 C -0.0273438 -2.199219 0 -1.734375 0.0117188 -1.671875 C 0.0625 -1.441406 0.246094 -1.273438 0.386719 -1.078125 C 0.460938 -0.964844 0.539062 -0.847656 0.65625 -0.769531 C 0.808594 -0.65625 0.707031 -0.769531 0.808594 -0.71875 L 0.785156 -0.71875 C 0.769531 -0.644531 1.261719 -0.515625 1.363281 -0.527344 C 1.8125 -0.628906 2.132812 -1.183594 2.390625 -1.53125 C 2.636719 -1.839844 2.839844 -2.148438 3.058594 -2.46875 C 3.1875 -2.636719 3.417969 -2.917969 3.367188 -3.164062 Z M 1.117188 -4.78125 C 1.144531 -4.742188 1.105469 -4.691406 1.195312 -4.640625 C 1.285156 -4.601562 1.335938 -4.652344 1.414062 -4.679688 C 1.566406 -4.742188 1.683594 -4.910156 1.800781 -5.011719 C 1.839844 -5.039062 1.761719 -5.027344 1.761719 -5.027344 C 1.929688 -5.179688 1.785156 -5 1.941406 -5.089844 C 2.09375 -5.195312 2.121094 -5.359375 2.25 -5.5 C 2.09375 -5.4375 1.980469 -5.347656 1.875 -5.21875 C 1.75 -5.050781 1.660156 -4.976562 1.515625 -4.886719 C 1.671875 -5 1.75 -5.117188 1.875 -5.320312 C 1.914062 -5.359375 1.953125 -5.386719 2.003906 -5.410156 C 1.96875 -5.449219 1.96875 -5.488281 2.019531 -5.527344 C 2.058594 -5.59375 2.132812 -5.617188 2.171875 -5.683594 C 2.238281 -5.773438 2.222656 -5.886719 2.300781 -5.976562 C 2.367188 -6.027344 2.457031 -6.066406 2.507812 -6.117188 C 2.621094 -6.222656 2.75 -6.414062 2.699219 -6.582031 C 2.648438 -6.734375 2.519531 -6.929688 2.378906 -7.019531 C 2.210938 -7.109375 1.980469 -7.148438 1.800781 -7.070312 C 1.761719 -7.058594 1.605469 -7.019531 1.660156 -6.96875 C 1.671875 -6.941406 1.683594 -6.941406 1.710938 -6.941406 C 1.59375 -6.851562 1.402344 -6.699219 1.671875 -6.59375 C 1.644531 -6.570312 1.671875 -6.453125 1.671875 -6.441406 C 1.660156 -6.351562 1.476562 -5.875 1.363281 -5.644531 L 1.515625 -5.875 C 1.425781 -5.683594 1.324219 -5.5 1.207031 -5.347656 C 1.285156 -5.515625 1.132812 -5.320312 1.132812 -5.285156 C 0.988281 -5.347656 1.027344 -4.949219 1.042969 -4.910156 C 1.042969 -4.898438 1.117188 -4.78125 1.117188 -4.78125 Z M 0.875 -1.722656 L 0.875 -1.710938 L 0.847656 -1.632812 L 0.875 -1.734375 C 0.886719 -1.75 0.886719 -1.75 0.875 -1.722656 Z M 1.296875 -5.539062 C 1.296875 -5.539062 1.324219 -5.566406 1.351562 -5.617188 Z M 1.167969 -5.296875 C 1.167969 -5.285156 1.167969 -5.285156 1.15625 -5.269531 C 1.15625 -5.269531 1.15625 -5.285156 1.144531 -5.285156 C 1.15625 -5.285156 1.15625 -5.285156 1.167969 -5.296875 Z M 1.167969 -5.296875 "/></g></g><g transform="translate(60.940874, 22.911528)"><g><path d="M 5.320312 -3.058594 C 5.257812 -3.367188 5.078125 -3.164062 5 -3.046875 C 4.820312 -2.828125 4.539062 -2.621094 4.320312 -2.417969 C 4.023438 -2.160156 3.726562 -1.890625 3.417969 -1.644531 C 3.265625 -1.515625 3.074219 -1.335938 2.878906 -1.273438 C 2.855469 -1.261719 2.765625 -1.246094 2.765625 -1.234375 L 2.75 -1.246094 C 2.75 -1.246094 2.738281 -1.453125 2.75 -1.464844 C 2.765625 -1.632812 2.816406 -1.800781 2.867188 -1.953125 C 2.878906 -1.980469 3.019531 -2.417969 2.996094 -2.417969 L 2.929688 -2.339844 C 3.007812 -2.492188 3.109375 -2.648438 3.199219 -2.816406 C 2.996094 -2.621094 2.855469 -2.402344 2.75 -2.132812 C 2.699219 -2.003906 2.558594 -1.773438 2.53125 -1.582031 C 2.558594 -1.863281 2.75 -2.238281 2.839844 -2.402344 C 2.96875 -2.671875 3.109375 -2.980469 3.277344 -3.238281 C 3.585938 -3.703125 4.253906 -4.125 4.050781 -4.769531 C 3.871094 -5.375 3.394531 -5.386719 3.019531 -5.039062 C 2.839844 -4.871094 1.3125 -2.917969 1.351562 -2.890625 C 1.351562 -2.890625 1.476562 -3.046875 1.644531 -3.265625 L 0.886719 -2.160156 C 0.875 -2.160156 1.015625 -2.378906 1.003906 -2.390625 C 0.988281 -2.402344 0.898438 -2.3125 0.886719 -2.261719 C 0.914062 -2.53125 1.003906 -2.800781 1.027344 -3.074219 C 1.042969 -3.175781 1.027344 -3.253906 1.054688 -3.355469 C 1.105469 -3.523438 1.15625 -3.703125 1.234375 -3.84375 C 1.285156 -3.945312 1.386719 -4.035156 1.414062 -4.140625 C 1.464844 -4.304688 1.453125 -4.371094 1.566406 -4.511719 C 1.671875 -4.640625 1.824219 -4.769531 1.914062 -4.886719 C 2.132812 -5.207031 1.761719 -5.425781 1.554688 -5.464844 C 1.386719 -5.488281 1.222656 -5.5 1.066406 -5.410156 C 0.898438 -5.308594 0.9375 -5.21875 0.898438 -5.078125 C 0.859375 -4.898438 0.734375 -4.691406 0.667969 -4.523438 C 0.566406 -4.253906 0.476562 -3.984375 0.386719 -3.714844 C 0.28125 -3.445312 0.179688 -3.1875 0.101562 -2.917969 C 0.0390625 -2.699219 0.0507812 -2.492188 0.0273438 -2.289062 C 0 -2.058594 -0.0390625 -1.902344 0.078125 -1.695312 C 0.207031 -1.476562 0.554688 -1.144531 0.785156 -1.425781 L 0.835938 -1.324219 C 1.054688 -1.800781 1.386719 -2.222656 1.660156 -2.6875 C 1.773438 -2.890625 1.980469 -3.035156 2.148438 -3.253906 C 2.378906 -3.5625 2.582031 -3.871094 2.839844 -4.164062 C 2.800781 -4.101562 2.636719 -3.804688 2.648438 -3.792969 C 2.671875 -3.804688 2.6875 -3.832031 2.710938 -3.855469 L 2.53125 -3.496094 C 2.519531 -3.507812 2.582031 -3.597656 2.558594 -3.597656 C 2.46875 -3.625 2.199219 -2.90625 2.171875 -2.839844 C 2.082031 -2.558594 2.070312 -2.300781 2.042969 -2.003906 C 2.03125 -1.863281 2.003906 -1.722656 2.003906 -1.582031 C 2.003906 -1.441406 2.019531 -1.296875 2.082031 -1.15625 C 2.121094 -1.078125 2.171875 -0.976562 2.238281 -0.914062 C 2.25 -0.914062 2.390625 -0.785156 2.328125 -0.886719 L 2.402344 -0.808594 L 2.367188 -0.835938 C 2.351562 -0.769531 2.828125 -0.515625 2.90625 -0.488281 C 3.265625 -0.371094 3.652344 -0.785156 3.882812 -1.027344 C 4.191406 -1.363281 4.449219 -1.75 4.730469 -2.109375 C 4.886719 -2.3125 5.375 -2.75 5.320312 -3.058594 Z M 5.320312 -3.058594 "/></g></g></g><g fill="#000000" fill-opacity="1"><g transform="translate(65.324401, 22.911528)"><g><path d="M 7.597656 -3.136719 L 7.597656 -3.148438 C 7.519531 -3.574219 6.941406 -2.867188 6.863281 -2.800781 C 6.492188 -2.390625 6.144531 -1.941406 5.808594 -1.492188 C 5.476562 -1.027344 5.15625 -0.566406 4.808594 -0.101562 C 4.640625 0.128906 4.472656 0.347656 4.28125 0.554688 C 4.214844 0.628906 4.0625 0.847656 3.945312 0.847656 C 3.496094 0.847656 3.84375 -0.964844 3.894531 -1.246094 C 3.972656 -1.75 4.011719 -2.417969 4.332031 -2.816406 C 4.410156 -2.917969 5.285156 -4.035156 5.285156 -4.035156 C 5.257812 -4.050781 5.15625 -3.921875 5.089844 -3.84375 L 5.644531 -4.589844 L 5.683594 -4.640625 L 5.695312 -4.640625 L 5.683594 -4.640625 L 5.785156 -4.78125 C 5.796875 -4.769531 5.785156 -4.742188 5.773438 -4.71875 L 5.886719 -4.847656 L 6.222656 -5.285156 C 6.464844 -5.628906 6.699219 -6.003906 6.914062 -6.363281 C 7.261719 -6.953125 7.738281 -7.804688 7.480469 -8.523438 C 7.289062 -9.050781 6.582031 -9.152344 6.105469 -8.972656 C 5.757812 -8.84375 5.464844 -8.574219 5.21875 -8.292969 C 5.089844 -8.125 4.960938 -7.945312 4.847656 -7.75 C 4.808594 -7.699219 4.640625 -7.289062 4.601562 -7.238281 L 4.613281 -7.238281 C 4.539062 -7.097656 4.460938 -6.953125 4.410156 -6.8125 C 4.433594 -6.914062 4.5 -7.121094 4.550781 -7.160156 C 4.449219 -7.082031 4.359375 -6.710938 4.332031 -6.671875 C 3.84375 -5.605469 3.417969 -4.523438 3.109375 -3.394531 C 2.765625 -3.792969 2.210938 -4.472656 1.605469 -4.230469 C 1.105469 -4.023438 0.734375 -3.496094 0.476562 -3.035156 C 0.246094 -2.621094 0.179688 -2.199219 0.0117188 -1.800781 C -0.28125 -1.117188 -0.425781 0.28125 0.578125 0.488281 C 0.886719 0.554688 1.167969 0.359375 1.414062 0.191406 C 1.851562 -0.128906 2.261719 -0.5 2.648438 -0.886719 C 2.582031 -0.207031 2.441406 0.824219 2.996094 1.363281 C 3.675781 2.058594 4.359375 1.117188 4.769531 0.605469 C 5.296875 -0.0625 5.707031 -0.808594 6.234375 -1.453125 C 6.492188 -1.761719 6.75 -2.070312 7.019531 -2.351562 C 7.222656 -2.558594 7.636719 -2.816406 7.597656 -3.136719 Z M 2.867188 -2.289062 C 2.855469 -2.25 2.855469 -2.222656 2.855469 -2.222656 C 2.800781 -1.914062 2.800781 -1.644531 2.582031 -1.425781 C 2.390625 -1.222656 2.183594 -1.027344 1.980469 -0.835938 C 1.785156 -0.65625 1.324219 -0.128906 1.027344 -0.152344 C 0.667969 -0.191406 0.9375 -1.015625 1.117188 -1.515625 C 0.925781 -1.003906 0.617188 -0.167969 1.042969 -0.140625 C 1.15625 -0.128906 1.351562 -0.230469 1.515625 -0.371094 C 1.363281 -0.230469 1.105469 -0.0390625 0.953125 -0.117188 C 0.65625 -0.246094 0.914062 -0.976562 0.964844 -1.183594 C 1.132812 -1.773438 1.375 -2.339844 1.660156 -2.878906 C 1.800781 -3.148438 2.003906 -3.585938 2.273438 -3.613281 L 2.210938 -3.574219 C 2.222656 -3.585938 2.238281 -3.585938 2.25 -3.585938 C 2.339844 -3.613281 2.429688 -3.546875 2.492188 -3.496094 C 2.660156 -3.378906 2.765625 -3.164062 2.878906 -2.996094 C 3.007812 -2.789062 2.917969 -2.570312 2.867188 -2.339844 Z M 4.9375 -5.257812 C 4.9375 -5.269531 4.9375 -5.296875 4.949219 -5.308594 L 4.949219 -5.320312 C 4.960938 -5.359375 4.976562 -5.375 4.976562 -5.375 L 4.976562 -5.386719 C 5.269531 -6.207031 5.59375 -7.03125 6.054688 -7.777344 C 6.171875 -7.96875 6.503906 -8.5625 6.800781 -8.394531 C 6.914062 -8.328125 6.941406 -8.164062 6.941406 -8.046875 C 6.992188 -7.277344 6.375 -6.363281 5.992188 -5.746094 C 5.539062 -5.027344 5.039062 -4.320312 4.511719 -3.664062 L 4.792969 -3.960938 L 5.050781 -4.28125 L 4.394531 -3.433594 L 4.304688 -3.316406 L 4.253906 -3.265625 C 4.269531 -3.34375 4.332031 -3.417969 4.394531 -3.507812 C 4.371094 -3.484375 4.34375 -3.457031 4.332031 -3.433594 C 4.5 -3.984375 4.679688 -4.539062 4.871094 -5.089844 C 4.859375 -5.078125 4.871094 -5.101562 4.886719 -5.15625 L 4.921875 -5.21875 C 4.921875 -5.230469 4.921875 -5.246094 4.9375 -5.257812 Z M 3.855469 -4.203125 C 3.832031 -4.140625 3.753906 -3.84375 3.714844 -3.804688 C 3.714844 -3.792969 3.703125 -3.78125 3.6875 -3.78125 C 3.792969 -3.90625 3.726562 -4.074219 3.78125 -4.230469 C 3.804688 -4.304688 3.933594 -4.449219 3.960938 -4.550781 C 3.960938 -4.449219 3.894531 -4.269531 3.855469 -4.203125 Z M 1.8125 -0.644531 C 2.132812 -0.925781 2.441406 -1.222656 2.738281 -1.53125 C 2.710938 -1.363281 2.3125 -1.078125 2.171875 -0.953125 C 2.003906 -0.785156 1.8125 -0.617188 1.621094 -0.460938 L 1.605469 -0.460938 Z M 4.085938 -5.375 C 4.035156 -5.21875 3.972656 -5.078125 3.894531 -4.9375 C 3.960938 -5.128906 3.996094 -5.320312 4.085938 -5.5 C 4.164062 -5.644531 4.253906 -5.824219 4.320312 -5.992188 C 4.253906 -5.785156 4.152344 -5.566406 4.085938 -5.375 Z M 4.921875 -5.21875 L 4.871094 -5.089844 C 4.871094 -5.101562 4.886719 -5.128906 4.886719 -5.15625 Z M 2.148438 -3.523438 C 2.09375 -3.484375 2.058594 -3.433594 2.042969 -3.433594 C 2.070312 -3.433594 2.109375 -3.484375 2.148438 -3.523438 Z M 2.507812 -3.546875 C 2.53125 -3.535156 2.558594 -3.523438 2.582031 -3.496094 Z M 5.050781 -3.78125 C 5.050781 -3.792969 5.066406 -3.804688 5.078125 -3.816406 C 5.066406 -3.792969 5.050781 -3.78125 5.050781 -3.78125 Z M 5.078125 -3.816406 L 5.089844 -3.84375 C 5.089844 -3.832031 5.078125 -3.816406 5.078125 -3.816406 Z M 5.078125 -3.816406 "/></g></g></g><g fill="#000000" fill-opacity="1"><g transform="translate(71.983248, 22.911528)"><g><path d="M 6.542969 -3.097656 C 6.53125 -3.378906 6.300781 -3.136719 6.222656 -3.035156 C 6.054688 -2.789062 5.902344 -2.53125 5.746094 -2.289062 C 5.398438 -1.761719 5.050781 -1.234375 4.652344 -0.734375 C 3.328125 0.898438 4.253906 -2.003906 4.152344 -1.980469 C 4.101562 -1.96875 4.0625 -1.773438 4.050781 -1.734375 C 4.152344 -2.199219 4.34375 -2.75 4.589844 -3.199219 C 4.730469 -3.484375 4.898438 -3.714844 4.640625 -4.023438 C 4.164062 -4.601562 3.613281 -4.074219 3.304688 -3.675781 C 3.175781 -4.164062 2.917969 -4.886719 2.289062 -4.886719 C 2.003906 -4.886719 1.839844 -4.742188 1.644531 -4.578125 C 1.53125 -4.5 1.441406 -4.488281 1.335938 -4.394531 C 1.167969 -4.28125 1.054688 -4.101562 0.9375 -3.945312 C 0.5 -3.304688 0.191406 -2.492188 0.0507812 -1.75 C -0.0117188 -1.386719 -0.0390625 -0.988281 0.0625 -0.628906 C 0.128906 -0.425781 0.359375 0.0390625 0.65625 0 C 0.667969 0 0.644531 -0.0117188 0.605469 -0.0390625 C 0.785156 0.0117188 0.988281 -0.0117188 1.144531 -0.117188 C 1.15625 -0.0898438 1.003906 -0.0273438 1.003906 -0.0273438 C 1.144531 0.191406 2.199219 -1.078125 2.273438 -1.195312 C 2.441406 -1.425781 2.558594 -1.671875 2.710938 -1.914062 C 2.828125 -2.09375 3.007812 -2.328125 3.136719 -2.519531 C 3.125 -2.429688 3.125 -2.3125 3.125 -2.3125 C 2.890625 -1.582031 2.671875 -0.785156 2.980469 -0.0273438 C 3.125 0.359375 3.472656 0.71875 3.90625 0.644531 C 4.292969 0.578125 4.613281 0.207031 4.847656 -0.0898438 C 5.128906 -0.425781 5.375 -0.796875 5.617188 -1.183594 C 5.824219 -1.53125 6.015625 -1.875 6.183594 -2.261719 C 6.285156 -2.507812 6.570312 -2.800781 6.542969 -3.097656 Z M 2.855469 -3.007812 C 2.789062 -2.917969 2.726562 -2.828125 2.671875 -2.738281 L 2.339844 -2.261719 C 2.121094 -1.941406 1.890625 -1.632812 1.644531 -1.335938 C 1.582031 -1.246094 1.273438 -0.847656 1.144531 -0.886719 C 0.953125 -0.953125 1.15625 -1.621094 1.183594 -1.722656 C 1.222656 -1.902344 1.902344 -3.882812 2.082031 -3.921875 C 1.851562 -3.933594 1.105469 -1.605469 1.066406 -1.414062 C 1.167969 -2.042969 1.402344 -2.660156 1.660156 -3.238281 C 1.800781 -3.535156 2.121094 -4.320312 2.546875 -4.320312 C 2.777344 -4.320312 2.828125 -3.84375 2.867188 -3.6875 C 2.855469 -3.714844 2.738281 -4.085938 2.726562 -4.074219 C 2.660156 -4.023438 2.917969 -3.316406 2.917969 -3.214844 C 2.917969 -3.109375 2.917969 -3.109375 2.855469 -3.007812 Z M 3.148438 -2.378906 C 3.148438 -2.378906 3.1875 -2.558594 3.199219 -2.597656 L 3.265625 -2.6875 Z M 2.957031 -3.175781 L 2.957031 -3.304688 C 2.996094 -3.253906 2.996094 -3.214844 2.957031 -3.175781 Z M 2.957031 -3.175781 "/></g></g><g transform="translate(77.587991, 22.911528)"><g/></g></g><g fill="#000000" fill-opacity="1"><g transform="translate(81.187368, 22.911528)"><g><path d="M 8.535156 -9.0625 C 8.484375 -9.488281 8.316406 -10.179688 7.777344 -10.179688 C 7.367188 -10.179688 6.863281 -9.550781 6.609375 -9.28125 C 5.976562 -8.625 5.398438 -7.894531 4.847656 -7.148438 C 3.675781 -5.566406 2.609375 -3.855469 1.800781 -2.058594 C 2.183594 -3.1875 2.507812 -4.359375 2.945312 -5.464844 C 2.957031 -5.515625 3.804688 -7.519531 3.996094 -7.855469 C 3.871094 -7.648438 3.484375 -6.824219 3.304688 -6.453125 C 3.636719 -7.199219 3.996094 -7.945312 4.371094 -8.664062 C 4.332031 -8.585938 4.28125 -8.457031 4.292969 -8.457031 C 4.34375 -8.445312 4.613281 -8.972656 4.578125 -8.984375 L 4.523438 -8.945312 C 4.601562 -9.0625 4.652344 -9.128906 4.589844 -9.308594 C 4.5 -9.527344 4.253906 -9.78125 4.023438 -9.820312 C 3.675781 -9.871094 3.445312 -9.539062 3.304688 -9.269531 C 3.226562 -9.113281 3.085938 -9.023438 2.980469 -8.84375 C 2.816406 -8.574219 2.699219 -8.277344 2.582031 -7.984375 C 2.519531 -7.855469 1.824219 -6.222656 1.863281 -6.207031 L 1.902344 -6.261719 C 1.851562 -6.144531 1.824219 -6.015625 1.773438 -5.902344 C 1.761719 -5.914062 1.8125 -6.003906 1.785156 -6.015625 C 1.671875 -6.042969 1.296875 -4.871094 1.285156 -4.78125 C 1.234375 -4.511719 1.167969 -4.269531 1.078125 -4.011719 C 1.015625 -3.84375 0.953125 -3.675781 0.914062 -3.496094 C 0.914062 -3.484375 0.859375 -3.214844 0.886719 -3.226562 L 0.886719 -3.164062 C 0.875 -3.175781 0.875 -3.199219 0.875 -3.214844 C 0.835938 -3.199219 0.769531 -2.777344 0.757812 -2.738281 C 0.667969 -2.519531 0.566406 -2.3125 0.5 -2.082031 C 0.320312 -1.453125 0.246094 -0.808594 0.152344 -0.167969 C 0.0898438 0.246094 -0.140625 0.976562 0.117188 1.351562 C 0.296875 1.605469 0.914062 1.851562 1.15625 1.53125 C 1.261719 1.414062 1.234375 1.195312 1.261719 1.078125 C 1.335938 0.4375 1.503906 -0.0898438 1.75 -0.695312 C 2.25 -1.929688 2.867188 -3.125 3.5625 -4.269531 C 4.140625 -5.195312 4.679688 -6.15625 5.359375 -7.019531 C 5.785156 -7.558594 6.207031 -8.097656 6.671875 -8.601562 C 6.773438 -8.714844 7.222656 -9.269531 7.429688 -9.191406 C 7.6875 -9.101562 7.441406 -8.214844 7.40625 -8.035156 C 7.261719 -7.390625 7.082031 -6.75 6.863281 -6.117188 C 6.503906 -5.089844 6.171875 -4.035156 5.734375 -3.058594 C 5.449219 -2.429688 5.128906 -1.8125 4.792969 -1.222656 C 4.511719 -0.746094 4.113281 0.078125 3.507812 0.230469 C 2.816406 0.398438 2.351562 -0.628906 2.121094 -1.132812 C 2.121094 -0.21875 2.660156 0.734375 3.636719 0.898438 C 4.628906 1.066406 5.476562 0.0273438 5.976562 -0.679688 C 6.375 -1.234375 6.734375 -1.851562 7.019531 -2.46875 C 7.082031 -2.621094 7.097656 -2.777344 7.132812 -2.917969 C 7.199219 -3.164062 7.378906 -3.394531 7.480469 -3.625 C 7.765625 -4.269531 8.007812 -4.898438 8.203125 -5.566406 C 8.304688 -5.886719 8.394531 -6.207031 8.457031 -6.542969 C 8.484375 -6.671875 8.511719 -6.824219 8.523438 -6.953125 C 8.523438 -7.03125 8.472656 -7.148438 8.472656 -7.171875 C 8.457031 -7.480469 8.5625 -7.804688 8.574219 -8.125 C 8.585938 -8.433594 8.574219 -8.753906 8.535156 -9.0625 Z M 1.566406 -4.488281 C 1.605469 -4.792969 1.761719 -5.128906 1.875 -5.425781 C 2.019531 -5.808594 2.160156 -6.171875 2.351562 -6.542969 C 2.597656 -7.03125 2.828125 -7.53125 3.109375 -8.007812 C 3.085938 -7.945312 3.074219 -7.816406 3.035156 -7.738281 C 2.980469 -7.621094 2.90625 -7.507812 2.855469 -7.378906 C 2.726562 -7.097656 2.609375 -6.8125 2.46875 -6.53125 C 2.289062 -6.15625 2.121094 -5.796875 1.96875 -5.425781 C 1.875 -5.21875 1.8125 -5.011719 1.734375 -4.808594 C 1.695312 -4.679688 1.660156 -4.410156 1.582031 -4.320312 C 1.554688 -4.292969 1.566406 -4.488281 1.566406 -4.488281 Z M 5.617188 -2.082031 C 5.578125 -2.019531 5.539062 -1.953125 5.515625 -1.890625 L 5.449219 -1.761719 C 5.4375 -1.761719 5.4375 -1.75 5.4375 -1.734375 C 5.195312 -1.285156 4.921875 -0.824219 4.640625 -0.410156 C 4.601562 -0.359375 3.792969 0.667969 3.675781 0.398438 C 3.664062 0.359375 3.933594 0.308594 3.945312 0.296875 C 4.125 0.207031 4.28125 0.0117188 4.410156 -0.140625 C 4.71875 -0.539062 4.988281 -0.988281 5.230469 -1.425781 C 5.4375 -1.785156 5.628906 -2.148438 5.796875 -2.507812 L 5.695312 -2.261719 C 5.746094 -2.367188 5.785156 -2.46875 5.824219 -2.570312 L 5.902344 -2.75 L 5.886719 -2.6875 C 5.914062 -2.75 5.9375 -2.828125 5.976562 -2.890625 L 5.976562 -2.90625 C 6.042969 -3.035156 6.09375 -3.136719 6.105469 -3.136719 C 6.105469 -3.125 5.667969 -2.171875 5.617188 -2.09375 Z M 6.554688 -3.457031 C 6.492188 -3.199219 6.402344 -2.945312 6.285156 -2.710938 C 6.183594 -2.519531 6.003906 -2.328125 5.9375 -2.121094 C 6.09375 -2.582031 6.363281 -3.007812 6.554688 -3.472656 Z M 1.761719 -4.203125 C 1.660156 -4.035156 1.695312 -3.84375 1.644531 -3.675781 C 1.605469 -3.597656 1.464844 -3.445312 1.441406 -3.34375 C 1.441406 -3.417969 1.464844 -3.523438 1.476562 -3.585938 C 1.492188 -3.714844 1.554688 -3.765625 1.621094 -3.871094 C 1.671875 -3.945312 1.695312 -4.203125 1.800781 -4.242188 Z M 4.652344 -0.371094 C 4.832031 -0.644531 5.011719 -0.925781 5.179688 -1.234375 C 5.011719 -0.914062 4.847656 -0.628906 4.652344 -0.371094 Z M 3.289062 -8.328125 C 3.34375 -8.304688 3.328125 -8.277344 3.265625 -8.214844 C 3.238281 -8.238281 3.238281 -8.277344 3.289062 -8.328125 Z M 2.980469 -5.695312 L 2.980469 -5.683594 L 2.777344 -5.195312 L 3.109375 -6.015625 C 3.074219 -5.902344 3.035156 -5.796875 2.980469 -5.695312 Z M 5.296875 -1.464844 C 5.296875 -1.441406 5.285156 -1.425781 5.269531 -1.402344 Z M 5.835938 -2.597656 C 5.835938 -2.582031 5.835938 -2.582031 5.824219 -2.570312 C 5.824219 -2.582031 5.835938 -2.582031 5.835938 -2.597656 Z M 5.835938 -2.597656 "/></g></g></g><g fill="#000000" fill-opacity="1"><g transform="translate(89.003157, 22.911528)"><g><path d="M 5.914062 -3.199219 C 5.914062 -3.199219 5.925781 -3.1875 5.914062 -3.214844 C 5.847656 -3.304688 5.757812 -3.238281 5.667969 -3.214844 C 5.296875 -3.136719 4.910156 -3.046875 4.523438 -2.980469 C 4.667969 -3.445312 4.808594 -3.933594 4.859375 -4.410156 C 4.886719 -4.589844 4.898438 -4.78125 4.859375 -4.960938 C 4.832031 -5.078125 4.792969 -5.195312 4.730469 -5.296875 C 4.730469 -5.296875 4.578125 -5.488281 4.613281 -5.386719 L 4.601562 -5.398438 L 4.550781 -5.5 L 4.601562 -5.449219 C 4.613281 -5.527344 4.394531 -5.667969 4.394531 -5.667969 C 4.074219 -5.992188 3.636719 -6.234375 3.199219 -5.992188 C 2.929688 -5.835938 2.710938 -5.578125 2.53125 -5.320312 C 2.46875 -5.230469 2.402344 -5.128906 2.351562 -5.027344 C 2.300781 -4.921875 2.222656 -4.589844 2.148438 -4.539062 C 2.082031 -4.488281 1.890625 -4.472656 1.800781 -4.421875 C 1.671875 -4.371094 1.554688 -4.304688 1.453125 -4.230469 C 1.207031 -4.074219 1.015625 -3.855469 0.835938 -3.636719 C 0.527344 -3.226562 0.371094 -2.765625 0.152344 -2.351562 C -0.257812 -1.566406 0.191406 -0.539062 0.953125 -0.167969 C 1.195312 -0.0507812 1.476562 0 1.734375 -0.0273438 C 2.003906 -0.0625 2.261719 -0.207031 2.46875 -0.359375 C 2.660156 -0.5 3.085938 -0.757812 3.164062 -0.976562 C 3.164062 -0.988281 3.136719 -0.976562 3.097656 -0.9375 L 3.472656 -1.375 C 3.484375 -1.363281 3.378906 -1.234375 3.378906 -1.234375 C 3.472656 -1.195312 3.933594 -1.875 3.984375 -1.929688 C 4.074219 -2.082031 4.164062 -2.25 4.269531 -2.402344 C 4.359375 -2.519531 4.332031 -2.507812 4.460938 -2.558594 C 4.449219 -2.546875 4.613281 -2.597656 4.640625 -2.597656 C 4.78125 -2.621094 6.285156 -2.726562 5.914062 -3.199219 Z M 1.464844 -0.605469 L 1.453125 -0.605469 C 0.386719 -0.449219 1.621094 -2.710938 1.644531 -2.839844 L 1.566406 -2.726562 C 1.761719 -3.109375 1.941406 -3.417969 2.03125 -3.523438 C 2.171875 -2.878906 2.867188 -2.636719 3.433594 -2.558594 C 3.058594 -1.8125 2.367188 -0.769531 1.464844 -0.605469 Z M 3.996094 -4.164062 C 3.90625 -3.804688 3.832031 -3.328125 3.636719 -3.007812 C 3.574219 -2.878906 3.613281 -2.917969 3.484375 -2.890625 C 3.40625 -2.867188 3.238281 -2.890625 3.164062 -2.90625 C 3.019531 -2.917969 2.855469 -2.945312 2.75 -3.035156 C 2.570312 -3.1875 2.597656 -3.433594 2.621094 -3.652344 C 2.648438 -3.871094 2.710938 -4.074219 2.789062 -4.28125 C 2.828125 -4.359375 3.074219 -4.769531 3.035156 -4.847656 C 3.019531 -4.886719 2.878906 -4.652344 2.867188 -4.640625 C 2.945312 -4.78125 3.019531 -4.859375 3.085938 -4.949219 C 3.074219 -4.949219 3.085938 -4.960938 3.097656 -4.988281 L 3.097656 -4.976562 L 3.109375 -5 C 3.109375 -5 3.109375 -5.011719 3.125 -5.011719 C 3.316406 -5.269531 3.792969 -5.847656 4.050781 -5.449219 C 4.242188 -5.117188 4.0625 -4.488281 3.996094 -4.164062 Z M 3.109375 -5 L 3.125 -5.011719 C 3.125 -5 3.109375 -5 3.109375 -5 Z M 3.109375 -5 "/></g></g></g><g fill="#000000" fill-opacity="1"><g transform="translate(94.029429, 22.911528)"><g><path d="M 4.652344 -2.378906 C 4.769531 -2.546875 5.230469 -3.035156 5.039062 -3.253906 C 4.78125 -3.507812 4.113281 -2.441406 4.011719 -2.3125 C 3.804688 -2.042969 3.585938 -1.785156 3.378906 -1.53125 C 3.265625 -1.386719 3.148438 -1.246094 3.019531 -1.117188 C 2.996094 -1.09375 2.75 -0.785156 2.777344 -0.785156 C 2.816406 -0.796875 2.855469 -0.824219 2.890625 -0.847656 C 2.671875 -0.617188 2.378906 -0.410156 2.109375 -0.207031 C 1.929688 -0.078125 1.582031 0.207031 1.363281 0.0507812 C 1.273438 0 1.246094 -0.128906 1.222656 -0.21875 C 1.132812 -0.617188 1.195312 -1.09375 1.261719 -1.503906 C 1.402344 -2.367188 1.683594 -3.214844 2.03125 -4.023438 C 2.199219 -4.394531 2.367188 -4.769531 2.660156 -5.050781 C 2.6875 -5.078125 2.738281 -5.027344 2.75 -5.039062 C 2.777344 -5.050781 2.671875 -5.089844 2.660156 -5.078125 C 2.519531 -5 2.429688 -4.847656 2.351562 -4.703125 C 2.121094 -4.332031 1.941406 -3.921875 1.785156 -3.507812 C 1.902344 -3.832031 2.03125 -4.152344 2.183594 -4.472656 C 2.273438 -4.640625 2.378906 -4.910156 2.546875 -5.039062 C 2.980469 -5.386719 2.816406 -4.242188 2.765625 -4.074219 C 2.765625 -4.085938 2.816406 -4.371094 2.800781 -4.371094 C 2.777344 -4.371094 2.597656 -3.714844 2.597656 -3.714844 L 2.660156 -3.765625 C 2.597656 -3.664062 2.46875 -3.585938 2.636719 -3.472656 C 2.839844 -3.328125 3.238281 -3.574219 3.328125 -3.753906 C 3.417969 -3.945312 3.445312 -4.203125 3.457031 -4.394531 C 3.484375 -4.730469 3.394531 -4.921875 3.277344 -5.179688 C 3.148438 -5.449219 3.035156 -5.617188 2.6875 -5.667969 C 2.402344 -5.707031 2.148438 -5.59375 1.929688 -5.425781 C 1.605469 -5.195312 1.363281 -4.898438 1.15625 -4.5625 C 1.105469 -4.472656 0.644531 -3.535156 0.65625 -3.523438 L 0.707031 -3.585938 C 0.644531 -3.445312 0.605469 -3.304688 0.554688 -3.175781 C 0.539062 -3.175781 0.578125 -3.289062 0.566406 -3.289062 C 0.488281 -3.304688 0.257812 -2.597656 0.246094 -2.53125 C 0.152344 -2.261719 0.0898438 -1.992188 0.078125 -1.710938 C 0.0625 -1.402344 0.0117188 -1.09375 0 -0.769531 C 0 -0.605469 0 -0.425781 0.0273438 -0.257812 C 0.0273438 -0.207031 0.128906 0.0625 0.128906 -0.0117188 L 0.191406 0.207031 C 0.179688 0.191406 0.128906 0.0625 0.128906 0.0625 C 0.0625 0.140625 0.410156 0.644531 0.488281 0.71875 C 0.589844 0.835938 0.746094 0.886719 0.898438 0.914062 C 1.414062 0.976562 1.902344 0.679688 2.273438 0.371094 C 2.917969 -0.167969 3.546875 -0.835938 4.023438 -1.53125 C 4.214844 -1.824219 4.433594 -2.09375 4.652344 -2.378906 Z M 0.886719 -3.316406 C 0.859375 -3.1875 0.824219 -3.046875 0.769531 -2.929688 C 0.734375 -2.839844 0.617188 -2.765625 0.605469 -2.699219 C 0.628906 -2.917969 0.796875 -3.136719 0.898438 -3.378906 C 0.898438 -3.355469 0.886719 -3.328125 0.886719 -3.316406 Z M 0.410156 -1.8125 C 0.359375 -1.722656 0.359375 -1.554688 0.359375 -1.414062 C 0.347656 -1.566406 0.347656 -1.734375 0.398438 -1.890625 C 0.398438 -1.890625 0.4375 -1.839844 0.410156 -1.8125 Z M 1.335938 -2.121094 C 1.386719 -2.328125 1.453125 -2.53125 1.515625 -2.738281 Z M 0.4375 -2.058594 C 0.425781 -2.019531 0.398438 -1.96875 0.398438 -1.941406 C 0.398438 -2.003906 0.398438 -2.070312 0.460938 -2.09375 Z M 1.566406 -2.890625 C 1.554688 -2.878906 1.554688 -2.878906 1.554688 -2.867188 C 1.554688 -2.890625 1.554688 -2.917969 1.566406 -2.945312 Z M 1.566406 -2.890625 "/></g></g></g><g fill="#000000" fill-opacity="1"><g transform="translate(98.168715, 22.911528)"><g><path d="M 5.21875 -6.683594 C 5.207031 -6.863281 5.011719 -6.722656 4.910156 -6.722656 C 4.394531 -6.699219 3.882812 -6.699219 3.378906 -6.671875 C 3.378906 -6.683594 3.40625 -6.734375 3.445312 -6.8125 C 3.394531 -6.722656 3.355469 -6.671875 3.316406 -6.671875 C 3.703125 -7.457031 4.113281 -8.238281 4.601562 -8.960938 C 4.589844 -8.933594 4.394531 -8.613281 4.410156 -8.613281 C 4.449219 -8.601562 4.921875 -9.253906 4.9375 -9.34375 C 4.9375 -9.398438 4.820312 -9.269531 4.820312 -9.28125 C 4.898438 -9.359375 5.027344 -9.421875 5.066406 -9.527344 C 5.15625 -9.78125 4.886719 -9.898438 4.691406 -9.9375 C 4.292969 -10.015625 3.84375 -9.960938 3.585938 -9.628906 C 3.34375 -9.332031 3.164062 -8.984375 3.007812 -8.636719 C 2.929688 -8.484375 2.828125 -8.445312 2.726562 -8.304688 C 2.570312 -8.085938 2.46875 -7.828125 2.351562 -7.585938 C 2.25 -7.367188 2.148438 -7.132812 2.058594 -6.902344 C 2.003906 -6.789062 2.003906 -6.699219 1.890625 -6.660156 C 1.773438 -6.609375 1.554688 -6.644531 1.425781 -6.632812 C 0.925781 -6.570312 0.4375 -6.59375 -0.0625 -6.542969 C -0.320312 -6.53125 -0.578125 -6.53125 -0.824219 -6.441406 C -0.875 -6.425781 -1.15625 -6.363281 -1.183594 -6.324219 C -1.261719 -6.183594 -0.953125 -6.171875 -0.886719 -6.15625 C -0.398438 -6.09375 0.21875 -6.042969 0.707031 -6.132812 C 1.042969 -6.195312 1.386719 -6.171875 1.75 -6.195312 C 1.566406 -5.808594 1.425781 -5.398438 1.285156 -4.988281 L 1.132812 -4.539062 C 1.078125 -4.394531 0.914062 -4.125 0.914062 -3.972656 C 0.914062 -3.945312 0.953125 -4.011719 0.976562 -4.074219 C 0.914062 -3.882812 0.835938 -3.6875 0.785156 -3.496094 C 0.785156 -3.507812 0.824219 -3.664062 0.808594 -3.664062 C 0.746094 -3.664062 0.488281 -2.878906 0.460938 -2.816406 C 0.335938 -2.429688 0.191406 -2.042969 0.128906 -1.632812 C 0.0507812 -1.222656 -0.0507812 -0.824219 -0.140625 -0.425781 C -0.191406 -0.21875 -0.246094 -0.0273438 -0.269531 0.179688 C -0.296875 0.28125 -0.320312 0.398438 -0.320312 0.5 C -0.320312 0.527344 -0.320312 0.695312 -0.296875 0.644531 L -0.320312 0.898438 L -0.320312 0.707031 C -0.398438 0.796875 -0.320312 1.207031 -0.308594 1.285156 C -0.257812 1.542969 -0.128906 1.773438 0.101562 1.929688 C 0.308594 2.082031 0.628906 2.222656 0.875 2.109375 C 1.195312 1.953125 1.464844 1.59375 1.671875 1.335938 C 2.121094 0.808594 2.53125 0.257812 2.945312 -0.296875 C 3.316406 -0.808594 3.703125 -1.3125 4.023438 -1.851562 C 4.203125 -2.160156 4.550781 -2.441406 4.667969 -2.789062 C 4.730469 -2.957031 4.691406 -3.164062 4.488281 -3.125 C 4.320312 -3.085938 4.085938 -2.636719 3.984375 -2.507812 C 3.523438 -1.929688 3.085938 -1.335938 2.621094 -0.757812 L 1.875 0.152344 C 1.761719 0.28125 1.644531 0.425781 1.515625 0.554688 C 1.464844 0.617188 1.144531 0.875 1.15625 0.953125 C 1.15625 0.976562 1.296875 0.859375 1.351562 0.824219 C 1.285156 0.898438 1.207031 0.964844 1.144531 1.027344 C 1.15625 1.015625 0.886719 1.167969 0.847656 1.144531 C 0.605469 1.042969 0.824219 0.296875 0.859375 0.117188 C 1.09375 -0.925781 1.441406 -1.980469 1.785156 -2.980469 C 1.992188 -3.535156 2.199219 -4.0625 2.429688 -4.601562 C 2.546875 -4.871094 2.660156 -5.15625 2.789062 -5.425781 L 2.96875 -5.914062 L 2.828125 -5.628906 C 2.917969 -5.863281 3.046875 -6.207031 3.125 -6.222656 L 3.085938 -6.144531 C 3.109375 -6.183594 3.136719 -6.207031 3.164062 -6.222656 C 3.304688 -6.3125 3.664062 -6.222656 3.832031 -6.222656 C 3.945312 -6.222656 4.085938 -6.207031 4.203125 -6.246094 C 4.28125 -6.273438 4.253906 -6.3125 4.34375 -6.335938 C 4.5 -6.363281 4.691406 -6.261719 4.859375 -6.3125 C 5.011719 -6.351562 5.230469 -6.492188 5.21875 -6.671875 Z M 2.777344 -5.9375 C 2.199219 -4.71875 1.761719 -3.40625 1.296875 -2.132812 C 1.078125 -1.554688 0.875 -0.953125 0.734375 -0.347656 L 0.667969 -0.101562 C 0.757812 -0.566406 0.859375 -1.015625 0.988281 -1.464844 C 1.273438 -2.457031 1.632812 -3.433594 2.058594 -4.371094 C 2.777344 -5.976562 3.417969 -7.699219 4.449219 -9.152344 C 3.753906 -8.164062 3.289062 -7.03125 2.777344 -5.9375 Z M 3.625 -7.210938 L 3.933594 -7.804688 C 3.871094 -7.789062 3.753906 -7.507812 3.625 -7.210938 Z M 2.300781 -4.410156 C 2.210938 -4.164062 2.109375 -3.933594 2.003906 -3.703125 C 2.109375 -3.945312 2.199219 -4.203125 2.3125 -4.460938 C 2.300781 -4.433594 2.300781 -4.421875 2.300781 -4.410156 Z M 3.457031 -6.839844 L 3.585938 -7.121094 C 3.546875 -7.019531 3.496094 -6.914062 3.457031 -6.839844 Z M 0.65625 1.261719 C 0.644531 1.261719 0.628906 1.246094 0.617188 1.234375 Z M 0.65625 1.261719 "/></g></g></g><g fill="#000000" fill-opacity="1"><g transform="translate(102.115171, 22.911528)"><g><path d="M 5.914062 -3.199219 C 5.914062 -3.199219 5.925781 -3.1875 5.914062 -3.214844 C 5.847656 -3.304688 5.757812 -3.238281 5.667969 -3.214844 C 5.296875 -3.136719 4.910156 -3.046875 4.523438 -2.980469 C 4.667969 -3.445312 4.808594 -3.933594 4.859375 -4.410156 C 4.886719 -4.589844 4.898438 -4.78125 4.859375 -4.960938 C 4.832031 -5.078125 4.792969 -5.195312 4.730469 -5.296875 C 4.730469 -5.296875 4.578125 -5.488281 4.613281 -5.386719 L 4.601562 -5.398438 L 4.550781 -5.5 L 4.601562 -5.449219 C 4.613281 -5.527344 4.394531 -5.667969 4.394531 -5.667969 C 4.074219 -5.992188 3.636719 -6.234375 3.199219 -5.992188 C 2.929688 -5.835938 2.710938 -5.578125 2.53125 -5.320312 C 2.46875 -5.230469 2.402344 -5.128906 2.351562 -5.027344 C 2.300781 -4.921875 2.222656 -4.589844 2.148438 -4.539062 C 2.082031 -4.488281 1.890625 -4.472656 1.800781 -4.421875 C 1.671875 -4.371094 1.554688 -4.304688 1.453125 -4.230469 C 1.207031 -4.074219 1.015625 -3.855469 0.835938 -3.636719 C 0.527344 -3.226562 0.371094 -2.765625 0.152344 -2.351562 C -0.257812 -1.566406 0.191406 -0.539062 0.953125 -0.167969 C 1.195312 -0.0507812 1.476562 0 1.734375 -0.0273438 C 2.003906 -0.0625 2.261719 -0.207031 2.46875 -0.359375 C 2.660156 -0.5 3.085938 -0.757812 3.164062 -0.976562 C 3.164062 -0.988281 3.136719 -0.976562 3.097656 -0.9375 L 3.472656 -1.375 C 3.484375 -1.363281 3.378906 -1.234375 3.378906 -1.234375 C 3.472656 -1.195312 3.933594 -1.875 3.984375 -1.929688 C 4.074219 -2.082031 4.164062 -2.25 4.269531 -2.402344 C 4.359375 -2.519531 4.332031 -2.507812 4.460938 -2.558594 C 4.449219 -2.546875 4.613281 -2.597656 4.640625 -2.597656 C 4.78125 -2.621094 6.285156 -2.726562 5.914062 -3.199219 Z M 1.464844 -0.605469 L 1.453125 -0.605469 C 0.386719 -0.449219 1.621094 -2.710938 1.644531 -2.839844 L 1.566406 -2.726562 C 1.761719 -3.109375 1.941406 -3.417969 2.03125 -3.523438 C 2.171875 -2.878906 2.867188 -2.636719 3.433594 -2.558594 C 3.058594 -1.8125 2.367188 -0.769531 1.464844 -0.605469 Z M 3.996094 -4.164062 C 3.90625 -3.804688 3.832031 -3.328125 3.636719 -3.007812 C 3.574219 -2.878906 3.613281 -2.917969 3.484375 -2.890625 C 3.40625 -2.867188 3.238281 -2.890625 3.164062 -2.90625 C 3.019531 -2.917969 2.855469 -2.945312 2.75 -3.035156 C 2.570312 -3.1875 2.597656 -3.433594 2.621094 -3.652344 C 2.648438 -3.871094 2.710938 -4.074219 2.789062 -4.28125 C 2.828125 -4.359375 3.074219 -4.769531 3.035156 -4.847656 C 3.019531 -4.886719 2.878906 -4.652344 2.867188 -4.640625 C 2.945312 -4.78125 3.019531 -4.859375 3.085938 -4.949219 C 3.074219 -4.949219 3.085938 -4.960938 3.097656 -4.988281 L 3.097656 -4.976562 L 3.109375 -5 C 3.109375 -5 3.109375 -5.011719 3.125 -5.011719 C 3.316406 -5.269531 3.792969 -5.847656 4.050781 -5.449219 C 4.242188 -5.117188 4.0625 -4.488281 3.996094 -4.164062 Z M 3.109375 -5 L 3.125 -5.011719 C 3.125 -5 3.109375 -5 3.109375 -5 Z M 3.109375 -5 "/></g></g></g><g fill="#000000" fill-opacity="1"><g transform="translate(107.141444, 22.911528)"><g><path d="M 5.269531 -3.125 C 5.195312 -3.457031 4.886719 -3.007812 4.820312 -2.929688 L 4.113281 -1.980469 L 3.417969 -1.066406 L 3.046875 -0.589844 C 3.007812 -0.539062 2.726562 -0.179688 2.75 -0.179688 C 2.777344 -0.207031 2.816406 -0.207031 2.855469 -0.246094 C 2.660156 -0.0390625 1.953125 0.605469 1.824219 0.449219 C 1.722656 0.320312 2.003906 -0.21875 2.042969 -0.347656 C 2.183594 -0.71875 2.3125 -1.105469 2.46875 -1.464844 C 2.636719 -1.839844 2.828125 -2.210938 2.980469 -2.582031 C 3.136719 -2.980469 2.90625 -3.125 2.53125 -3.214844 C 2.367188 -3.253906 2.160156 -3.253906 1.96875 -3.277344 C 1.96875 -3.265625 1.980469 -3.265625 1.980469 -3.265625 C 2.148438 -3.238281 2.390625 -3.226562 2.597656 -3.164062 C 2.289062 -3.253906 1.902344 -3.214844 1.660156 -3.277344 C 1.492188 -3.316406 1.386719 -3.316406 1.414062 -3.507812 C 1.441406 -3.765625 1.710938 -4.035156 1.800781 -4.28125 C 1.800781 -4.269531 1.710938 -4.035156 1.722656 -4.035156 C 1.785156 -4.011719 1.890625 -4.371094 1.890625 -4.421875 C 1.875 -4.488281 1.722656 -4.679688 1.710938 -4.601562 L 1.734375 -4.5625 C 1.117188 -4.988281 0.386719 -4.113281 0.515625 -3.484375 C 0.539062 -3.394531 0.589844 -3.34375 0.628906 -3.238281 C 0.65625 -3.164062 0.628906 -3.074219 0.707031 -2.96875 C 0.976562 -2.636719 1.464844 -2.621094 1.851562 -2.699219 C 1.785156 -2.609375 1.105469 -1.167969 1.144531 -1.15625 L 1.054688 -0.835938 C 1.042969 -0.847656 1.09375 -0.953125 1.066406 -0.953125 C 0.976562 -0.964844 0.796875 -0.21875 0.785156 -0.152344 C 0.734375 0.152344 0.746094 0.425781 0.875 0.707031 C 0.953125 0.886719 1.042969 1.042969 1.207031 1.144531 C 1.363281 1.246094 1.554688 1.296875 1.734375 1.261719 C 1.800781 1.234375 2.042969 1.066406 1.980469 1.078125 L 2.070312 1.042969 C 2.058594 1.054688 2.042969 1.066406 2.042969 1.078125 C 2.082031 1.09375 2.671875 0.617188 2.75 0.566406 C 3.164062 0.21875 3.496094 -0.207031 3.804688 -0.628906 C 4.113281 -1.066406 4.433594 -1.503906 4.730469 -1.941406 C 4.871094 -2.148438 5 -2.351562 5.101562 -2.570312 C 5.179688 -2.726562 5.308594 -2.945312 5.269531 -3.125 Z M 1.425781 -1.582031 C 1.515625 -1.8125 1.621094 -2.03125 1.734375 -2.25 C 1.761719 -2.289062 1.941406 -2.75 2.03125 -2.777344 C 1.96875 -2.738281 1.695312 -2.109375 1.632812 -1.992188 L 1.386719 -1.425781 C 1.261719 -1.117188 1.117188 -0.796875 1.027344 -0.460938 C 1.117188 -0.847656 1.273438 -1.222656 1.425781 -1.582031 Z M 1.117188 0.886719 C 1.195312 0.988281 1.296875 1.09375 1.441406 1.144531 C 1.324219 1.105469 1.222656 1.042969 1.144531 0.964844 C 1.15625 0.964844 1.15625 0.976562 1.15625 0.988281 C 1.078125 0.886719 0.976562 0.667969 0.964844 0.628906 C 0.925781 0.476562 0.914062 0.296875 0.925781 0.140625 C 0.925781 0.0117188 0.9375 -0.0898438 0.964844 -0.207031 L 0.964844 -0.191406 C 0.9375 -0.0273438 0.925781 0.140625 0.9375 0.320312 L 0.9375 0.386719 C 0.925781 0.371094 0.925781 0.359375 0.925781 0.359375 C 0.925781 0.359375 0.925781 0.371094 0.9375 0.398438 L 0.9375 0.410156 L 0.988281 0.679688 L 0.953125 0.515625 C 0.976562 0.589844 1.042969 0.734375 1.105469 0.875 L 1.09375 0.859375 C 1.09375 0.875 1.105469 0.886719 1.117188 0.898438 Z M 1.476562 -3.355469 C 1.542969 -3.304688 1.660156 -3.289062 1.773438 -3.277344 C 1.671875 -3.289062 1.582031 -3.316406 1.515625 -3.367188 C 1.515625 -3.367188 1.441406 -3.433594 1.425781 -3.457031 C 1.425781 -3.433594 1.453125 -3.367188 1.476562 -3.355469 Z M 2.828125 -2.351562 L 2.558594 -1.785156 L 2.828125 -2.367188 Z M 0.976562 -0.246094 C 0.976562 -0.230469 0.964844 -0.21875 0.964844 -0.207031 L 0.964844 -0.21875 C 0.964844 -0.230469 0.976562 -0.230469 0.976562 -0.246094 Z M 2.839844 -2.390625 L 2.839844 -2.378906 L 2.828125 -2.378906 Z M 2.839844 -2.390625 L 2.839844 -2.378906 L 2.828125 -2.378906 Z M 0.988281 -0.410156 C 0.988281 -0.425781 1.003906 -0.4375 1.003906 -0.460938 C 1.003906 -0.4375 0.988281 -0.425781 0.988281 -0.410156 Z M 1.042969 0.769531 C 1.042969 0.769531 1.054688 0.785156 1.054688 0.796875 C 1.054688 0.785156 1.042969 0.785156 1.042969 0.769531 Z M 1.441406 -3.484375 C 1.425781 -3.484375 1.425781 -3.472656 1.425781 -3.472656 Z M 1.441406 -3.484375 "/></g></g></g></svg>