<svg xmlns="http://www.w3.org/2000/svg" xmlns:xlink="http://www.w3.org/1999/xlink" width="320" zoomAndPan="magnify" viewBox="0 0 240 37.5" height="50" preserveAspectRatio="xMidYMid meet" version="1.0"><defs><g/><clipPath id="911c3be64c"><path d="M 1.578125 0 L 238.421875 0 L 238.421875 37.007812 L 1.578125 37.007812 Z M 1.578125 0 " clip-rule="nonzero"/></clipPath><clipPath id="ecd2cfc3a8"><path d="M 1.578125 21 L 28.964844 21 L 28.964844 35.527344 L 1.578125 35.527344 Z M 1.578125 21 " clip-rule="nonzero"/></clipPath></defs><g clip-path="url(#911c3be64c)"><path fill="#ffffff" d="M 1.578125 0 L 238.421875 0 L 238.421875 44.40625 L 1.578125 44.40625 Z M 1.578125 0 " fill-opacity="1" fill-rule="nonzero"/><path fill="#ffffff" d="M 1.578125 0 L 238.421875 0 L 238.421875 37.007812 L 1.578125 37.007812 Z M 1.578125 0 " fill-opacity="1" fill-rule="nonzero"/><path fill="#ffffff" d="M 1.578125 0 L 238.421875 0 L 238.421875 37.007812 L 1.578125 37.007812 Z M 1.578125 0 " fill-opacity="1" fill-rule="nonzero"/></g><path fill="#003884" d="M 7.71875 13.46875 C 7.71875 13.46875 9.191406 20.878906 15.972656 20.699219 C 21.847656 20.539062 23.679688 13.46875 23.679688 13.46875 " fill-opacity="1" fill-rule="nonzero"/><path fill="#ffffff" d="M 22.386719 14.855469 C 21.929688 14.710938 21.097656 14.3125 20.984375 13.671875 C 20.886719 13.113281 20.800781 12.289062 20.925781 11.917969 C 21.246094 10.984375 22.128906 10.9375 22.753906 10.519531 C 23.78125 9.839844 24.339844 10.1875 24.570312 11.09375 C 24.808594 12.03125 23.910156 15.324219 22.386719 14.855469 " fill-opacity="1" fill-rule="nonzero"/><path fill="#003884" d="M 22.386719 14.855469 L 22.429688 14.730469 C 22.210938 14.660156 21.898438 14.53125 21.632812 14.34375 C 21.503906 14.25 21.382812 14.144531 21.292969 14.027344 C 21.203125 13.910156 21.140625 13.785156 21.117188 13.648438 C 21.054688 13.296875 20.996094 12.835938 20.996094 12.460938 C 20.996094 12.25 21.015625 12.070312 21.054688 11.960938 C 21.128906 11.746094 21.230469 11.585938 21.355469 11.457031 C 21.539062 11.261719 21.78125 11.136719 22.039062 11.019531 C 22.296875 10.902344 22.578125 10.796875 22.828125 10.628906 C 23.1875 10.390625 23.472656 10.292969 23.6875 10.292969 C 23.785156 10.292969 23.867188 10.3125 23.941406 10.347656 C 24.050781 10.398438 24.148438 10.484375 24.234375 10.617188 C 24.320312 10.746094 24.386719 10.917969 24.441406 11.125 C 24.460938 11.210938 24.476562 11.328125 24.476562 11.46875 C 24.476562 11.738281 24.429688 12.085938 24.34375 12.453125 C 24.214844 13.003906 23.992188 13.597656 23.699219 14.042969 C 23.554688 14.265625 23.390625 14.449219 23.21875 14.574219 C 23.046875 14.699219 22.871094 14.769531 22.679688 14.769531 C 22.601562 14.769531 22.515625 14.753906 22.425781 14.730469 L 22.429688 14.730469 L 22.386719 14.855469 L 22.347656 14.980469 C 22.460938 15.015625 22.570312 15.03125 22.679688 15.03125 C 22.851562 15.03125 23.015625 14.992188 23.164062 14.917969 C 23.425781 14.789062 23.648438 14.570312 23.84375 14.300781 C 24.132812 13.898438 24.355469 13.386719 24.507812 12.875 C 24.660156 12.363281 24.742188 11.855469 24.742188 11.46875 C 24.742188 11.3125 24.726562 11.175781 24.699219 11.0625 C 24.621094 10.757812 24.507812 10.507812 24.34375 10.324219 C 24.261719 10.230469 24.164062 10.15625 24.050781 10.105469 C 23.941406 10.054688 23.820312 10.03125 23.6875 10.03125 C 23.394531 10.03125 23.0625 10.15625 22.679688 10.410156 C 22.390625 10.605469 22.015625 10.722656 21.660156 10.910156 C 21.484375 11.003906 21.3125 11.117188 21.160156 11.273438 C 21.011719 11.429688 20.886719 11.625 20.800781 11.878906 C 20.75 12.035156 20.730469 12.234375 20.730469 12.460938 C 20.730469 12.859375 20.789062 13.332031 20.851562 13.691406 C 20.886719 13.878906 20.972656 14.042969 21.082031 14.1875 C 21.25 14.402344 21.476562 14.570312 21.707031 14.703125 C 21.933594 14.832031 22.167969 14.925781 22.347656 14.980469 L 22.386719 14.855469 " fill-opacity="1" fill-rule="nonzero"/><path fill="#ffffff" d="M 9.121094 14.855469 C 9.578125 14.710938 10.410156 14.3125 10.523438 13.671875 C 10.621094 13.113281 10.707031 12.289062 10.582031 11.917969 C 10.261719 10.984375 9.382812 10.9375 8.753906 10.519531 C 7.726562 9.839844 7.167969 10.1875 6.9375 11.09375 C 6.699219 12.03125 7.597656 15.324219 9.121094 14.855469 " fill-opacity="1" fill-rule="nonzero"/><path fill="#003884" d="M 9.121094 14.855469 L 9.160156 14.980469 C 9.402344 14.90625 9.734375 14.765625 10.027344 14.558594 C 10.175781 14.453125 10.316406 14.332031 10.425781 14.1875 C 10.539062 14.042969 10.621094 13.878906 10.65625 13.691406 C 10.71875 13.328125 10.777344 12.859375 10.777344 12.460938 C 10.777344 12.234375 10.757812 12.035156 10.707031 11.878906 C 10.621094 11.625 10.496094 11.429688 10.347656 11.273438 C 10.121094 11.039062 9.847656 10.898438 9.578125 10.777344 C 9.308594 10.660156 9.046875 10.554688 8.828125 10.410156 C 8.445312 10.15625 8.113281 10.03125 7.820312 10.03125 C 7.6875 10.03125 7.566406 10.054688 7.457031 10.105469 C 7.289062 10.183594 7.15625 10.3125 7.050781 10.472656 C 6.945312 10.636719 6.867188 10.835938 6.808594 11.0625 C 6.78125 11.175781 6.765625 11.3125 6.765625 11.46875 C 6.765625 11.765625 6.816406 12.128906 6.902344 12.511719 C 7.039062 13.085938 7.269531 13.703125 7.582031 14.183594 C 7.742188 14.425781 7.921875 14.632812 8.128906 14.785156 C 8.335938 14.9375 8.570312 15.03125 8.828125 15.03125 C 8.9375 15.03125 9.046875 15.015625 9.160156 14.980469 L 9.121094 14.855469 L 9.082031 14.726562 C 8.992188 14.753906 8.90625 14.769531 8.828125 14.769531 C 8.699219 14.769531 8.578125 14.738281 8.460938 14.679688 C 8.253906 14.582031 8.058594 14.394531 7.882812 14.148438 C 7.617188 13.78125 7.402344 13.289062 7.257812 12.800781 C 7.109375 12.308594 7.03125 11.820312 7.03125 11.46875 C 7.03125 11.328125 7.046875 11.210938 7.066406 11.125 C 7.136719 10.847656 7.238281 10.636719 7.363281 10.5 C 7.425781 10.429688 7.492188 10.378906 7.566406 10.347656 C 7.640625 10.3125 7.722656 10.292969 7.820312 10.292969 C 8.035156 10.292969 8.320312 10.390625 8.679688 10.628906 C 9.015625 10.851562 9.398438 10.96875 9.71875 11.140625 C 9.882812 11.226562 10.027344 11.328125 10.152344 11.457031 C 10.277344 11.585938 10.378906 11.746094 10.453125 11.960938 C 10.492188 12.070312 10.511719 12.25 10.511719 12.460938 C 10.511719 12.835938 10.453125 13.296875 10.390625 13.648438 C 10.367188 13.785156 10.304688 13.910156 10.214844 14.027344 C 10.078125 14.203125 9.878906 14.355469 9.667969 14.472656 C 9.460938 14.589844 9.242188 14.679688 9.082031 14.726562 L 9.121094 14.855469 " fill-opacity="1" fill-rule="nonzero"/><g clip-path="url(#ecd2cfc3a8)"><path fill="#003884" d="M 4.578125 24.304688 C 6.464844 22.382812 11.109375 21.6875 11.109375 21.6875 L 19.816406 21.6875 C 19.816406 21.6875 24.765625 22.59375 26.582031 24.304688 C 28.320312 25.945312 28.945312 35.53125 28.945312 35.53125 L 1.597656 35.53125 C 1.597656 35.53125 3.433594 25.472656 4.578125 24.304688 " fill-opacity="1" fill-rule="nonzero"/></g><path fill="#ffffff" d="M 18.515625 19.246094 L 12.535156 19.246094 L 11.113281 22.453125 L 15.527344 27.15625 L 19.9375 22.453125 L 18.515625 19.246094 " fill-opacity="1" fill-rule="nonzero"/><path fill="#003884" d="M 18.515625 19.246094 L 18.515625 19.113281 L 12.445312 19.113281 L 10.957031 22.480469 L 15.527344 27.351562 L 20.09375 22.480469 L 18.601562 19.113281 L 18.515625 19.113281 L 18.515625 19.246094 L 18.390625 19.296875 L 19.78125 22.425781 L 15.527344 26.964844 L 11.273438 22.425781 L 12.621094 19.375 L 18.515625 19.375 L 18.515625 19.246094 L 18.390625 19.296875 L 18.515625 19.246094 " fill-opacity="1" fill-rule="nonzero"/><path fill="#ffffff" d="M 22.253906 15.183594 C 21.535156 18.105469 17.574219 21.167969 15.421875 21.167969 C 13.527344 21.167969 9.65625 17.886719 9.226562 15.253906 C 8.851562 12.972656 8.539062 9.597656 9.007812 8.089844 C 10.203125 4.265625 12.96875 2.367188 15.894531 2.367188 C 18.710938 2.367188 21.121094 4.246094 22.367188 7.84375 C 22.925781 9.457031 22.824219 12.871094 22.253906 15.183594 " fill-opacity="1" fill-rule="nonzero"/><path fill="#003884" d="M 22.253906 15.183594 L 22.125 15.152344 C 21.949219 15.859375 21.574219 16.585938 21.078125 17.273438 C 20.328125 18.304688 19.300781 19.253906 18.265625 19.9375 C 17.75 20.277344 17.226562 20.554688 16.742188 20.746094 C 16.253906 20.933594 15.800781 21.039062 15.421875 21.039062 C 14.988281 21.039062 14.402344 20.84375 13.78125 20.5 C 12.84375 19.984375 11.808594 19.148438 10.976562 18.195312 C 10.140625 17.246094 9.511719 16.179688 9.355469 15.230469 C 9.117188 13.777344 8.90625 11.875 8.90625 10.308594 C 8.902344 9.425781 8.972656 8.648438 9.136719 8.128906 C 9.726562 6.238281 10.703125 4.832031 11.886719 3.898438 C 13.070312 2.960938 14.460938 2.496094 15.894531 2.496094 C 17.273438 2.496094 18.546875 2.957031 19.632812 3.855469 C 20.722656 4.757812 21.625 6.105469 22.242188 7.886719 C 22.484375 8.589844 22.605469 9.679688 22.601562 10.871094 C 22.601562 12.308594 22.433594 13.898438 22.125 15.152344 L 22.382812 15.214844 C 22.699219 13.933594 22.871094 12.332031 22.871094 10.871094 C 22.867188 9.664062 22.753906 8.554688 22.492188 7.800781 C 21.863281 5.984375 20.9375 4.59375 19.804688 3.65625 C 18.671875 2.714844 17.332031 2.234375 15.894531 2.234375 C 14.402344 2.234375 12.949219 2.71875 11.71875 3.691406 C 10.492188 4.664062 9.488281 6.117188 8.882812 8.050781 C 8.707031 8.617188 8.640625 9.410156 8.636719 10.308594 C 8.636719 11.898438 8.855469 13.808594 9.09375 15.273438 C 9.207031 15.957031 9.539062 16.671875 9.996094 17.359375 C 10.6875 18.394531 11.671875 19.371094 12.664062 20.097656 C 13.160156 20.460938 13.660156 20.757812 14.128906 20.96875 C 14.597656 21.179688 15.039062 21.300781 15.421875 21.300781 C 15.992188 21.300781 16.65625 21.101562 17.355469 20.765625 C 18.398438 20.253906 19.515625 19.429688 20.441406 18.449219 C 21.367188 17.472656 22.105469 16.34375 22.382812 15.214844 L 22.253906 15.183594 " fill-opacity="1" fill-rule="nonzero"/><path fill="#003884" d="M 15.984375 12.832031 L 15.753906 16.617188 L 15.273438 16.351562 Z M 15.984375 12.832031 " fill-opacity="1" fill-rule="nonzero"/><path fill="#003884" d="M 19.296875 20.4375 C 19.296875 20.4375 23.425781 19.625 24.28125 22.972656 C 24.914062 25.433594 22.855469 30.199219 22.855469 30.199219 L 22.015625 30.164062 C 22.015625 30.164062 23.40625 24.40625 22.625 22.980469 C 21.949219 21.742188 19.820312 21.683594 19.820312 21.683594 L 19.296875 20.4375 " fill-opacity="1" fill-rule="nonzero"/><path fill="#003884" d="M 5.007812 26.054688 C 5.007812 26.054688 5.929688 23.242188 6.617188 22.523438 C 7.863281 21.226562 11.921875 20.253906 11.921875 20.253906 L 11.542969 21.132812 C 11.542969 21.132812 8.042969 21.882812 7.921875 22.5 C 7.804688 23.113281 10.515625 23.648438 10.515625 23.648438 C 10.515625 23.648438 8.933594 23.6875 8.378906 23.5625 C 7.820312 23.433594 7.304688 23.246094 7.117188 23.246094 C 6.929688 23.246094 6.429688 24.558594 6.429688 24.558594 L 5.007812 26.054688 " fill-opacity="1" fill-rule="nonzero"/><path fill="#ffffff" d="M 9.023438 24.546875 C 10.015625 24.546875 11.292969 24.707031 12.019531 25.472656 C 12.980469 26.476562 14.050781 28.335938 14.894531 30.402344 C 15.292969 31.378906 14.117188 31.867188 14.066406 31.886719 L 14.179688 32.300781 C 14.195312 32.292969 14.640625 32.148438 14.941406 31.851562 C 15.363281 31.445312 15.589844 30.867188 15.375 30.347656 C 14.628906 28.511719 13.425781 26.199219 12.355469 25.078125 C 11.519531 24.203125 9.964844 24.234375 8.910156 24.25 C 8.957031 24.34375 9 24.445312 9.023438 24.546875 " fill-opacity="1" fill-rule="nonzero"/><path fill="#ffffff" d="M 24.109375 32.300781 C 24.109375 33.320312 23.273438 34.148438 22.242188 34.148438 C 21.210938 34.148438 20.378906 33.320312 20.378906 32.300781 C 20.378906 31.28125 21.210938 30.453125 22.242188 30.453125 C 23.273438 30.453125 24.109375 31.28125 24.109375 32.300781 " fill-opacity="1" fill-rule="nonzero"/><path fill="#003884" d="M 23.597656 32.300781 C 23.597656 33.039062 22.988281 33.640625 22.242188 33.640625 C 21.496094 33.640625 20.890625 33.039062 20.890625 32.300781 C 20.890625 31.558594 21.496094 30.960938 22.242188 30.960938 C 22.988281 30.960938 23.597656 31.558594 23.597656 32.300781 " fill-opacity="1" fill-rule="nonzero"/><path fill="#ffffff" d="M 23.039062 32.300781 C 23.039062 32.734375 22.679688 33.085938 22.242188 33.085938 C 21.804688 33.085938 21.449219 32.734375 21.449219 32.300781 C 21.449219 31.863281 21.804688 31.511719 22.242188 31.511719 C 22.679688 31.511719 23.039062 31.863281 23.039062 32.300781 " fill-opacity="1" fill-rule="nonzero"/><path fill="#ffffff" d="M 7.726562 24.003906 L 7.773438 23.992188 C 7.910156 23.96875 11.097656 23.40625 12.5625 24.941406 C 12.886719 25.28125 13.308594 25.894531 13.808594 26.757812 L 12.96875 27.292969 C 12.496094 26.484375 12.015625 25.886719 11.726562 25.582031 C 10.570312 24.371094 8.449219 24.910156 8.050781 24.976562 C 7.6875 25.191406 5.460938 26.308594 5.734375 27.976562 C 5.828125 28.539062 5.984375 29.359375 6.171875 30.144531 L 5.195312 30.308594 C 5.003906 29.507812 4.832031 28.691406 4.738281 28.117188 C 4.378906 25.921875 7.546875 24.105469 7.679688 24.027344 L 7.726562 24.003906 " fill-opacity="1" fill-rule="nonzero"/><path fill="#ffffff" d="M 13.539062 31.738281 L 14.601562 31.535156 L 14.835938 32.019531 L 14.011719 32.699219 C 14.011719 32.699219 13.835938 32.757812 13.609375 32.296875 C 13.382812 31.839844 13.539062 31.738281 13.539062 31.738281 " fill-opacity="1" fill-rule="nonzero"/><path fill="#ffffff" d="M 7.140625 25.300781 C 6.425781 25.980469 5.621094 26.976562 5.632812 28.027344 C 5.648438 29.40625 6.179688 31.484375 7.023438 33.550781 C 7.421875 34.527344 8.609375 34.070312 8.660156 34.046875 L 8.867188 34.425781 C 8.851562 34.429688 8.429688 34.632812 8.003906 34.628906 C 7.417969 34.621094 6.851562 34.363281 6.636719 33.84375 C 5.890625 32.007812 5.132812 29.515625 5.117188 27.972656 C 5.105469 26.769531 6.242188 25.722656 7.015625 25.007812 C 7.046875 25.109375 7.085938 25.210938 7.140625 25.300781 " fill-opacity="1" fill-rule="nonzero"/><path fill="#ffffff" d="M 8.933594 33.578125 L 8.03125 34.164062 L 8.199219 34.671875 L 9.269531 34.597656 C 9.269531 34.597656 9.4375 34.519531 9.277344 34.03125 C 9.117188 33.542969 8.933594 33.578125 8.933594 33.578125 " fill-opacity="1" fill-rule="nonzero"/><path fill="#ffffff" d="M 5.117188 26.402344 C 5.117188 26.402344 6.304688 23.535156 6.992188 22.820312 C 8.238281 21.523438 11.652344 20.695312 11.652344 20.695312 L 11.273438 21.574219 C 11.273438 21.574219 8.148438 22.230469 8.03125 22.84375 C 7.914062 23.460938 10.625 23.992188 10.625 23.992188 C 10.625 23.992188 9.042969 24.03125 8.484375 23.90625 C 7.925781 23.78125 7.414062 23.59375 7.226562 23.59375 C 7.035156 23.59375 6.535156 24.902344 6.535156 24.902344 L 5.117188 26.402344 " fill-opacity="1" fill-rule="nonzero"/><path fill="#ffffff" d="M 19.40625 20.714844 C 19.40625 20.714844 23.039062 20.441406 23.777344 22.605469 C 24.597656 25.011719 22.738281 30.519531 22.738281 30.519531 L 21.898438 30.484375 C 21.898438 30.484375 23.460938 24.246094 22.679688 22.820312 C 22 21.582031 19.816406 21.6875 19.816406 21.6875 L 19.40625 20.714844 " fill-opacity="1" fill-rule="nonzero"/><path fill="#003884" d="M 9.925781 13.410156 C 9.621094 11.171875 10.644531 7.753906 10.644531 7.753906 C 10.644531 7.753906 13.089844 9.554688 16.078125 9.554688 C 19.066406 9.554688 19.613281 7.917969 20.863281 8.808594 C 21.851562 9.511719 21.714844 11.433594 21.597656 13.464844 C 22.015625 13.21875 22.238281 12.894531 22.257812 12.539062 C 22.300781 11.851562 22.449219 11.128906 22.734375 10.738281 C 23.578125 9.578125 24.296875 10.667969 24.570312 11.09375 C 24.570312 2.621094 20.863281 0.214844 15.628906 0.0742188 C 12.875 0.00390625 9.792969 0.28125 8.421875 3.625 C 6.863281 4.589844 6.753906 7.773438 6.9375 11.09375 C 7.316406 10.417969 8.09375 10.429688 8.53125 11.109375 C 8.964844 11.789062 9.351562 13.078125 9.351562 13.078125 C 9.351562 13.078125 9.65625 13.402344 9.925781 13.410156 " fill-opacity="1" fill-rule="nonzero"/><g fill="#000000" fill-opacity="1"><g transform="translate(33.815401, 27.51171)"><g><path d="M 18.988281 -20.527344 C 18.875 -20.414062 18.089844 -20.359375 17.921875 -20.332031 C 17.054688 -20.164062 16.1875 -20.050781 15.347656 -19.941406 C 13.667969 -19.714844 11.902344 -19.742188 10.25 -19.464844 C 10.277344 -20.332031 8.820312 -21.730469 8.175781 -20.667969 C 7.980469 -20.359375 7.925781 -19.941406 7.8125 -19.605469 C 7.703125 -19.238281 7.703125 -19.296875 7.394531 -19.210938 C 7.167969 -19.128906 6.832031 -19.128906 6.609375 -19.128906 C 6.21875 -19.070312 5.851562 -19.070312 5.460938 -19.042969 C 4.957031 -19.015625 4.398438 -19.042969 4.199219 -18.484375 C 3.726562 -17 6.019531 -16.941406 6.890625 -17 C 6.75 -16.605469 6.636719 -16.214844 6.46875 -15.796875 C 6.441406 -15.683594 6.105469 -14.675781 6.160156 -14.675781 L 6.328125 -14.898438 C 5.9375 -13.835938 5.265625 -12.6875 4.789062 -11.566406 C 4.507812 -10.894531 4.285156 -10.25 4.0625 -9.578125 C 3.894531 -9.046875 3.894531 -8.988281 3.332031 -8.851562 L 2.492188 -8.710938 C 2.296875 -8.679688 2.042969 -8.652344 1.875 -8.484375 C 1.148438 -7.703125 2.546875 -7.085938 3.191406 -7.113281 C 3.023438 -6.664062 1.121094 -1.734375 1.09375 -1.734375 C 1.09375 -1.707031 1.289062 -2.101562 1.511719 -2.660156 L 0.617188 -0.390625 C 0.617188 -0.449219 0.644531 -0.503906 0.644531 -0.53125 C 0.53125 -0.53125 0.113281 0.644531 0.195312 0.644531 L 0.308594 0.53125 C 0.167969 0.867188 -0.0546875 0.980469 0 1.457031 C 0.0859375 1.960938 0.421875 2.378906 0.839844 2.660156 C 1.203125 2.914062 1.988281 3.359375 2.4375 3.21875 C 2.855469 3.082031 2.546875 3.109375 2.714844 2.914062 C 3.386719 2.15625 3.527344 0.925781 3.863281 -0.0859375 C 3.949219 -0.363281 5.011719 -3.667969 4.984375 -3.695312 L 4.871094 -3.585938 C 4.957031 -3.808594 5.039062 -4.089844 5.152344 -4.339844 C 5.179688 -4.3125 5.070312 -4.117188 5.125 -4.117188 C 5.292969 -4.089844 5.9375 -6.019531 5.992188 -6.160156 C 6.132812 -6.582031 6.105469 -7.167969 6.300781 -7.5625 C 6.496094 -7.925781 6.777344 -7.898438 7.167969 -7.925781 C 7.535156 -7.953125 7.785156 -8.09375 8.007812 -8.207031 C 8.34375 -8.34375 8.765625 -8.289062 9.101562 -8.375 C 9.550781 -8.484375 9.96875 -8.542969 10.417969 -8.652344 C 10.894531 -8.738281 11.0625 -8.933594 11.398438 -9.019531 C 11.761719 -9.101562 12.769531 -9.046875 12.882812 -9.550781 C 12.996094 -10.082031 12.574219 -9.746094 12.519531 -9.746094 C 11.621094 -9.691406 10.726562 -9.828125 9.828125 -9.746094 C 8.878906 -9.691406 7.953125 -9.605469 7 -9.523438 C 7 -9.550781 7.113281 -10.136719 6.972656 -9.886719 L 7.058594 -10.109375 L 7.058594 -10.027344 C 7.113281 -10.027344 7.449219 -11.117188 7.5625 -11.285156 C 7.953125 -12.015625 8.234375 -12.882812 8.484375 -13.695312 C 8.738281 -14.535156 8.960938 -15.375 9.214844 -16.1875 L 9.4375 -16.804688 C 9.578125 -17.222656 9.492188 -17.167969 9.859375 -17.277344 C 10.195312 -17.363281 10.671875 -17.390625 11.007812 -17.417969 C 12.492188 -17.53125 13.863281 -17.921875 15.347656 -18.316406 C 15.710938 -18.398438 16.355469 -18.539062 16.664062 -18.792969 C 16.941406 -19.015625 16.886719 -19.070312 17.25 -19.183594 C 17.449219 -19.238281 19.464844 -20.246094 18.988281 -20.527344 Z M 5.683594 -7.367188 C 5.320312 -6.21875 4.929688 -5.039062 4.507812 -3.894531 C 4.144531 -2.96875 3.640625 -2.074219 3.304688 -1.148438 C 4.003906 -3.25 4.902344 -5.320312 5.683594 -7.421875 L 5.683594 -7.394531 C 5.65625 -7.28125 5.65625 -7.308594 5.683594 -7.367188 Z M 3.304688 -7.140625 L 2.941406 -6.273438 C 3.050781 -6.609375 3.21875 -7.113281 3.304688 -7.140625 Z M 5.714844 -7.503906 L 5.714844 -7.476562 C 5.683594 -7.449219 5.683594 -7.449219 5.683594 -7.421875 C 5.683594 -7.449219 5.683594 -7.476562 5.714844 -7.503906 Z M 5.714844 -7.503906 C 5.714844 -7.535156 5.714844 -7.5625 5.742188 -7.589844 L 5.742188 -7.5625 C 5.742188 -7.5625 5.714844 -7.535156 5.714844 -7.503906 Z M 5.714844 -7.503906 "/></g></g><g transform="translate(46.025699, 27.51171)"><g><path d="M 7.335938 -6.890625 C 7.28125 -7.253906 6.890625 -7.140625 6.691406 -7 C 6.441406 -6.832031 5.039062 -4.984375 5.152344 -4.84375 C 5.238281 -4.84375 5.292969 -4.84375 5.347656 -4.902344 C 4.957031 -4.425781 4.230469 -3.894531 3.695312 -3.472656 C 3.386719 -3.21875 2.632812 -2.519531 2.183594 -2.746094 C 1.230469 -3.21875 3.164062 -6.582031 3.082031 -6.609375 C 2.996094 -6.636719 2.296875 -5.070312 2.15625 -4.703125 C 2.492188 -5.683594 2.941406 -6.664062 3.472656 -7.535156 C 3.445312 -7.449219 3.359375 -7.308594 3.417969 -7.308594 C 3.472656 -7.28125 3.894531 -7.871094 3.808594 -7.925781 C 3.78125 -7.925781 3.726562 -7.925781 3.695312 -7.898438 C 3.78125 -7.980469 3.921875 -8.007812 3.921875 -8.175781 C 3.921875 -8.457031 3.277344 -8.738281 3.050781 -8.820312 C 2.519531 -9.046875 1.988281 -9.101562 1.566406 -8.820312 C 1.007812 -8.484375 0.894531 -7.8125 0.671875 -7.226562 C 0.617188 -7.058594 0.0859375 -5.070312 0.195312 -5.039062 C 0.253906 -5.070312 0.253906 -5.097656 0.28125 -5.152344 L 0.195312 -4.648438 C 0.167969 -4.648438 0.222656 -4.789062 0.167969 -4.789062 C -0.0546875 -4.789062 0 -3.78125 0.0273438 -3.640625 C 0.140625 -3.136719 0.53125 -2.773438 0.839844 -2.351562 C 1.007812 -2.101562 1.175781 -1.847656 1.429688 -1.679688 C 1.765625 -1.429688 1.539062 -1.679688 1.765625 -1.566406 L 1.707031 -1.566406 C 1.679688 -1.398438 2.746094 -1.121094 2.96875 -1.148438 C 3.949219 -1.371094 4.648438 -2.578125 5.207031 -3.332031 C 5.742188 -4.003906 6.1875 -4.675781 6.664062 -5.378906 C 6.945312 -5.742188 7.449219 -6.355469 7.335938 -6.890625 Z M 2.4375 -10.417969 C 2.492188 -10.332031 2.410156 -10.222656 2.605469 -10.109375 C 2.800781 -10.027344 2.914062 -10.136719 3.082031 -10.195312 C 3.417969 -10.332031 3.667969 -10.699219 3.921875 -10.921875 C 4.003906 -10.976562 3.835938 -10.949219 3.835938 -10.949219 C 4.199219 -11.285156 3.894531 -10.894531 4.230469 -11.089844 C 4.566406 -11.3125 4.621094 -11.679688 4.902344 -11.984375 C 4.566406 -11.847656 4.3125 -11.648438 4.089844 -11.371094 C 3.808594 -11.007812 3.613281 -10.839844 3.304688 -10.640625 C 3.640625 -10.894531 3.808594 -11.144531 4.089844 -11.59375 C 4.171875 -11.679688 4.257812 -11.734375 4.367188 -11.789062 C 4.285156 -11.875 4.285156 -11.957031 4.398438 -12.042969 C 4.480469 -12.183594 4.648438 -12.238281 4.734375 -12.378906 C 4.871094 -12.574219 4.84375 -12.828125 5.011719 -13.023438 C 5.152344 -13.132812 5.347656 -13.21875 5.460938 -13.332031 C 5.714844 -13.554688 5.992188 -13.976562 5.882812 -14.339844 C 5.769531 -14.675781 5.488281 -15.09375 5.179688 -15.289062 C 4.816406 -15.488281 4.3125 -15.570312 3.921875 -15.402344 C 3.835938 -15.375 3.5 -15.289062 3.613281 -15.179688 C 3.640625 -15.121094 3.667969 -15.121094 3.726562 -15.121094 C 3.472656 -14.925781 3.050781 -14.589844 3.640625 -14.367188 C 3.585938 -14.3125 3.640625 -14.058594 3.640625 -14.03125 C 3.613281 -13.835938 3.21875 -12.796875 2.96875 -12.292969 L 3.304688 -12.796875 C 3.109375 -12.378906 2.882812 -11.984375 2.632812 -11.648438 C 2.800781 -12.015625 2.464844 -11.59375 2.464844 -11.511719 C 2.15625 -11.648438 2.242188 -10.78125 2.269531 -10.699219 C 2.269531 -10.671875 2.4375 -10.417969 2.4375 -10.417969 Z M 1.90625 -3.753906 L 1.90625 -3.726562 L 1.847656 -3.558594 L 1.90625 -3.78125 C 1.933594 -3.808594 1.933594 -3.808594 1.90625 -3.753906 Z M 2.828125 -12.070312 C 2.828125 -12.070312 2.882812 -12.125 2.941406 -12.238281 Z M 2.546875 -11.539062 C 2.546875 -11.511719 2.546875 -11.511719 2.519531 -11.480469 C 2.519531 -11.480469 2.519531 -11.511719 2.492188 -11.511719 C 2.519531 -11.511719 2.519531 -11.511719 2.546875 -11.539062 Z M 2.546875 -11.539062 "/></g></g><g transform="translate(51.318696, 27.51171)"><g><path d="M 11.59375 -6.664062 C 11.453125 -7.335938 11.0625 -6.890625 10.894531 -6.636719 C 10.503906 -6.160156 9.886719 -5.714844 9.410156 -5.265625 C 8.765625 -4.703125 8.121094 -4.117188 7.449219 -3.585938 C 7.113281 -3.304688 6.691406 -2.914062 6.273438 -2.773438 C 6.21875 -2.746094 6.019531 -2.714844 6.019531 -2.6875 L 5.992188 -2.714844 C 5.992188 -2.714844 5.964844 -3.164062 5.992188 -3.191406 C 6.019531 -3.558594 6.132812 -3.921875 6.246094 -4.257812 C 6.273438 -4.3125 6.582031 -5.265625 6.523438 -5.265625 L 6.386719 -5.097656 C 6.554688 -5.433594 6.777344 -5.769531 6.972656 -6.132812 C 6.523438 -5.714844 6.21875 -5.238281 5.992188 -4.648438 C 5.882812 -4.367188 5.574219 -3.863281 5.515625 -3.445312 C 5.574219 -4.0625 5.992188 -4.871094 6.1875 -5.238281 C 6.46875 -5.824219 6.777344 -6.496094 7.140625 -7.058594 C 7.8125 -8.066406 9.269531 -8.988281 8.820312 -10.390625 C 8.429688 -11.707031 7.394531 -11.734375 6.582031 -10.976562 C 6.1875 -10.613281 2.855469 -6.355469 2.941406 -6.300781 C 2.941406 -6.300781 3.21875 -6.636719 3.585938 -7.113281 L 1.933594 -4.703125 C 1.90625 -4.703125 2.210938 -5.179688 2.183594 -5.207031 C 2.15625 -5.238281 1.960938 -5.039062 1.933594 -4.929688 C 1.988281 -5.515625 2.183594 -6.105469 2.242188 -6.691406 C 2.269531 -6.917969 2.242188 -7.085938 2.296875 -7.308594 C 2.410156 -7.671875 2.519531 -8.066406 2.6875 -8.375 C 2.800781 -8.597656 3.023438 -8.792969 3.082031 -9.019531 C 3.191406 -9.382812 3.164062 -9.523438 3.417969 -9.828125 C 3.640625 -10.109375 3.976562 -10.390625 4.171875 -10.640625 C 4.648438 -11.34375 3.835938 -11.816406 3.386719 -11.902344 C 3.023438 -11.957031 2.660156 -11.984375 2.324219 -11.789062 C 1.960938 -11.566406 2.042969 -11.371094 1.960938 -11.0625 C 1.875 -10.671875 1.597656 -10.222656 1.457031 -9.859375 C 1.230469 -9.269531 1.035156 -8.679688 0.839844 -8.09375 C 0.617188 -7.503906 0.390625 -6.945312 0.222656 -6.355469 C 0.0859375 -5.882812 0.113281 -5.433594 0.0546875 -4.984375 C 0 -4.480469 -0.0859375 -4.144531 0.167969 -3.695312 C 0.449219 -3.21875 1.203125 -2.492188 1.707031 -3.109375 L 1.820312 -2.882812 C 2.296875 -3.921875 3.023438 -4.84375 3.613281 -5.851562 C 3.863281 -6.300781 4.3125 -6.609375 4.675781 -7.085938 C 5.179688 -7.757812 5.628906 -8.429688 6.1875 -9.074219 C 6.105469 -8.933594 5.742188 -8.289062 5.769531 -8.261719 C 5.824219 -8.289062 5.851562 -8.34375 5.910156 -8.402344 L 5.515625 -7.617188 C 5.488281 -7.644531 5.628906 -7.839844 5.574219 -7.839844 C 5.378906 -7.898438 4.789062 -6.328125 4.734375 -6.1875 C 4.535156 -5.574219 4.507812 -5.011719 4.453125 -4.367188 C 4.425781 -4.0625 4.367188 -3.753906 4.367188 -3.445312 C 4.367188 -3.136719 4.398438 -2.828125 4.535156 -2.519531 C 4.621094 -2.351562 4.734375 -2.128906 4.871094 -1.988281 C 4.902344 -1.988281 5.207031 -1.707031 5.070312 -1.933594 L 5.238281 -1.765625 L 5.152344 -1.820312 C 5.125 -1.679688 6.160156 -1.121094 6.328125 -1.0625 C 7.113281 -0.8125 7.953125 -1.707031 8.457031 -2.242188 C 9.128906 -2.96875 9.691406 -3.808594 10.304688 -4.59375 C 10.640625 -5.039062 11.707031 -5.992188 11.59375 -6.664062 Z M 11.59375 -6.664062 "/></g></g></g><g fill="#000000" fill-opacity="1"><g transform="translate(60.868494, 27.51171)"><g><path d="M 16.550781 -6.832031 L 16.550781 -6.859375 C 16.382812 -7.785156 15.121094 -6.246094 14.953125 -6.105469 C 14.144531 -5.207031 13.386719 -4.230469 12.660156 -3.25 C 11.929688 -2.242188 11.230469 -1.230469 10.472656 -0.222656 C 10.109375 0.28125 9.746094 0.757812 9.324219 1.203125 C 9.1875 1.371094 8.851562 1.847656 8.597656 1.847656 C 7.617188 1.847656 8.375 -2.101562 8.484375 -2.714844 C 8.652344 -3.808594 8.738281 -5.265625 9.4375 -6.132812 C 9.605469 -6.355469 11.511719 -8.792969 11.511719 -8.792969 C 11.453125 -8.820312 11.230469 -8.542969 11.089844 -8.375 L 12.292969 -9.996094 L 12.378906 -10.109375 L 12.40625 -10.109375 L 12.378906 -10.109375 L 12.601562 -10.417969 C 12.628906 -10.390625 12.601562 -10.332031 12.574219 -10.277344 L 12.828125 -10.558594 L 13.554688 -11.511719 C 14.085938 -12.265625 14.589844 -13.078125 15.066406 -13.863281 C 15.824219 -15.152344 16.859375 -17 16.300781 -18.566406 C 15.878906 -19.714844 14.339844 -19.941406 13.300781 -19.546875 C 12.546875 -19.269531 11.902344 -18.679688 11.371094 -18.0625 C 11.089844 -17.699219 10.808594 -17.308594 10.558594 -16.886719 C 10.472656 -16.773438 10.109375 -15.878906 10.027344 -15.765625 L 10.054688 -15.765625 C 9.886719 -15.457031 9.71875 -15.152344 9.605469 -14.84375 C 9.660156 -15.066406 9.800781 -15.515625 9.914062 -15.597656 C 9.691406 -15.429688 9.492188 -14.617188 9.4375 -14.535156 C 8.375 -12.210938 7.449219 -9.859375 6.777344 -7.394531 C 6.019531 -8.261719 4.816406 -9.746094 3.5 -9.214844 C 2.410156 -8.765625 1.597656 -7.617188 1.035156 -6.609375 C 0.53125 -5.714844 0.390625 -4.789062 0.0273438 -3.921875 C -0.617188 -2.4375 -0.925781 0.617188 1.261719 1.0625 C 1.933594 1.203125 2.546875 0.785156 3.082031 0.421875 C 4.03125 -0.28125 4.929688 -1.09375 5.769531 -1.933594 C 5.628906 -0.449219 5.320312 1.792969 6.523438 2.96875 C 8.007812 4.480469 9.492188 2.4375 10.390625 1.316406 C 11.539062 -0.140625 12.433594 -1.765625 13.582031 -3.164062 C 14.144531 -3.835938 14.703125 -4.507812 15.289062 -5.125 C 15.738281 -5.574219 16.636719 -6.132812 16.550781 -6.832031 Z M 6.246094 -4.984375 C 6.21875 -4.902344 6.21875 -4.84375 6.21875 -4.84375 C 6.105469 -4.171875 6.105469 -3.585938 5.628906 -3.109375 C 5.207031 -2.660156 4.761719 -2.242188 4.3125 -1.820312 C 3.894531 -1.429688 2.882812 -0.28125 2.242188 -0.335938 C 1.457031 -0.421875 2.042969 -2.210938 2.4375 -3.304688 C 2.015625 -2.183594 1.34375 -0.363281 2.269531 -0.308594 C 2.519531 -0.28125 2.941406 -0.503906 3.304688 -0.8125 C 2.96875 -0.503906 2.410156 -0.0859375 2.074219 -0.253906 C 1.429688 -0.53125 1.988281 -2.128906 2.101562 -2.578125 C 2.464844 -3.863281 2.996094 -5.097656 3.613281 -6.273438 C 3.921875 -6.859375 4.367188 -7.8125 4.957031 -7.871094 L 4.816406 -7.785156 C 4.84375 -7.8125 4.871094 -7.8125 4.902344 -7.8125 C 5.097656 -7.871094 5.292969 -7.730469 5.433594 -7.617188 C 5.796875 -7.367188 6.019531 -6.890625 6.273438 -6.523438 C 6.554688 -6.078125 6.355469 -5.601562 6.246094 -5.097656 Z M 10.753906 -11.453125 C 10.753906 -11.480469 10.753906 -11.539062 10.78125 -11.566406 L 10.78125 -11.59375 C 10.808594 -11.679688 10.839844 -11.707031 10.839844 -11.707031 L 10.839844 -11.734375 C 11.480469 -13.527344 12.183594 -15.320312 13.191406 -16.941406 C 13.441406 -17.363281 14.171875 -18.652344 14.816406 -18.289062 C 15.066406 -18.148438 15.121094 -17.785156 15.121094 -17.53125 C 15.234375 -15.851562 13.890625 -13.863281 13.050781 -12.519531 C 12.070312 -10.949219 10.976562 -9.410156 9.828125 -7.980469 L 10.445312 -8.625 L 11.007812 -9.324219 L 9.578125 -7.476562 L 9.382812 -7.226562 L 9.269531 -7.113281 C 9.296875 -7.28125 9.4375 -7.449219 9.578125 -7.644531 C 9.523438 -7.589844 9.464844 -7.535156 9.4375 -7.476562 C 9.800781 -8.679688 10.195312 -9.886719 10.613281 -11.089844 C 10.585938 -11.0625 10.613281 -11.117188 10.640625 -11.230469 L 10.726562 -11.371094 C 10.726562 -11.398438 10.726562 -11.425781 10.753906 -11.453125 Z M 8.402344 -9.15625 C 8.34375 -9.019531 8.175781 -8.375 8.09375 -8.289062 C 8.09375 -8.261719 8.066406 -8.234375 8.039062 -8.234375 C 8.261719 -8.511719 8.121094 -8.878906 8.234375 -9.214844 C 8.289062 -9.382812 8.570312 -9.691406 8.625 -9.914062 C 8.625 -9.691406 8.484375 -9.296875 8.402344 -9.15625 Z M 3.949219 -1.398438 C 4.648438 -2.015625 5.320312 -2.660156 5.964844 -3.332031 C 5.910156 -2.96875 5.039062 -2.351562 4.734375 -2.074219 C 4.367188 -1.707031 3.949219 -1.34375 3.527344 -1.007812 L 3.5 -1.007812 Z M 8.90625 -11.707031 C 8.792969 -11.371094 8.652344 -11.0625 8.484375 -10.753906 C 8.625 -11.175781 8.710938 -11.59375 8.90625 -11.984375 C 9.074219 -12.292969 9.269531 -12.6875 9.410156 -13.050781 C 9.269531 -12.601562 9.046875 -12.125 8.90625 -11.707031 Z M 10.726562 -11.371094 L 10.613281 -11.089844 C 10.613281 -11.117188 10.640625 -11.175781 10.640625 -11.230469 Z M 4.675781 -7.671875 C 4.566406 -7.589844 4.480469 -7.476562 4.453125 -7.476562 C 4.507812 -7.476562 4.59375 -7.589844 4.675781 -7.671875 Z M 5.460938 -7.730469 C 5.515625 -7.703125 5.574219 -7.671875 5.628906 -7.617188 Z M 11.007812 -8.234375 C 11.007812 -8.261719 11.035156 -8.289062 11.0625 -8.316406 C 11.035156 -8.261719 11.007812 -8.234375 11.007812 -8.234375 Z M 11.0625 -8.316406 L 11.089844 -8.375 C 11.089844 -8.34375 11.0625 -8.316406 11.0625 -8.316406 Z M 11.0625 -8.316406 "/></g></g></g><g fill="#000000" fill-opacity="1"><g transform="translate(75.375225, 27.51171)"><g><path d="M 14.253906 -6.75 C 14.226562 -7.367188 13.722656 -6.832031 13.554688 -6.609375 C 13.191406 -6.078125 12.855469 -5.515625 12.519531 -4.984375 C 11.761719 -3.835938 11.007812 -2.6875 10.136719 -1.597656 C 7.253906 1.960938 9.269531 -4.367188 9.046875 -4.3125 C 8.933594 -4.285156 8.851562 -3.863281 8.820312 -3.78125 C 9.046875 -4.789062 9.464844 -5.992188 9.996094 -6.972656 C 10.304688 -7.589844 10.671875 -8.09375 10.109375 -8.765625 C 9.074219 -10.027344 7.871094 -8.878906 7.199219 -8.007812 C 6.917969 -9.074219 6.355469 -10.640625 4.984375 -10.640625 C 4.367188 -10.640625 4.003906 -10.332031 3.585938 -9.96875 C 3.332031 -9.800781 3.136719 -9.773438 2.914062 -9.578125 C 2.546875 -9.324219 2.296875 -8.933594 2.042969 -8.597656 C 1.09375 -7.199219 0.421875 -5.433594 0.113281 -3.808594 C -0.0273438 -3.023438 -0.0859375 -2.15625 0.140625 -1.371094 C 0.28125 -0.925781 0.785156 0.0859375 1.429688 0 C 1.457031 0 1.398438 -0.0273438 1.316406 -0.0859375 C 1.707031 0.0273438 2.15625 -0.0273438 2.492188 -0.253906 C 2.519531 -0.195312 2.183594 -0.0546875 2.183594 -0.0546875 C 2.492188 0.421875 4.789062 -2.351562 4.957031 -2.605469 C 5.320312 -3.109375 5.574219 -3.640625 5.910156 -4.171875 C 6.160156 -4.566406 6.554688 -5.070312 6.832031 -5.488281 C 6.804688 -5.292969 6.804688 -5.039062 6.804688 -5.039062 C 6.300781 -3.445312 5.824219 -1.707031 6.496094 -0.0546875 C 6.804688 0.785156 7.5625 1.566406 8.511719 1.398438 C 9.355469 1.261719 10.054688 0.449219 10.558594 -0.195312 C 11.175781 -0.925781 11.707031 -1.734375 12.238281 -2.578125 C 12.6875 -3.332031 13.105469 -4.089844 13.46875 -4.929688 C 13.695312 -5.460938 14.3125 -6.105469 14.253906 -6.75 Z M 6.21875 -6.554688 C 6.078125 -6.355469 5.9375 -6.160156 5.824219 -5.964844 L 5.097656 -4.929688 C 4.621094 -4.230469 4.117188 -3.558594 3.585938 -2.914062 C 3.445312 -2.714844 2.773438 -1.847656 2.492188 -1.933594 C 2.074219 -2.074219 2.519531 -3.527344 2.578125 -3.753906 C 2.660156 -4.144531 4.144531 -8.457031 4.535156 -8.542969 C 4.03125 -8.570312 2.410156 -3.5 2.324219 -3.082031 C 2.546875 -4.453125 3.050781 -5.796875 3.613281 -7.058594 C 3.921875 -7.703125 4.621094 -9.410156 5.546875 -9.410156 C 6.050781 -9.410156 6.160156 -8.375 6.246094 -8.039062 C 6.21875 -8.09375 5.964844 -8.90625 5.9375 -8.878906 C 5.796875 -8.765625 6.355469 -7.226562 6.355469 -7 C 6.355469 -6.777344 6.355469 -6.777344 6.21875 -6.554688 Z M 6.859375 -5.179688 C 6.859375 -5.179688 6.945312 -5.574219 6.972656 -5.65625 L 7.113281 -5.851562 Z M 6.441406 -6.917969 L 6.441406 -7.199219 C 6.523438 -7.085938 6.523438 -7 6.441406 -6.917969 Z M 6.441406 -6.917969 "/></g></g><g transform="translate(87.585523, 27.51171)"><g/></g></g><g fill="#000000" fill-opacity="1"><g transform="translate(95.427, 27.51171)"><g><path d="M 18.59375 -19.742188 C 18.484375 -20.667969 18.121094 -22.179688 16.941406 -22.179688 C 16.046875 -22.179688 14.953125 -20.808594 14.394531 -20.21875 C 13.023438 -18.792969 11.761719 -17.195312 10.558594 -15.570312 C 8.007812 -12.125 5.683594 -8.402344 3.921875 -4.480469 C 4.761719 -6.945312 5.460938 -9.492188 6.414062 -11.902344 C 6.441406 -12.015625 8.289062 -16.382812 8.710938 -17.109375 C 8.429688 -16.664062 7.589844 -14.871094 7.199219 -14.058594 C 7.925781 -15.683594 8.710938 -17.308594 9.523438 -18.875 C 9.4375 -18.707031 9.324219 -18.425781 9.355469 -18.425781 C 9.464844 -18.398438 10.054688 -19.546875 9.96875 -19.574219 L 9.859375 -19.492188 C 10.027344 -19.742188 10.136719 -19.882812 9.996094 -20.277344 C 9.800781 -20.75 9.269531 -21.3125 8.765625 -21.394531 C 8.007812 -21.507812 7.503906 -20.78125 7.199219 -20.191406 C 7.03125 -19.855469 6.722656 -19.660156 6.496094 -19.269531 C 6.132812 -18.679688 5.882812 -18.035156 5.628906 -17.390625 C 5.488281 -17.109375 3.976562 -13.554688 4.0625 -13.527344 L 4.144531 -13.636719 C 4.03125 -13.386719 3.976562 -13.105469 3.863281 -12.855469 C 3.835938 -12.882812 3.949219 -13.078125 3.894531 -13.105469 C 3.640625 -13.164062 2.828125 -10.613281 2.800781 -10.417969 C 2.6875 -9.828125 2.546875 -9.296875 2.351562 -8.738281 C 2.210938 -8.375 2.074219 -8.007812 1.988281 -7.617188 C 1.988281 -7.589844 1.875 -7 1.933594 -7.03125 L 1.933594 -6.890625 C 1.90625 -6.917969 1.90625 -6.972656 1.90625 -7 C 1.820312 -6.972656 1.679688 -6.050781 1.652344 -5.964844 C 1.457031 -5.488281 1.230469 -5.039062 1.09375 -4.535156 C 0.699219 -3.164062 0.53125 -1.765625 0.335938 -0.363281 C 0.195312 0.53125 -0.308594 2.128906 0.253906 2.941406 C 0.644531 3.5 1.988281 4.03125 2.519531 3.332031 C 2.746094 3.082031 2.6875 2.605469 2.746094 2.351562 C 2.914062 0.953125 3.277344 -0.195312 3.808594 -1.511719 C 4.902344 -4.199219 6.246094 -6.804688 7.757812 -9.296875 C 9.019531 -11.3125 10.195312 -13.414062 11.679688 -15.289062 C 12.601562 -16.46875 13.527344 -17.644531 14.535156 -18.734375 C 14.757812 -18.988281 15.738281 -20.191406 16.1875 -20.023438 C 16.746094 -19.828125 16.214844 -17.894531 16.132812 -17.503906 C 15.824219 -16.101562 15.429688 -14.703125 14.953125 -13.332031 C 14.171875 -11.089844 13.441406 -8.792969 12.492188 -6.664062 C 11.875 -5.292969 11.175781 -3.949219 10.445312 -2.660156 C 9.828125 -1.625 8.960938 0.167969 7.644531 0.503906 C 6.132812 0.867188 5.125 -1.371094 4.621094 -2.464844 C 4.621094 -0.476562 5.796875 1.597656 7.925781 1.960938 C 10.082031 2.324219 11.929688 0.0546875 13.023438 -1.484375 C 13.890625 -2.6875 14.675781 -4.03125 15.289062 -5.378906 C 15.429688 -5.714844 15.457031 -6.050781 15.542969 -6.355469 C 15.683594 -6.890625 16.074219 -7.394531 16.300781 -7.898438 C 16.914062 -9.296875 17.449219 -10.671875 17.867188 -12.125 C 18.089844 -12.828125 18.289062 -13.527344 18.425781 -14.253906 C 18.484375 -14.535156 18.539062 -14.871094 18.566406 -15.152344 C 18.566406 -15.320312 18.457031 -15.570312 18.457031 -15.625 C 18.425781 -16.300781 18.652344 -17 18.679688 -17.699219 C 18.707031 -18.371094 18.679688 -19.070312 18.59375 -19.742188 Z M 3.417969 -9.773438 C 3.5 -10.445312 3.835938 -11.175781 4.089844 -11.816406 C 4.398438 -12.660156 4.703125 -13.441406 5.125 -14.253906 C 5.65625 -15.320312 6.160156 -16.410156 6.777344 -17.449219 C 6.722656 -17.308594 6.691406 -17.027344 6.609375 -16.859375 C 6.496094 -16.605469 6.328125 -16.355469 6.21875 -16.074219 C 5.9375 -15.457031 5.683594 -14.84375 5.378906 -14.226562 C 4.984375 -13.414062 4.621094 -12.628906 4.285156 -11.816406 C 4.089844 -11.371094 3.949219 -10.921875 3.78125 -10.472656 C 3.695312 -10.195312 3.613281 -9.605469 3.445312 -9.410156 C 3.386719 -9.355469 3.417969 -9.773438 3.417969 -9.773438 Z M 12.238281 -4.535156 C 12.152344 -4.398438 12.070312 -4.257812 12.015625 -4.117188 L 11.875 -3.835938 C 11.847656 -3.835938 11.847656 -3.808594 11.847656 -3.78125 C 11.3125 -2.800781 10.726562 -1.792969 10.109375 -0.894531 C 10.027344 -0.785156 8.261719 1.457031 8.007812 0.867188 C 7.980469 0.785156 8.570312 0.671875 8.597656 0.644531 C 8.988281 0.449219 9.324219 0.0273438 9.605469 -0.308594 C 10.277344 -1.175781 10.867188 -2.15625 11.398438 -3.109375 C 11.847656 -3.894531 12.265625 -4.675781 12.628906 -5.460938 L 12.40625 -4.929688 C 12.519531 -5.152344 12.601562 -5.378906 12.6875 -5.601562 L 12.855469 -5.992188 L 12.828125 -5.851562 C 12.882812 -5.992188 12.9375 -6.160156 13.023438 -6.300781 L 13.023438 -6.328125 C 13.164062 -6.609375 13.273438 -6.832031 13.300781 -6.832031 C 13.300781 -6.804688 12.351562 -4.734375 12.238281 -4.566406 Z M 14.28125 -7.535156 C 14.144531 -6.972656 13.945312 -6.414062 13.695312 -5.910156 C 13.46875 -5.488281 13.078125 -5.070312 12.9375 -4.621094 C 13.273438 -5.628906 13.863281 -6.554688 14.28125 -7.5625 Z M 3.835938 -9.15625 C 3.613281 -8.792969 3.695312 -8.375 3.585938 -8.007812 C 3.5 -7.839844 3.191406 -7.503906 3.136719 -7.28125 C 3.136719 -7.449219 3.191406 -7.671875 3.21875 -7.8125 C 3.25 -8.09375 3.386719 -8.207031 3.527344 -8.429688 C 3.640625 -8.597656 3.695312 -9.15625 3.921875 -9.242188 Z M 10.136719 -0.8125 C 10.53125 -1.398438 10.921875 -2.015625 11.285156 -2.6875 C 10.921875 -1.988281 10.558594 -1.371094 10.136719 -0.8125 Z M 7.167969 -18.148438 C 7.28125 -18.089844 7.253906 -18.035156 7.113281 -17.894531 C 7.058594 -17.953125 7.058594 -18.035156 7.167969 -18.148438 Z M 6.496094 -12.40625 L 6.496094 -12.378906 L 6.050781 -11.3125 L 6.777344 -13.105469 C 6.691406 -12.855469 6.609375 -12.628906 6.496094 -12.40625 Z M 11.539062 -3.191406 C 11.539062 -3.136719 11.511719 -3.109375 11.480469 -3.050781 Z M 12.714844 -5.65625 C 12.714844 -5.628906 12.714844 -5.628906 12.6875 -5.601562 C 12.6875 -5.628906 12.714844 -5.628906 12.714844 -5.65625 Z M 12.714844 -5.65625 "/></g></g></g><g fill="#000000" fill-opacity="1"><g transform="translate(112.454203, 27.51171)"><g><path d="M 12.882812 -6.972656 C 12.882812 -6.972656 12.910156 -6.945312 12.882812 -7 C 12.742188 -7.199219 12.546875 -7.058594 12.351562 -7 C 11.539062 -6.832031 10.699219 -6.636719 9.859375 -6.496094 C 10.164062 -7.503906 10.472656 -8.570312 10.585938 -9.605469 C 10.640625 -9.996094 10.671875 -10.417969 10.585938 -10.808594 C 10.53125 -11.0625 10.445312 -11.3125 10.304688 -11.539062 C 10.304688 -11.539062 9.96875 -11.957031 10.054688 -11.734375 L 10.027344 -11.761719 L 9.914062 -11.984375 L 10.027344 -11.875 C 10.054688 -12.042969 9.578125 -12.351562 9.578125 -12.351562 C 8.878906 -13.050781 7.925781 -13.582031 6.972656 -13.050781 C 6.386719 -12.714844 5.910156 -12.152344 5.515625 -11.59375 C 5.378906 -11.398438 5.238281 -11.175781 5.125 -10.949219 C 5.011719 -10.726562 4.84375 -9.996094 4.675781 -9.886719 C 4.535156 -9.773438 4.117188 -9.746094 3.921875 -9.632812 C 3.640625 -9.523438 3.386719 -9.382812 3.164062 -9.214844 C 2.632812 -8.878906 2.210938 -8.402344 1.820312 -7.925781 C 1.148438 -7.03125 0.8125 -6.019531 0.335938 -5.125 C -0.558594 -3.417969 0.421875 -1.175781 2.074219 -0.363281 C 2.605469 -0.113281 3.21875 0 3.78125 -0.0546875 C 4.367188 -0.140625 4.929688 -0.449219 5.378906 -0.785156 C 5.796875 -1.09375 6.722656 -1.652344 6.890625 -2.128906 C 6.890625 -2.15625 6.832031 -2.128906 6.75 -2.042969 L 7.5625 -2.996094 C 7.589844 -2.96875 7.367188 -2.6875 7.367188 -2.6875 C 7.5625 -2.605469 8.570312 -4.089844 8.679688 -4.199219 C 8.878906 -4.535156 9.074219 -4.902344 9.296875 -5.238281 C 9.492188 -5.488281 9.4375 -5.460938 9.71875 -5.574219 C 9.691406 -5.546875 10.054688 -5.65625 10.109375 -5.65625 C 10.417969 -5.714844 13.695312 -5.9375 12.882812 -6.972656 Z M 3.191406 -1.316406 L 3.164062 -1.316406 C 0.839844 -0.980469 3.527344 -5.910156 3.585938 -6.1875 L 3.417969 -5.9375 C 3.835938 -6.777344 4.230469 -7.449219 4.425781 -7.671875 C 4.734375 -6.273438 6.246094 -5.742188 7.476562 -5.574219 C 6.664062 -3.949219 5.152344 -1.679688 3.191406 -1.316406 Z M 8.710938 -9.074219 C 8.511719 -8.289062 8.34375 -7.253906 7.925781 -6.554688 C 7.785156 -6.273438 7.871094 -6.355469 7.589844 -6.300781 C 7.421875 -6.246094 7.058594 -6.300781 6.890625 -6.328125 C 6.582031 -6.355469 6.21875 -6.414062 5.992188 -6.609375 C 5.601562 -6.945312 5.65625 -7.476562 5.714844 -7.953125 C 5.769531 -8.429688 5.910156 -8.878906 6.078125 -9.324219 C 6.160156 -9.492188 6.691406 -10.390625 6.609375 -10.558594 C 6.582031 -10.640625 6.273438 -10.136719 6.246094 -10.109375 C 6.414062 -10.417969 6.582031 -10.585938 6.722656 -10.78125 C 6.691406 -10.78125 6.722656 -10.808594 6.75 -10.867188 L 6.75 -10.839844 L 6.777344 -10.894531 C 6.777344 -10.894531 6.777344 -10.921875 6.804688 -10.921875 C 7.226562 -11.480469 8.261719 -12.742188 8.820312 -11.875 C 9.242188 -11.144531 8.851562 -9.773438 8.710938 -9.074219 Z M 6.777344 -10.894531 L 6.804688 -10.921875 C 6.804688 -10.894531 6.777344 -10.894531 6.777344 -10.894531 Z M 6.777344 -10.894531 "/></g></g></g><g fill="#000000" fill-opacity="1"><g transform="translate(123.404265, 27.51171)"><g><path d="M 10.136719 -5.179688 C 10.390625 -5.546875 11.398438 -6.609375 10.976562 -7.085938 C 10.417969 -7.644531 8.960938 -5.320312 8.738281 -5.039062 C 8.289062 -4.453125 7.8125 -3.894531 7.367188 -3.332031 C 7.113281 -3.023438 6.859375 -2.714844 6.582031 -2.4375 C 6.523438 -2.378906 5.992188 -1.707031 6.050781 -1.707031 C 6.132812 -1.734375 6.21875 -1.792969 6.300781 -1.847656 C 5.824219 -1.34375 5.179688 -0.894531 4.59375 -0.449219 C 4.199219 -0.167969 3.445312 0.449219 2.96875 0.113281 C 2.773438 0 2.714844 -0.28125 2.660156 -0.476562 C 2.464844 -1.34375 2.605469 -2.378906 2.746094 -3.277344 C 3.050781 -5.152344 3.667969 -7 4.425781 -8.765625 C 4.789062 -9.578125 5.152344 -10.390625 5.796875 -11.007812 C 5.851562 -11.0625 5.964844 -10.949219 5.992188 -10.976562 C 6.050781 -11.007812 5.824219 -11.089844 5.796875 -11.0625 C 5.488281 -10.894531 5.292969 -10.558594 5.125 -10.25 C 4.621094 -9.4375 4.230469 -8.542969 3.894531 -7.644531 C 4.144531 -8.34375 4.425781 -9.046875 4.761719 -9.746094 C 4.957031 -10.109375 5.179688 -10.699219 5.546875 -10.976562 C 6.496094 -11.734375 6.132812 -9.242188 6.019531 -8.878906 C 6.019531 -8.90625 6.132812 -9.523438 6.105469 -9.523438 C 6.050781 -9.523438 5.65625 -8.09375 5.65625 -8.09375 L 5.796875 -8.207031 C 5.65625 -7.980469 5.378906 -7.8125 5.742188 -7.5625 C 6.1875 -7.253906 7.058594 -7.785156 7.253906 -8.175781 C 7.449219 -8.597656 7.503906 -9.15625 7.535156 -9.578125 C 7.589844 -10.304688 7.394531 -10.726562 7.140625 -11.285156 C 6.859375 -11.875 6.609375 -12.238281 5.851562 -12.351562 C 5.238281 -12.433594 4.675781 -12.183594 4.199219 -11.816406 C 3.5 -11.3125 2.96875 -10.671875 2.519531 -9.941406 C 2.410156 -9.746094 1.398438 -7.703125 1.429688 -7.671875 L 1.539062 -7.8125 C 1.398438 -7.503906 1.316406 -7.199219 1.203125 -6.917969 C 1.175781 -6.917969 1.261719 -7.167969 1.230469 -7.167969 C 1.0625 -7.199219 0.558594 -5.65625 0.53125 -5.515625 C 0.335938 -4.929688 0.195312 -4.339844 0.167969 -3.726562 C 0.140625 -3.050781 0.0273438 -2.378906 0 -1.679688 C 0 -1.316406 0 -0.925781 0.0546875 -0.558594 C 0.0546875 -0.449219 0.28125 0.140625 0.28125 -0.0273438 L 0.421875 0.449219 C 0.390625 0.421875 0.28125 0.140625 0.28125 0.140625 C 0.140625 0.308594 0.894531 1.398438 1.0625 1.566406 C 1.289062 1.820312 1.625 1.933594 1.960938 1.988281 C 3.082031 2.128906 4.144531 1.484375 4.957031 0.8125 C 6.355469 -0.363281 7.730469 -1.820312 8.765625 -3.332031 C 9.1875 -3.976562 9.660156 -4.566406 10.136719 -5.179688 Z M 1.933594 -7.226562 C 1.875 -6.945312 1.792969 -6.636719 1.679688 -6.386719 C 1.597656 -6.1875 1.34375 -6.019531 1.316406 -5.882812 C 1.371094 -6.355469 1.734375 -6.832031 1.960938 -7.367188 C 1.960938 -7.308594 1.933594 -7.253906 1.933594 -7.226562 Z M 0.894531 -3.949219 C 0.785156 -3.753906 0.785156 -3.386719 0.785156 -3.082031 C 0.757812 -3.417969 0.757812 -3.78125 0.867188 -4.117188 C 0.867188 -4.117188 0.953125 -4.003906 0.894531 -3.949219 Z M 2.914062 -4.621094 C 3.023438 -5.070312 3.164062 -5.515625 3.304688 -5.964844 Z M 0.953125 -4.480469 C 0.925781 -4.398438 0.867188 -4.285156 0.867188 -4.230469 C 0.867188 -4.367188 0.867188 -4.507812 1.007812 -4.566406 Z M 3.417969 -6.300781 C 3.386719 -6.273438 3.386719 -6.273438 3.386719 -6.246094 C 3.386719 -6.300781 3.386719 -6.355469 3.417969 -6.414062 Z M 3.417969 -6.300781 "/></g></g></g><g fill="#000000" fill-opacity="1"><g transform="translate(132.421967, 27.51171)"><g><path d="M 11.371094 -14.5625 C 11.34375 -14.953125 10.921875 -14.648438 10.699219 -14.648438 C 9.578125 -14.589844 8.457031 -14.589844 7.367188 -14.535156 C 7.367188 -14.5625 7.421875 -14.675781 7.503906 -14.84375 C 7.394531 -14.648438 7.308594 -14.535156 7.226562 -14.535156 C 8.066406 -16.242188 8.960938 -17.953125 10.027344 -19.519531 C 9.996094 -19.464844 9.578125 -18.761719 9.605469 -18.761719 C 9.691406 -18.734375 10.726562 -20.164062 10.753906 -20.359375 C 10.753906 -20.472656 10.503906 -20.191406 10.503906 -20.21875 C 10.671875 -20.386719 10.949219 -20.527344 11.035156 -20.75 C 11.230469 -21.3125 10.640625 -21.5625 10.222656 -21.648438 C 9.355469 -21.816406 8.375 -21.703125 7.8125 -20.976562 C 7.28125 -20.332031 6.890625 -19.574219 6.554688 -18.820312 C 6.386719 -18.484375 6.160156 -18.398438 5.9375 -18.089844 C 5.601562 -17.617188 5.378906 -17.054688 5.125 -16.523438 C 4.902344 -16.046875 4.675781 -15.542969 4.480469 -15.039062 C 4.367188 -14.785156 4.367188 -14.589844 4.117188 -14.507812 C 3.863281 -14.394531 3.386719 -14.480469 3.109375 -14.449219 C 2.015625 -14.3125 0.953125 -14.367188 -0.140625 -14.253906 C -0.699219 -14.226562 -1.261719 -14.226562 -1.792969 -14.03125 C -1.90625 -14.003906 -2.519531 -13.863281 -2.578125 -13.777344 C -2.746094 -13.46875 -2.074219 -13.441406 -1.933594 -13.414062 C -0.867188 -13.273438 0.476562 -13.164062 1.539062 -13.359375 C 2.269531 -13.5 3.023438 -13.441406 3.808594 -13.5 C 3.417969 -12.660156 3.109375 -11.761719 2.800781 -10.867188 L 2.464844 -9.886719 C 2.351562 -9.578125 1.988281 -8.988281 1.988281 -8.652344 C 1.988281 -8.597656 2.074219 -8.738281 2.128906 -8.878906 C 1.988281 -8.457031 1.820312 -8.039062 1.707031 -7.617188 C 1.707031 -7.644531 1.792969 -7.980469 1.765625 -7.980469 C 1.625 -7.980469 1.0625 -6.273438 1.007812 -6.132812 C 0.726562 -5.292969 0.421875 -4.453125 0.28125 -3.558594 C 0.113281 -2.660156 -0.113281 -1.792969 -0.308594 -0.925781 C -0.421875 -0.476562 -0.53125 -0.0546875 -0.589844 0.390625 C -0.644531 0.617188 -0.699219 0.867188 -0.699219 1.09375 C -0.699219 1.148438 -0.699219 1.511719 -0.644531 1.398438 L -0.699219 1.960938 L -0.699219 1.539062 C -0.867188 1.734375 -0.699219 2.632812 -0.671875 2.800781 C -0.558594 3.359375 -0.28125 3.863281 0.222656 4.199219 C 0.671875 4.535156 1.371094 4.84375 1.90625 4.59375 C 2.605469 4.257812 3.191406 3.472656 3.640625 2.914062 C 4.621094 1.765625 5.515625 0.558594 6.414062 -0.644531 C 7.226562 -1.765625 8.066406 -2.855469 8.765625 -4.03125 C 9.15625 -4.703125 9.914062 -5.320312 10.164062 -6.078125 C 10.304688 -6.441406 10.222656 -6.890625 9.773438 -6.804688 C 9.410156 -6.722656 8.90625 -5.742188 8.679688 -5.460938 C 7.671875 -4.199219 6.722656 -2.914062 5.714844 -1.652344 L 4.089844 0.335938 C 3.835938 0.617188 3.585938 0.925781 3.304688 1.203125 C 3.191406 1.34375 2.492188 1.90625 2.519531 2.074219 C 2.519531 2.128906 2.828125 1.875 2.941406 1.792969 C 2.800781 1.960938 2.632812 2.101562 2.492188 2.242188 C 2.519531 2.210938 1.933594 2.546875 1.847656 2.492188 C 1.316406 2.269531 1.792969 0.644531 1.875 0.253906 C 2.378906 -2.015625 3.136719 -4.3125 3.894531 -6.496094 C 4.339844 -7.703125 4.789062 -8.851562 5.292969 -10.027344 C 5.546875 -10.613281 5.796875 -11.230469 6.078125 -11.816406 L 6.46875 -12.882812 L 6.160156 -12.265625 C 6.355469 -12.769531 6.636719 -13.527344 6.804688 -13.554688 L 6.722656 -13.386719 C 6.777344 -13.46875 6.832031 -13.527344 6.890625 -13.554688 C 7.199219 -13.75 7.980469 -13.554688 8.34375 -13.554688 C 8.597656 -13.554688 8.90625 -13.527344 9.15625 -13.609375 C 9.324219 -13.667969 9.269531 -13.75 9.464844 -13.804688 C 9.800781 -13.863281 10.222656 -13.636719 10.585938 -13.75 C 10.921875 -13.835938 11.398438 -14.144531 11.371094 -14.535156 Z M 6.050781 -12.9375 C 4.789062 -10.277344 3.835938 -7.421875 2.828125 -4.648438 C 2.351562 -3.386719 1.90625 -2.074219 1.597656 -0.757812 L 1.457031 -0.222656 C 1.652344 -1.230469 1.875 -2.210938 2.15625 -3.191406 C 2.773438 -5.347656 3.558594 -7.476562 4.480469 -9.523438 C 6.050781 -13.023438 7.449219 -16.773438 9.691406 -19.941406 C 8.175781 -17.785156 7.167969 -15.320312 6.050781 -12.9375 Z M 7.898438 -15.710938 L 8.570312 -17 C 8.429688 -16.972656 8.175781 -16.355469 7.898438 -15.710938 Z M 5.011719 -9.605469 C 4.816406 -9.074219 4.59375 -8.570312 4.367188 -8.066406 C 4.59375 -8.597656 4.789062 -9.15625 5.039062 -9.71875 C 5.011719 -9.660156 5.011719 -9.632812 5.011719 -9.605469 Z M 7.535156 -14.898438 L 7.8125 -15.515625 C 7.730469 -15.289062 7.617188 -15.066406 7.535156 -14.898438 Z M 1.429688 2.746094 C 1.398438 2.746094 1.371094 2.714844 1.34375 2.6875 Z M 1.429688 2.746094 "/></g></g></g><g fill="#000000" fill-opacity="1"><g transform="translate(141.01958, 27.51171)"><g><path d="M 12.882812 -6.972656 C 12.882812 -6.972656 12.910156 -6.945312 12.882812 -7 C 12.742188 -7.199219 12.546875 -7.058594 12.351562 -7 C 11.539062 -6.832031 10.699219 -6.636719 9.859375 -6.496094 C 10.164062 -7.503906 10.472656 -8.570312 10.585938 -9.605469 C 10.640625 -9.996094 10.671875 -10.417969 10.585938 -10.808594 C 10.53125 -11.0625 10.445312 -11.3125 10.304688 -11.539062 C 10.304688 -11.539062 9.96875 -11.957031 10.054688 -11.734375 L 10.027344 -11.761719 L 9.914062 -11.984375 L 10.027344 -11.875 C 10.054688 -12.042969 9.578125 -12.351562 9.578125 -12.351562 C 8.878906 -13.050781 7.925781 -13.582031 6.972656 -13.050781 C 6.386719 -12.714844 5.910156 -12.152344 5.515625 -11.59375 C 5.378906 -11.398438 5.238281 -11.175781 5.125 -10.949219 C 5.011719 -10.726562 4.84375 -9.996094 4.675781 -9.886719 C 4.535156 -9.773438 4.117188 -9.746094 3.921875 -9.632812 C 3.640625 -9.523438 3.386719 -9.382812 3.164062 -9.214844 C 2.632812 -8.878906 2.210938 -8.402344 1.820312 -7.925781 C 1.148438 -7.03125 0.8125 -6.019531 0.335938 -5.125 C -0.558594 -3.417969 0.421875 -1.175781 2.074219 -0.363281 C 2.605469 -0.113281 3.21875 0 3.78125 -0.0546875 C 4.367188 -0.140625 4.929688 -0.449219 5.378906 -0.785156 C 5.796875 -1.09375 6.722656 -1.652344 6.890625 -2.128906 C 6.890625 -2.15625 6.832031 -2.128906 6.75 -2.042969 L 7.5625 -2.996094 C 7.589844 -2.96875 7.367188 -2.6875 7.367188 -2.6875 C 7.5625 -2.605469 8.570312 -4.089844 8.679688 -4.199219 C 8.878906 -4.535156 9.074219 -4.902344 9.296875 -5.238281 C 9.492188 -5.488281 9.4375 -5.460938 9.71875 -5.574219 C 9.691406 -5.546875 10.054688 -5.65625 10.109375 -5.65625 C 10.417969 -5.714844 13.695312 -5.9375 12.882812 -6.972656 Z M 3.191406 -1.316406 L 3.164062 -1.316406 C 0.839844 -0.980469 3.527344 -5.910156 3.585938 -6.1875 L 3.417969 -5.9375 C 3.835938 -6.777344 4.230469 -7.449219 4.425781 -7.671875 C 4.734375 -6.273438 6.246094 -5.742188 7.476562 -5.574219 C 6.664062 -3.949219 5.152344 -1.679688 3.191406 -1.316406 Z M 8.710938 -9.074219 C 8.511719 -8.289062 8.34375 -7.253906 7.925781 -6.554688 C 7.785156 -6.273438 7.871094 -6.355469 7.589844 -6.300781 C 7.421875 -6.246094 7.058594 -6.300781 6.890625 -6.328125 C 6.582031 -6.355469 6.21875 -6.414062 5.992188 -6.609375 C 5.601562 -6.945312 5.65625 -7.476562 5.714844 -7.953125 C 5.769531 -8.429688 5.910156 -8.878906 6.078125 -9.324219 C 6.160156 -9.492188 6.691406 -10.390625 6.609375 -10.558594 C 6.582031 -10.640625 6.273438 -10.136719 6.246094 -10.109375 C 6.414062 -10.417969 6.582031 -10.585938 6.722656 -10.78125 C 6.691406 -10.78125 6.722656 -10.808594 6.75 -10.867188 L 6.75 -10.839844 L 6.777344 -10.894531 C 6.777344 -10.894531 6.777344 -10.921875 6.804688 -10.921875 C 7.226562 -11.480469 8.261719 -12.742188 8.820312 -11.875 C 9.242188 -11.144531 8.851562 -9.773438 8.710938 -9.074219 Z M 6.777344 -10.894531 L 6.804688 -10.921875 C 6.804688 -10.894531 6.777344 -10.894531 6.777344 -10.894531 Z M 6.777344 -10.894531 "/></g></g></g><g fill="#000000" fill-opacity="1"><g transform="translate(151.969642, 27.51171)"><g><path d="M 11.480469 -6.804688 C 11.3125 -7.535156 10.640625 -6.554688 10.503906 -6.386719 L 8.960938 -4.3125 L 7.449219 -2.324219 L 6.636719 -1.289062 C 6.554688 -1.175781 5.9375 -0.390625 5.992188 -0.390625 C 6.050781 -0.449219 6.132812 -0.449219 6.21875 -0.53125 C 5.796875 -0.0859375 4.257812 1.316406 3.976562 0.980469 C 3.753906 0.699219 4.367188 -0.476562 4.453125 -0.757812 C 4.761719 -1.566406 5.039062 -2.410156 5.378906 -3.191406 C 5.742188 -4.003906 6.160156 -4.816406 6.496094 -5.628906 C 6.832031 -6.496094 6.328125 -6.804688 5.515625 -7 C 5.152344 -7.085938 4.703125 -7.085938 4.285156 -7.140625 C 4.285156 -7.113281 4.3125 -7.113281 4.3125 -7.113281 C 4.675781 -7.058594 5.207031 -7.03125 5.65625 -6.890625 C 4.984375 -7.085938 4.144531 -7 3.613281 -7.140625 C 3.25 -7.226562 3.023438 -7.226562 3.082031 -7.644531 C 3.136719 -8.207031 3.726562 -8.792969 3.921875 -9.324219 C 3.921875 -9.296875 3.726562 -8.792969 3.753906 -8.792969 C 3.894531 -8.738281 4.117188 -9.523438 4.117188 -9.632812 C 4.089844 -9.773438 3.753906 -10.195312 3.726562 -10.027344 L 3.78125 -9.941406 C 2.4375 -10.867188 0.839844 -8.960938 1.121094 -7.589844 C 1.175781 -7.394531 1.289062 -7.28125 1.371094 -7.058594 C 1.429688 -6.890625 1.371094 -6.691406 1.539062 -6.46875 C 2.128906 -5.742188 3.191406 -5.714844 4.03125 -5.882812 C 3.894531 -5.683594 2.410156 -2.546875 2.492188 -2.519531 L 2.296875 -1.820312 C 2.269531 -1.847656 2.378906 -2.074219 2.324219 -2.074219 C 2.128906 -2.101562 1.734375 -0.476562 1.707031 -0.335938 C 1.597656 0.335938 1.625 0.925781 1.90625 1.539062 C 2.074219 1.933594 2.269531 2.269531 2.632812 2.492188 C 2.96875 2.714844 3.386719 2.828125 3.78125 2.746094 C 3.921875 2.6875 4.453125 2.324219 4.3125 2.351562 L 4.507812 2.269531 C 4.480469 2.296875 4.453125 2.324219 4.453125 2.351562 C 4.535156 2.378906 5.824219 1.34375 5.992188 1.230469 C 6.890625 0.476562 7.617188 -0.449219 8.289062 -1.371094 C 8.960938 -2.324219 9.660156 -3.277344 10.304688 -4.230469 C 10.613281 -4.675781 10.894531 -5.125 11.117188 -5.601562 C 11.285156 -5.9375 11.566406 -6.414062 11.480469 -6.804688 Z M 3.109375 -3.445312 C 3.304688 -3.949219 3.527344 -4.425781 3.78125 -4.902344 C 3.835938 -4.984375 4.230469 -5.992188 4.425781 -6.050781 C 4.285156 -5.964844 3.695312 -4.59375 3.558594 -4.339844 L 3.023438 -3.109375 C 2.746094 -2.4375 2.4375 -1.734375 2.242188 -1.007812 C 2.4375 -1.847656 2.773438 -2.660156 3.109375 -3.445312 Z M 2.4375 1.933594 C 2.605469 2.15625 2.828125 2.378906 3.136719 2.492188 C 2.882812 2.410156 2.660156 2.269531 2.492188 2.101562 C 2.519531 2.101562 2.519531 2.128906 2.519531 2.15625 C 2.351562 1.933594 2.128906 1.457031 2.101562 1.371094 C 2.015625 1.035156 1.988281 0.644531 2.015625 0.308594 C 2.015625 0.0273438 2.042969 -0.195312 2.101562 -0.449219 L 2.101562 -0.421875 C 2.042969 -0.0546875 2.015625 0.308594 2.042969 0.699219 L 2.042969 0.839844 C 2.015625 0.8125 2.015625 0.785156 2.015625 0.785156 C 2.015625 0.785156 2.015625 0.8125 2.042969 0.867188 L 2.042969 0.894531 L 2.15625 1.484375 L 2.074219 1.121094 C 2.128906 1.289062 2.269531 1.597656 2.410156 1.90625 L 2.378906 1.875 C 2.378906 1.90625 2.410156 1.933594 2.4375 1.960938 Z M 3.21875 -7.308594 C 3.359375 -7.199219 3.613281 -7.167969 3.863281 -7.140625 C 3.640625 -7.167969 3.445312 -7.226562 3.304688 -7.335938 C 3.304688 -7.335938 3.136719 -7.476562 3.109375 -7.535156 C 3.109375 -7.476562 3.164062 -7.335938 3.21875 -7.308594 Z M 6.160156 -5.125 L 5.574219 -3.894531 L 6.160156 -5.152344 Z M 2.128906 -0.53125 C 2.128906 -0.503906 2.101562 -0.476562 2.101562 -0.449219 L 2.101562 -0.476562 C 2.101562 -0.503906 2.128906 -0.503906 2.128906 -0.53125 Z M 6.1875 -5.207031 L 6.1875 -5.179688 L 6.160156 -5.179688 Z M 6.1875 -5.207031 L 6.1875 -5.179688 L 6.160156 -5.179688 Z M 2.15625 -0.894531 C 2.15625 -0.925781 2.183594 -0.953125 2.183594 -1.007812 C 2.183594 -0.953125 2.15625 -0.925781 2.15625 -0.894531 Z M 2.269531 1.679688 C 2.269531 1.679688 2.296875 1.707031 2.296875 1.734375 C 2.296875 1.707031 2.269531 1.707031 2.269531 1.679688 Z M 3.136719 -7.589844 C 3.109375 -7.589844 3.109375 -7.5625 3.109375 -7.5625 Z M 3.136719 -7.589844 "/></g></g></g></svg>